<svg id="svg" version="1.1" width="400" height="400" viewBox="0 0 400 400" xmlns="http://www.w3.org/2000/svg" xmlns:xlink="http://www.w3.org/1999/xlink" ><g id="svgg"><path id="path0" d="M234.400 122.600 C 233.992 123.091,234.020 123.200,234.551 123.200 C 234.908 123.200,235.200 122.930,235.200 122.600 C 235.200 122.270,235.132 122.000,235.049 122.000 C 234.966 122.000,234.674 122.270,234.400 122.600 M223.350 127.787 C 222.938 128.860,223.389 129.011,224.286 128.100 C 225.142 127.230,225.145 127.200,224.373 127.200 C 223.934 127.200,223.474 127.464,223.350 127.787 M253.714 133.900 C 253.144 134.479,253.020 134.800,253.365 134.800 C 253.990 134.800,254.939 133.772,254.738 133.313 C 254.662 133.141,254.201 133.405,253.714 133.900 M240.800 141.600 C 240.800 142.507,241.215 142.625,241.920 141.920 C 242.625 141.215,242.507 140.800,241.600 140.800 C 241.067 140.800,240.800 141.067,240.800 141.600 M196.400 144.600 C 195.992 145.091,196.020 145.200,196.551 145.200 C 196.908 145.200,197.200 144.930,197.200 144.600 C 197.200 144.270,197.132 144.000,197.049 144.000 C 196.966 144.000,196.674 144.270,196.400 144.600 M212.800 145.600 C 212.800 146.507,213.215 146.625,213.920 145.920 C 214.625 145.215,214.507 144.800,213.600 144.800 C 213.067 144.800,212.800 145.067,212.800 145.600 M250.800 145.449 C 250.800 145.980,250.909 146.008,251.400 145.600 C 251.730 145.326,252.000 145.034,252.000 144.951 C 252.000 144.868,251.730 144.800,251.400 144.800 C 251.070 144.800,250.800 145.092,250.800 145.449 M185.350 149.787 C 184.938 150.860,185.389 151.011,186.286 150.100 C 187.142 149.230,187.145 149.200,186.373 149.200 C 185.934 149.200,185.474 149.464,185.350 149.787 M199.462 153.531 C 198.309 154.806,198.955 155.388,200.171 154.171 C 200.855 153.488,201.001 152.800,200.462 152.800 C 200.276 152.800,199.826 153.129,199.462 153.531 M230.800 155.600 C 230.800 156.507,231.215 156.625,231.920 155.920 C 232.625 155.215,232.507 154.800,231.600 154.800 C 231.067 154.800,230.800 155.067,230.800 155.600 M240.400 156.600 C 239.992 157.091,240.020 157.200,240.551 157.200 C 240.908 157.200,241.200 156.930,241.200 156.600 C 241.200 156.270,241.132 156.000,241.049 156.000 C 240.966 156.000,240.674 156.270,240.400 156.600 M172.000 158.000 C 171.523 158.477,171.243 158.977,171.378 159.111 C 171.512 159.246,172.012 158.966,172.489 158.489 C 172.966 158.012,173.246 157.512,173.111 157.378 C 172.977 157.243,172.477 157.523,172.000 158.000 M185.900 162.067 C 185.308 162.687,185.294 162.800,185.813 162.800 C 186.149 162.800,186.532 162.522,186.662 162.183 C 187.009 161.279,186.698 161.231,185.900 162.067 M158.400 166.600 C 157.992 167.091,158.020 167.200,158.551 167.200 C 158.908 167.200,159.200 166.930,159.200 166.600 C 159.200 166.270,159.132 166.000,159.049 166.000 C 158.966 166.000,158.674 166.270,158.400 166.600 M174.800 167.600 C 174.800 168.507,175.215 168.625,175.920 167.920 C 176.625 167.215,176.507 166.800,175.600 166.800 C 175.067 166.800,174.800 167.067,174.800 167.600 M237.350 167.787 C 236.938 168.860,237.389 169.011,238.286 168.100 C 239.142 167.230,239.145 167.200,238.373 167.200 C 237.934 167.200,237.474 167.464,237.350 167.787 M220.800 169.600 C 220.800 170.507,221.215 170.625,221.920 169.920 C 222.625 169.215,222.507 168.800,221.600 168.800 C 221.067 168.800,220.800 169.067,220.800 169.600 M147.350 171.787 C 146.938 172.860,147.389 173.011,148.286 172.100 C 149.142 171.230,149.145 171.200,148.373 171.200 C 147.934 171.200,147.474 171.464,147.350 171.787 M161.462 175.531 C 160.309 176.806,160.955 177.388,162.171 176.171 C 162.855 175.488,163.001 174.800,162.462 174.800 C 162.276 174.800,161.826 175.129,161.462 175.531 M210.800 183.600 C 210.800 184.507,211.215 184.625,211.920 183.920 C 212.625 183.215,212.507 182.800,211.600 182.800 C 211.067 182.800,210.800 183.067,210.800 183.600 M195.611 187.787 C 194.781 188.787,195.350 189.051,196.286 188.100 C 196.856 187.521,196.980 187.200,196.635 187.200 C 196.339 187.200,195.879 187.464,195.611 187.787 M234.400 190.600 C 233.992 191.091,234.020 191.200,234.551 191.200 C 234.908 191.200,235.200 190.930,235.200 190.600 C 235.200 190.270,235.132 190.000,235.049 190.000 C 234.966 190.000,234.674 190.270,234.400 190.600 M184.800 193.551 C 184.800 193.935,186.138 195.200,186.546 195.200 C 186.701 195.200,186.647 194.861,186.425 194.447 C 186.002 193.656,184.800 192.993,184.800 193.551 M186.800 199.551 C 186.800 199.935,188.138 201.200,188.546 201.200 C 188.701 201.200,188.647 200.861,188.425 200.447 C 188.002 199.656,186.800 198.993,186.800 199.551 M241.462 201.531 C 240.720 202.351,240.617 202.800,241.171 202.800 C 241.652 202.800,242.800 201.652,242.800 201.171 C 242.800 200.574,242.176 200.742,241.462 201.531 M231.350 201.787 C 230.938 202.860,231.389 203.011,232.286 202.100 C 233.142 201.230,233.145 201.200,232.373 201.200 C 231.934 201.200,231.474 201.464,231.350 201.787 M209.900 210.067 C 209.308 210.687,209.294 210.800,209.813 210.800 C 210.149 210.800,210.532 210.522,210.662 210.183 C 211.009 209.279,210.698 209.231,209.900 210.067 M220.000 210.951 C 220.000 211.034,220.270 211.326,220.600 211.600 C 221.091 212.008,221.200 211.980,221.200 211.449 C 221.200 211.092,220.930 210.800,220.600 210.800 C 220.270 210.800,220.000 210.868,220.000 210.951 M203.900 218.067 C 203.308 218.687,203.294 218.800,203.813 218.800 C 204.149 218.800,204.532 218.522,204.662 218.183 C 205.009 217.279,204.698 217.231,203.900 218.067 M197.900 226.067 C 197.308 226.687,197.294 226.800,197.813 226.800 C 198.149 226.800,198.532 226.522,198.662 226.183 C 199.009 225.279,198.698 225.231,197.900 226.067 M122.800 228.400 C 122.800 228.933,123.067 229.200,123.600 229.200 C 124.507 229.200,124.625 228.785,123.920 228.080 C 123.215 227.375,122.800 227.493,122.800 228.400 M114.400 228.600 C 113.992 229.091,114.020 229.200,114.551 229.200 C 114.908 229.200,115.200 228.930,115.200 228.600 C 115.200 228.270,115.132 228.000,115.049 228.000 C 114.966 228.000,114.674 228.270,114.400 228.600 M187.200 229.627 C 187.200 230.066,187.464 230.526,187.787 230.650 C 188.860 231.062,189.011 230.611,188.100 229.714 C 187.230 228.858,187.200 228.855,187.200 229.627 M119.200 237.365 C 119.200 237.990,120.228 238.939,120.687 238.738 C 120.859 238.662,120.595 238.201,120.100 237.714 C 119.521 237.144,119.200 237.020,119.200 237.365 M133.680 237.680 C 132.475 238.885,133.307 242.800,134.769 242.800 C 135.194 242.800,135.110 242.612,134.489 242.177 C 133.830 241.715,133.600 241.153,133.600 240.000 C 133.600 238.847,133.830 238.285,134.489 237.823 C 135.110 237.388,135.194 237.200,134.769 237.200 C 134.434 237.200,133.944 237.416,133.680 237.680 M150.800 238.320 C 150.800 238.844,151.138 239.171,151.814 239.301 C 152.759 239.481,152.791 239.439,152.279 238.669 C 151.530 237.541,150.800 237.368,150.800 238.320 M169.714 239.900 C 168.858 240.770,168.855 240.800,169.627 240.800 C 170.066 240.800,170.526 240.536,170.650 240.213 C 171.062 239.140,170.611 238.989,169.714 239.900 M127.900 240.067 C 127.308 240.687,127.294 240.800,127.813 240.800 C 128.149 240.800,128.532 240.522,128.662 240.183 C 129.009 239.279,128.698 239.231,127.900 240.067 M271.181 239.823 C 270.754 240.337,270.763 240.424,271.232 240.323 C 271.551 240.254,271.746 240.449,271.677 240.768 C 271.576 241.237,271.663 241.246,272.177 240.819 C 272.930 240.194,272.969 239.966,272.300 240.100 C 272.025 240.155,271.845 239.975,271.900 239.700 C 272.034 239.031,271.806 239.070,271.181 239.823 M264.080 242.080 C 263.375 242.785,263.493 243.200,264.400 243.200 C 264.933 243.200,265.200 242.933,265.200 242.400 C 265.200 241.493,264.785 241.375,264.080 242.080 M217.186 243.817 C 216.796 244.286,216.785 244.545,217.140 244.900 C 217.712 245.472,219.053 244.333,218.624 243.638 C 218.249 243.033,217.789 243.090,217.186 243.817 M99.552 245.570 C 99.850 245.755,100.245 246.150,100.430 246.448 C 100.673 246.841,100.748 246.766,100.703 246.174 C 100.665 245.663,100.337 245.335,99.826 245.297 C 99.234 245.252,99.159 245.327,99.552 245.570 M193.829 245.829 C 192.939 246.718,193.049 247.204,194.119 247.115 C 194.764 247.062,195.062 246.764,195.115 246.119 C 195.204 245.049,194.718 244.939,193.829 245.829 M299.181 245.823 C 298.754 246.337,298.763 246.424,299.232 246.323 C 299.551 246.254,299.746 246.449,299.677 246.768 C 299.576 247.237,299.663 247.246,300.177 246.819 C 300.930 246.194,300.969 245.966,300.300 246.100 C 300.025 246.155,299.845 245.975,299.900 245.700 C 300.034 245.031,299.806 245.070,299.181 245.823 M227.552 249.570 C 227.850 249.755,228.245 250.150,228.430 250.448 C 228.673 250.841,228.748 250.766,228.703 250.174 C 228.665 249.663,228.337 249.335,227.826 249.297 C 227.234 249.252,227.159 249.327,227.552 249.570 M283.549 249.325 C 283.067 250.034,283.467 251.048,284.254 251.113 C 285.004 251.175,285.175 251.008,285.114 250.274 C 285.055 249.554,283.878 248.840,283.549 249.325 M275.700 254.682 C 275.122 254.794,274.800 255.144,274.800 255.661 C 274.800 256.646,275.528 256.462,276.315 255.278 C 276.635 254.795,276.831 254.425,276.749 254.454 C 276.667 254.484,276.195 254.587,275.700 254.682 M174.111 256.100 C 173.212 257.262,173.231 257.483,174.212 257.296 C 174.846 257.174,175.200 256.837,175.200 256.353 C 175.200 255.490,174.677 255.368,174.111 256.100 M82.976 257.238 C 82.547 257.933,83.888 259.072,84.460 258.500 C 84.815 258.145,84.804 257.886,84.414 257.417 C 83.811 256.690,83.351 256.633,82.976 257.238 M190.800 259.600 C 190.800 260.507,191.215 260.625,191.920 259.920 C 192.625 259.215,192.507 258.800,191.600 258.800 C 191.067 258.800,190.800 259.067,190.800 259.600 M121.297 262.174 C 121.252 262.766,121.327 262.841,121.570 262.448 C 121.755 262.150,122.150 261.755,122.448 261.570 C 122.841 261.327,122.766 261.252,122.174 261.297 C 121.663 261.335,121.335 261.663,121.297 262.174 M135.389 261.618 C 134.650 262.814,137.513 263.669,138.456 262.533 C 139.133 261.716,138.271 260.877,137.453 261.556 C 137.057 261.885,136.788 261.905,136.612 261.619 C 136.281 261.083,135.720 261.082,135.389 261.618 M147.829 261.829 C 146.832 262.825,147.074 263.086,149.000 263.086 C 149.990 263.086,150.800 262.944,150.800 262.771 C 150.800 262.259,149.587 261.200,149.000 261.200 C 148.701 261.200,148.174 261.483,147.829 261.829 M98.885 264.119 C 98.938 264.764,99.236 265.062,99.881 265.115 C 100.951 265.204,101.061 264.718,100.171 263.829 C 99.282 262.939,98.796 263.049,98.885 264.119 M115.549 263.325 C 115.067 264.034,115.467 265.048,116.254 265.113 C 117.004 265.175,117.175 265.008,117.114 264.274 C 117.055 263.554,115.878 262.840,115.549 263.325 M157.297 264.174 C 157.252 264.766,157.327 264.841,157.570 264.448 C 157.755 264.150,158.150 263.755,158.448 263.570 C 158.841 263.327,158.766 263.252,158.174 263.297 C 157.663 263.335,157.335 263.663,157.297 264.174 M273.297 266.174 C 273.252 266.766,273.327 266.841,273.570 266.448 C 273.755 266.150,274.150 265.755,274.448 265.570 C 274.841 265.327,274.766 265.252,274.174 265.297 C 273.663 265.335,273.335 265.663,273.297 266.174 M112.080 268.080 C 111.375 268.785,111.493 269.200,112.400 269.200 C 112.933 269.200,113.200 268.933,113.200 268.400 C 113.200 267.493,112.785 267.375,112.080 268.080 M191.832 268.476 C 191.097 269.524,191.162 269.640,192.317 269.337 C 192.833 269.203,193.200 268.794,193.200 268.353 C 193.200 267.346,192.585 267.401,191.832 268.476 M245.700 271.300 C 245.755 271.575,245.545 271.745,245.232 271.677 C 244.763 271.576,244.754 271.663,245.181 272.177 C 245.806 272.930,246.034 272.969,245.900 272.300 C 245.845 272.025,246.055 271.855,246.368 271.923 C 246.837 272.024,246.846 271.937,246.419 271.423 C 245.794 270.670,245.566 270.631,245.700 271.300 M201.700 272.682 C 201.122 272.794,200.800 273.144,200.800 273.661 C 200.800 274.646,201.528 274.462,202.315 273.278 C 202.635 272.795,202.831 272.425,202.749 272.454 C 202.667 272.484,202.195 272.587,201.700 272.682 M183.700 275.300 C 183.755 275.575,183.545 275.745,183.232 275.677 C 182.763 275.576,182.754 275.663,183.181 276.177 C 183.806 276.930,184.034 276.969,183.900 276.300 C 183.845 276.025,184.055 275.855,184.368 275.923 C 184.837 276.024,184.846 275.937,184.419 275.423 C 183.794 274.670,183.566 274.631,183.700 275.300 M293.384 275.625 C 293.257 275.831,293.256 276.168,293.383 276.372 C 293.509 276.577,293.430 276.858,293.207 276.996 C 292.983 277.134,292.805 277.462,292.812 277.724 C 292.819 277.986,292.998 277.902,293.211 277.537 C 293.450 277.128,293.904 276.954,294.398 277.084 C 295.049 277.254,295.184 277.112,295.119 276.326 C 295.038 275.349,293.851 274.870,293.384 275.625 M267.200 277.600 C 267.671 277.905,267.682 277.989,267.251 277.994 C 266.808 277.999,266.799 278.116,267.200 278.600 C 267.474 278.930,268.036 279.200,268.449 279.200 C 269.540 279.200,269.417 277.751,268.300 277.452 C 266.976 277.097,266.518 277.159,267.200 277.600 M80.019 282.380 C 79.700 282.582,79.295 282.658,79.119 282.550 C 78.944 282.442,78.800 282.813,78.800 283.376 C 78.800 284.955,79.871 284.535,80.525 282.700 C 80.812 281.895,80.799 281.887,80.019 282.380 M291.829 297.829 C 290.906 298.751,290.990 299.741,291.947 299.228 C 292.358 299.008,292.770 298.903,292.862 298.995 C 292.954 299.087,293.065 298.721,293.110 298.181 C 293.203 297.053,292.733 296.924,291.829 297.829 M291.297 303.826 C 291.335 304.337,291.663 304.665,292.174 304.703 C 292.766 304.748,292.841 304.673,292.448 304.430 C 292.150 304.245,291.755 303.850,291.570 303.552 C 291.327 303.159,291.252 303.234,291.297 303.826 " stroke="none" fill="#000000" fill-rule="evenodd"></path><path id="path1" d="M224.080 128.080 C 223.375 128.785,223.493 129.200,224.400 129.200 C 224.933 129.200,225.200 128.933,225.200 128.400 C 225.200 127.493,224.785 127.375,224.080 128.080 M252.800 133.433 C 252.800 133.782,253.014 133.995,253.275 133.908 C 254.017 133.661,254.140 132.800,253.433 132.800 C 253.085 132.800,252.800 133.085,252.800 133.433 M222.800 139.867 C 222.800 140.453,222.935 140.798,223.100 140.633 C 223.265 140.468,223.400 140.123,223.400 139.867 C 223.400 139.610,223.610 139.400,223.867 139.400 C 224.123 139.400,224.468 139.265,224.633 139.100 C 224.798 138.935,224.453 138.800,223.867 138.800 C 222.978 138.800,222.800 138.978,222.800 139.867 M199.829 141.829 C 199.118 142.539,199.122 142.573,199.952 142.944 C 200.422 143.154,200.924 143.209,201.067 143.067 C 201.209 142.924,201.154 142.422,200.944 141.952 C 200.573 141.122,200.539 141.118,199.829 141.829 M209.429 147.429 C 208.650 148.207,208.625 148.667,209.362 148.667 C 209.698 148.667,209.831 148.425,209.692 148.064 C 209.532 147.646,209.646 147.532,210.064 147.692 C 210.425 147.831,210.667 147.698,210.667 147.362 C 210.667 146.625,210.207 146.650,209.429 147.429 M234.800 149.800 C 234.800 150.948,235.268 151.075,236.171 150.171 C 237.075 149.268,236.948 148.800,235.800 148.800 C 235.000 148.800,234.800 149.000,234.800 149.800 M186.080 150.080 C 185.375 150.785,185.493 151.200,186.400 151.200 C 186.933 151.200,187.200 150.933,187.200 150.400 C 187.200 149.493,186.785 149.375,186.080 150.080 M184.800 161.814 C 184.800 162.683,184.908 162.770,185.553 162.425 C 186.796 161.760,186.934 160.800,185.787 160.800 C 184.997 160.800,184.800 161.002,184.800 161.814 M224.800 163.800 C 224.800 164.948,225.268 165.075,226.171 164.171 C 227.075 163.268,226.948 162.800,225.800 162.800 C 225.000 162.800,224.800 163.000,224.800 163.800 M161.829 163.829 C 161.118 164.539,161.122 164.573,161.952 164.944 C 162.422 165.154,162.924 165.209,163.067 165.067 C 163.209 164.924,163.154 164.422,162.944 163.952 C 162.573 163.122,162.539 163.118,161.829 163.829 M197.900 179.176 C 190.695 186.378,184.800 192.383,184.800 192.519 C 184.800 192.656,190.515 187.049,197.500 180.059 C 204.485 173.068,210.538 167.161,210.951 166.930 C 211.365 166.699,211.545 166.414,211.351 166.296 C 211.158 166.177,205.105 171.973,197.900 179.176 M237.755 168.612 C 237.390 169.169,237.191 169.724,237.312 169.845 C 237.746 170.279,239.200 169.156,239.200 168.386 C 239.200 167.300,238.548 167.403,237.755 168.612 M171.429 169.429 C 170.650 170.207,170.625 170.667,171.362 170.667 C 171.698 170.667,171.831 170.425,171.692 170.064 C 171.532 169.646,171.646 169.532,172.064 169.692 C 172.425 169.831,172.667 169.698,172.667 169.362 C 172.667 168.625,172.207 168.650,171.429 169.429 M148.080 172.080 C 147.375 172.785,147.493 173.200,148.400 173.200 C 148.933 173.200,149.200 172.933,149.200 172.400 C 149.200 171.493,148.785 171.375,148.080 172.080 M142.114 176.280 C 141.627 176.786,141.374 177.200,141.552 177.200 C 141.942 177.200,143.398 175.645,143.164 175.477 C 143.074 175.413,142.601 175.774,142.114 176.280 M214.800 177.800 C 214.800 178.948,215.268 179.075,216.171 178.171 C 217.075 177.268,216.948 176.800,215.800 176.800 C 215.000 176.800,214.800 177.000,214.800 177.800 M196.049 188.141 C 195.563 188.727,195.839 189.200,196.667 189.200 C 197.263 189.200,197.397 188.169,196.845 187.828 C 196.650 187.707,196.292 187.848,196.049 188.141 M243.675 189.216 C 242.668 190.155,242.557 190.667,243.362 190.667 C 243.698 190.667,243.831 190.425,243.692 190.064 C 243.534 189.651,243.646 189.532,244.049 189.687 C 244.429 189.833,244.656 189.646,244.693 189.156 C 244.764 188.217,244.746 188.218,243.675 189.216 M204.800 191.800 C 204.800 192.948,205.268 193.075,206.171 192.171 C 207.075 191.268,206.948 190.800,205.800 190.800 C 205.000 190.800,204.800 191.000,204.800 191.800 M217.827 200.030 C 218.678 200.970,218.756 200.980,218.631 200.133 C 218.578 199.767,218.218 199.420,217.832 199.364 C 217.165 199.266,217.165 199.299,217.827 200.030 M189.611 201.787 C 189.343 202.109,189.217 202.604,189.331 202.887 C 189.458 203.204,189.549 203.128,189.568 202.687 C 189.586 202.295,190.005 201.811,190.500 201.612 C 191.109 201.368,191.190 201.243,190.749 201.225 C 190.391 201.211,189.879 201.464,189.611 201.787 M231.755 202.612 C 231.390 203.169,231.191 203.724,231.312 203.845 C 231.746 204.279,233.200 203.156,233.200 202.386 C 233.200 201.300,232.548 201.403,231.755 202.612 M199.829 205.829 C 198.925 206.732,199.052 207.200,200.200 207.200 C 201.000 207.200,201.200 207.000,201.200 206.200 C 201.200 205.052,200.732 204.925,199.829 205.829 M208.800 209.814 C 208.800 210.683,208.908 210.770,209.553 210.425 C 210.796 209.760,210.934 208.800,209.787 208.800 C 208.997 208.800,208.800 209.002,208.800 209.814 M215.670 209.148 C 215.245 209.418,215.276 209.619,215.829 210.171 C 216.542 210.885,217.179 210.478,217.194 209.300 C 217.201 208.729,216.450 208.654,215.670 209.148 M229.670 215.148 C 229.245 215.418,229.276 215.619,229.829 216.171 C 230.542 216.885,231.179 216.478,231.194 215.300 C 231.201 214.729,230.450 214.654,229.670 215.148 M202.800 217.814 C 202.800 218.683,202.908 218.770,203.553 218.425 C 204.796 217.760,204.934 216.800,203.787 216.800 C 202.997 216.800,202.800 217.002,202.800 217.814 M185.670 225.148 C 185.245 225.418,185.276 225.619,185.829 226.171 C 186.542 226.885,187.179 226.478,187.194 225.300 C 187.201 224.729,186.450 224.654,185.670 225.148 M196.800 225.814 C 196.800 226.683,196.908 226.770,197.553 226.425 C 198.796 225.760,198.934 224.800,197.787 224.800 C 196.997 224.800,196.800 225.002,196.800 225.814 M187.627 229.250 C 188.313 230.532,189.516 230.943,189.302 229.822 C 189.188 229.223,188.777 228.812,188.178 228.698 C 187.368 228.543,187.290 228.621,187.627 229.250 M129.026 231.930 C 128.639 233.134,128.972 233.432,130.096 232.890 C 130.593 232.650,130.764 232.442,130.476 232.427 C 130.185 232.412,130.079 232.195,130.238 231.938 C 130.407 231.665,130.349 231.584,130.096 231.741 C 129.861 231.886,129.591 231.779,129.497 231.502 C 129.401 231.221,129.194 231.409,129.026 231.930 M119.828 237.155 C 119.556 237.595,120.575 238.492,120.937 238.130 C 121.082 237.985,121.200 237.627,121.200 237.333 C 121.200 236.737,120.169 236.603,119.828 237.155 M134.166 238.055 C 133.445 239.222,134.001 242.694,134.828 242.183 C 135.032 242.056,135.200 241.074,135.200 240.000 C 135.200 238.061,134.720 237.158,134.166 238.055 M125.800 239.200 C 125.664 239.420,125.878 239.614,126.276 239.632 C 126.768 239.653,126.825 239.733,126.455 239.880 C 126.021 240.053,126.013 240.161,126.418 240.411 C 127.098 240.832,127.932 240.475,128.425 239.553 C 128.874 238.714,126.313 238.370,125.800 239.200 M168.699 239.814 C 168.519 240.759,168.561 240.791,169.331 240.279 C 170.459 239.530,170.632 238.800,169.680 238.800 C 169.156 238.800,168.829 239.138,168.699 239.814 M151.518 240.039 C 151.893 240.408,152.355 240.566,152.545 240.390 C 153.064 239.908,152.489 239.243,151.610 239.309 C 150.882 239.364,150.876 239.407,151.518 240.039 " stroke="none" fill="#0055aa" fill-rule="evenodd"></path><path id="path2" d="M184.182 240.182 C 183.622 240.742,182.722 241.200,182.182 241.200 C 181.401 241.200,181.200 241.405,181.200 242.200 C 181.200 243.000,181.000 243.200,180.200 243.200 C 179.400 243.200,179.200 243.400,179.200 244.200 C 179.200 244.994,178.999 245.200,178.221 245.200 C 177.322 245.200,177.232 245.372,177.121 247.300 C 177.018 249.093,176.883 249.400,176.200 249.400 C 175.302 249.400,175.310 249.365,175.246 253.872 C 175.203 256.945,175.145 257.152,174.300 257.272 C 173.401 257.400,173.400 257.412,173.292 266.300 L 173.185 275.200 172.192 275.200 C 171.401 275.200,171.200 275.402,171.200 276.200 C 171.200 276.898,170.988 277.190,170.500 277.168 C 170.082 277.150,170.001 277.056,170.300 276.935 C 170.575 276.824,170.800 276.298,170.800 275.767 C 170.800 275.002,171.009 274.800,171.800 274.800 L 172.800 274.800 172.800 270.000 L 172.800 265.200 171.800 265.200 C 170.993 265.200,170.800 265.002,170.800 264.172 L 170.800 263.143 164.100 263.272 C 157.959 263.389,157.410 263.459,157.519 264.106 C 157.628 264.755,156.158 265.714,155.574 265.375 C 155.449 265.303,155.304 266.084,155.251 267.112 C 155.117 269.685,154.800 269.794,154.800 267.267 C 154.800 265.883,154.635 265.198,154.300 265.194 C 153.968 265.190,154.002 265.060,154.400 264.808 C 154.924 264.477,154.909 264.338,154.286 263.714 C 153.702 263.131,153.509 263.100,153.234 263.545 C 153.037 263.864,152.835 263.919,152.748 263.678 C 152.597 263.257,150.248 263.057,146.529 263.149 C 143.440 263.225,143.211 263.616,143.141 268.929 C 143.086 273.111,143.066 273.218,142.822 270.593 C 142.679 269.049,142.434 267.579,142.279 267.327 C 142.123 267.075,142.221 266.785,142.498 266.682 C 142.866 266.546,142.809 266.296,142.286 265.748 C 141.665 265.098,141.521 265.079,141.192 265.600 C 140.913 266.041,140.811 265.802,140.806 264.700 C 140.801 263.368,140.688 263.200,139.800 263.200 C 139.250 263.200,138.800 262.998,138.800 262.751 C 138.800 262.448,138.637 262.430,138.300 262.696 C 138.025 262.913,137.440 263.091,137.000 263.091 C 136.560 263.091,135.975 262.913,135.700 262.696 C 135.363 262.430,135.200 262.448,135.200 262.751 C 135.200 262.998,134.750 263.200,134.200 263.200 L 133.200 263.200 133.200 269.200 C 133.200 275.469,133.181 275.535,131.470 275.237 C 131.289 275.206,131.221 275.320,131.320 275.490 C 131.419 275.661,131.355 276.160,131.178 276.600 C 130.996 277.052,130.844 274.310,130.828 270.300 L 130.800 263.200 128.800 263.200 C 127.659 263.200,126.800 263.018,126.800 262.776 C 126.800 262.543,126.640 262.451,126.445 262.572 C 126.250 262.693,125.845 262.478,125.545 262.096 C 125.052 261.466,125.067 261.452,125.700 261.949 C 126.111 262.271,126.400 262.324,126.400 262.076 C 126.400 261.503,125.351 261.271,123.200 261.370 C 121.793 261.435,121.424 261.594,121.511 262.096 C 121.663 262.985,121.287 263.139,118.715 263.243 C 116.676 263.326,116.516 263.397,116.923 264.049 C 117.528 265.017,116.953 265.488,115.940 264.855 C 115.487 264.572,115.236 264.534,115.382 264.770 C 115.528 265.007,115.367 265.223,115.024 265.250 C 113.198 265.396,113.343 265.188,113.250 267.800 C 113.207 269.003,113.063 269.200,112.227 269.200 C 111.472 269.200,111.216 269.447,111.087 270.300 C 110.995 270.905,110.893 269.555,110.860 267.300 L 110.800 263.200 106.000 263.200 L 101.200 263.200 101.200 264.206 C 101.200 265.073,101.037 265.200,100.028 265.123 C 99.383 265.074,98.864 264.936,98.875 264.817 C 99.017 263.259,98.876 263.200,95.000 263.200 L 91.200 263.200 91.200 265.200 C 91.200 267.073,91.136 267.200,90.188 267.200 L 89.176 267.200 89.214 276.956 L 89.252 286.713 94.026 286.775 L 98.800 286.836 98.800 283.846 C 98.800 281.049,98.858 280.847,99.700 280.728 C 100.468 280.619,100.618 280.321,100.722 278.700 C 100.836 276.924,101.254 276.317,101.779 277.166 C 101.903 277.367,101.779 277.615,101.502 277.716 C 101.110 277.860,101.120 278.020,101.550 278.450 C 101.980 278.880,102.140 278.890,102.284 278.498 C 102.597 277.643,103.200 278.384,103.200 279.624 L 103.200 280.800 106.172 280.800 C 108.950 280.800,109.153 280.859,109.272 281.700 C 109.354 282.278,109.722 282.646,110.300 282.728 C 111.094 282.841,111.200 283.087,111.200 284.828 L 111.200 286.800 116.967 286.800 C 121.206 286.800,122.787 286.668,122.935 286.300 C 123.096 285.900,123.143 285.900,123.168 286.300 C 123.192 286.675,124.638 286.800,128.973 286.800 L 134.747 286.800 134.913 285.700 L 135.080 284.600 135.140 285.700 L 135.200 286.800 140.000 286.800 L 144.800 286.800 144.800 285.800 C 144.800 285.000,145.000 284.800,145.800 284.800 C 146.600 284.800,146.800 284.600,146.800 283.800 C 146.800 283.250,146.980 282.778,147.200 282.750 C 147.420 282.723,147.825 282.678,148.100 282.650 C 148.627 282.597,148.670 282.435,148.750 280.200 L 148.800 278.800 150.978 278.800 L 153.156 278.800 153.278 280.700 C 153.382 282.321,153.532 282.619,154.300 282.728 C 154.951 282.820,155.200 283.124,155.200 283.828 C 155.200 284.598,155.408 284.800,156.200 284.800 C 157.000 284.800,157.200 285.000,157.200 285.800 L 157.200 286.800 165.000 286.800 L 172.800 286.800 172.800 285.775 C 172.800 284.859,172.939 284.763,174.100 284.875 C 175.092 284.970,175.400 285.190,175.400 285.800 C 175.400 286.563,175.707 286.606,182.100 286.721 L 188.800 286.842 188.800 285.821 C 188.800 284.953,188.980 284.800,190.000 284.800 C 191.173 284.800,191.200 284.844,191.200 286.800 L 191.200 288.800 196.000 288.800 L 200.800 288.800 200.800 287.800 L 200.800 286.800 207.500 286.753 C 211.185 286.727,214.335 286.727,214.500 286.753 C 214.665 286.779,214.779 286.665,214.753 286.500 C 214.538 285.140,214.867 284.840,216.700 284.722 C 218.321 284.618,218.619 284.468,218.728 283.700 C 218.820 283.049,219.124 282.800,219.828 282.800 C 220.598 282.800,220.800 282.592,220.800 281.800 C 220.800 281.006,221.001 280.800,221.779 280.800 C 222.678 280.800,222.768 280.628,222.879 278.700 C 222.982 276.907,223.117 276.600,223.800 276.600 C 224.509 276.600,224.614 276.291,224.726 273.900 C 224.850 271.236,224.838 271.200,223.826 271.200 C 222.863 271.200,222.800 271.078,222.800 269.227 C 222.800 267.381,222.729 267.242,221.700 267.087 C 221.095 266.995,221.545 266.893,222.700 266.860 C 224.641 266.805,224.800 266.726,224.800 265.828 C 224.800 265.124,225.049 264.820,225.700 264.728 C 226.402 264.628,226.629 264.297,226.731 263.226 C 226.826 262.232,226.960 262.011,227.216 262.426 C 227.517 262.912,227.680 262.891,228.286 262.286 C 228.909 261.662,228.924 261.523,228.400 261.192 C 227.955 260.910,227.937 260.811,228.331 260.806 C 228.753 260.801,228.835 259.633,228.731 255.100 C 228.608 249.758,228.551 249.400,227.819 249.400 C 227.315 249.400,226.955 249.045,226.803 248.400 C 226.619 247.614,226.278 247.372,225.211 247.269 C 224.226 247.174,224.010 247.041,224.426 246.784 C 224.912 246.483,224.891 246.320,224.286 245.714 C 223.662 245.091,223.523 245.076,223.192 245.600 C 222.940 245.998,222.810 246.032,222.806 245.700 C 222.802 245.367,222.130 245.200,220.800 245.200 C 219.588 245.200,218.800 245.023,218.800 244.751 C 218.800 244.446,218.602 244.467,218.183 244.814 C 217.305 245.543,216.457 244.695,217.186 243.817 C 217.644 243.265,216.936 243.200,210.449 243.200 L 203.200 243.200 203.200 244.200 L 203.200 245.200 199.200 245.200 C 195.110 245.200,194.983 245.250,195.125 246.817 C 195.136 246.936,194.617 247.074,193.972 247.123 L 192.800 247.213 192.800 244.835 C 192.800 242.037,192.194 241.200,190.171 241.200 C 188.883 241.200,188.596 240.877,188.728 239.573 C 188.811 238.751,185.119 239.245,184.182 240.182 M267.575 239.830 C 267.141 240.353,267.150 240.523,267.626 240.824 C 268.030 241.080,267.756 241.190,266.700 241.194 C 265.368 241.199,265.200 241.312,265.200 242.200 C 265.200 243.000,265.000 243.200,264.200 243.200 C 263.400 243.200,263.200 243.400,263.200 244.200 C 263.200 245.000,263.000 245.200,262.200 245.200 C 261.222 245.200,261.200 245.267,261.200 248.200 C 261.200 251.223,261.073 251.458,259.544 251.262 C 259.403 251.244,259.259 253.421,259.224 256.101 C 259.158 261.249,259.128 261.387,258.072 261.395 C 257.668 261.398,257.400 261.720,257.400 262.200 C 257.400 262.883,257.093 263.018,255.300 263.121 C 253.372 263.232,253.200 263.322,253.200 264.221 C 253.200 265.003,252.995 265.200,252.182 265.200 C 251.622 265.200,250.722 265.642,250.182 266.182 C 249.642 266.722,249.200 267.622,249.200 268.182 C 249.200 268.997,249.004 269.200,248.217 269.200 C 247.267 269.200,247.230 269.306,247.117 272.300 C 247.012 275.094,246.921 275.400,246.200 275.400 C 245.647 275.400,245.386 275.682,245.354 276.313 C 245.249 278.392,244.800 277.544,244.800 275.267 C 244.800 273.910,244.967 272.800,245.171 272.800 C 246.405 272.800,246.800 271.485,246.800 267.371 L 246.800 263.200 243.231 263.200 C 238.595 263.200,237.200 264.265,237.200 267.802 C 237.200 269.594,237.041 270.067,236.224 270.709 C 235.482 271.293,235.212 271.946,235.097 273.438 C 234.992 274.785,234.922 274.365,234.872 272.100 C 234.800 268.812,234.804 268.800,235.818 268.800 C 236.820 268.800,236.835 268.757,236.718 266.100 L 236.600 263.400 231.900 263.287 L 227.200 263.175 227.200 265.187 C 227.200 266.337,227.018 267.200,226.776 267.200 C 226.543 267.200,226.451 267.360,226.572 267.555 C 226.693 267.750,226.478 268.155,226.096 268.455 C 225.466 268.948,225.452 268.933,225.949 268.300 C 226.251 267.915,226.315 267.600,226.092 267.600 C 225.324 267.600,225.200 268.884,225.200 276.833 L 225.200 284.800 226.200 284.800 C 227.000 284.800,227.200 285.000,227.200 285.800 L 227.200 286.800 231.973 286.800 L 236.747 286.800 236.913 285.700 L 237.080 284.600 237.140 285.711 L 237.200 286.822 242.882 286.711 C 248.563 286.600,248.565 286.600,248.843 285.600 L 249.120 284.600 249.160 285.700 L 249.200 286.800 254.973 286.800 L 260.747 286.800 260.913 285.700 L 261.080 284.600 261.140 285.694 L 261.200 286.787 272.974 286.787 L 284.748 286.787 284.914 285.694 L 285.080 284.600 285.140 285.704 L 285.200 286.809 293.044 286.781 C 297.358 286.767,300.988 286.855,301.111 286.977 C 301.233 287.100,300.853 287.200,300.267 287.200 C 299.396 287.200,299.200 287.383,299.200 288.200 C 299.200 289.000,299.000 289.200,298.200 289.200 C 297.400 289.200,297.200 289.400,297.200 290.200 C 297.200 291.000,297.000 291.200,296.200 291.200 C 295.400 291.200,295.200 291.400,295.200 292.200 C 295.200 293.100,294.745 293.398,293.565 293.269 C 293.367 293.247,293.271 294.337,293.088 298.700 C 293.076 298.975,292.983 299.116,292.881 299.014 C 292.778 298.912,292.349 299.013,291.926 299.239 C 290.797 299.844,291.074 304.595,292.238 304.598 C 292.771 304.599,293.038 304.930,293.127 305.700 C 293.226 306.564,293.462 306.800,294.227 306.800 C 294.998 306.800,295.200 307.007,295.200 307.800 C 295.200 308.800,295.200 308.800,299.200 308.800 C 303.170 308.800,304.800 308.233,304.800 306.852 C 304.800 306.661,305.204 306.526,305.698 306.552 C 306.612 306.601,306.610 306.607,306.750 303.800 C 306.789 303.013,307.013 302.800,307.800 302.800 C 308.733 302.800,308.800 302.667,308.800 300.800 C 308.800 298.942,308.870 298.800,309.783 298.800 C 310.733 298.800,310.770 298.694,310.883 295.700 C 310.988 292.906,311.079 292.600,311.800 292.600 C 312.665 292.600,312.685 292.527,312.754 289.100 C 312.798 286.914,312.851 286.800,313.818 286.800 C 314.378 286.800,315.273 286.363,315.807 285.829 C 316.341 285.295,317.188 284.800,317.689 284.729 C 318.278 284.646,318.645 284.282,318.728 283.700 C 318.808 283.136,319.133 282.800,319.597 282.800 C 321.647 282.800,322.843 280.540,322.768 276.809 L 322.697 273.318 319.949 273.238 C 317.247 273.159,317.200 273.175,317.200 274.179 C 317.200 274.992,317.003 275.200,316.233 275.200 C 315.702 275.200,315.176 275.425,315.065 275.700 C 314.954 275.975,314.849 274.535,314.832 272.500 C 314.799 268.724,314.872 268.554,316.440 268.733 C 316.572 268.748,316.716 267.509,316.761 265.980 L 316.842 263.200 312.021 263.200 L 307.200 263.200 307.200 266.172 C 307.200 268.950,307.141 269.153,306.300 269.272 C 305.543 269.380,305.362 269.717,305.163 271.400 C 305.008 272.709,304.904 271.637,304.863 268.300 L 304.800 263.200 301.024 263.200 L 297.248 263.200 297.091 264.700 C 296.960 265.953,296.923 265.859,296.867 264.129 C 296.810 262.353,296.943 261.946,297.800 261.271 C 298.743 260.530,298.800 260.265,298.800 256.642 C 298.800 254.381,298.965 252.779,299.200 252.750 C 299.420 252.722,299.825 252.678,300.100 252.650 C 301.327 252.527,300.829 245.790,299.563 245.388 C 298.948 245.193,298.800 244.763,298.800 243.173 C 298.800 241.345,298.728 241.200,297.818 241.200 C 297.278 241.200,296.415 240.779,295.900 240.264 C 294.658 239.022,291.401 238.957,291.398 240.173 C 291.396 241.032,291.237 241.106,289.000 241.300 C 288.120 241.376,287.377 241.655,287.350 241.919 C 287.322 242.184,287.278 243.030,287.250 243.800 C 287.207 245.013,287.067 245.200,286.200 245.200 C 285.253 245.200,285.200 245.318,285.200 247.424 C 285.200 248.906,285.057 249.559,284.770 249.382 C 284.534 249.236,284.572 249.487,284.855 249.940 C 285.507 250.983,285.006 251.521,283.980 250.881 C 283.550 250.612,283.219 250.528,283.246 250.696 C 283.499 252.276,283.116 260.086,282.808 259.600 C 282.477 259.076,282.338 259.091,281.714 259.714 C 281.091 260.338,281.076 260.477,281.600 260.808 C 281.998 261.060,282.032 261.190,281.700 261.194 C 281.425 261.197,281.200 261.650,281.200 262.200 C 281.200 263.135,281.068 263.200,279.182 263.200 C 277.526 263.200,276.971 263.393,276.090 264.274 C 275.500 264.864,274.653 265.374,274.210 265.407 C 273.766 265.439,273.385 265.721,273.363 266.033 C 273.340 266.345,273.294 266.915,273.261 267.300 C 273.227 267.685,272.930 268.000,272.600 268.000 C 272.270 268.000,272.000 268.270,272.000 268.600 C 272.000 268.930,271.820 269.200,271.600 269.200 C 271.380 269.200,271.200 270.100,271.200 271.200 C 271.200 273.067,271.133 273.200,270.200 273.200 C 269.222 273.200,269.200 273.267,269.200 276.200 C 269.200 278.868,269.117 279.200,268.449 279.200 C 267.460 279.200,266.551 278.164,267.283 277.870 C 267.679 277.712,267.683 277.656,267.300 277.632 C 266.440 277.577,266.754 276.094,267.800 275.271 C 268.350 274.839,268.800 274.114,268.800 273.661 C 268.800 273.207,269.250 272.386,269.800 271.836 C 270.491 271.146,270.800 270.398,270.800 269.418 C 270.800 268.424,270.979 268.000,271.400 268.000 C 271.730 268.000,272.000 267.730,272.000 267.400 C 272.000 267.070,272.180 266.800,272.400 266.800 C 272.620 266.800,272.800 265.900,272.800 264.800 C 272.800 262.834,273.057 262.525,274.500 262.753 C 274.665 262.779,274.779 262.665,274.753 262.500 C 274.302 259.646,274.887 254.843,275.700 254.728 C 276.780 254.574,277.382 245.207,276.313 245.194 C 275.955 245.190,275.982 245.073,276.400 244.808 C 276.924 244.477,276.909 244.338,276.286 243.714 C 275.662 243.091,275.523 243.076,275.192 243.600 C 274.913 244.041,274.811 243.802,274.806 242.700 C 274.801 241.379,274.684 241.200,273.827 241.200 C 273.206 241.200,272.762 240.911,272.600 240.401 C 272.285 239.409,270.751 238.984,269.637 239.580 C 269.082 239.877,268.800 239.889,268.800 239.614 C 268.800 239.001,268.171 239.112,267.575 239.830 M65.248 245.502 C 65.474 246.944,65.166 247.200,63.200 247.200 C 61.333 247.200,61.200 247.267,61.200 248.200 C 61.200 249.000,61.000 249.200,60.200 249.200 C 59.408 249.200,59.200 249.402,59.200 250.172 C 59.200 250.876,58.951 251.180,58.300 251.272 C 57.416 251.398,57.400 251.497,57.400 257.000 C 57.400 262.503,57.416 262.602,58.300 262.728 C 58.957 262.821,59.200 263.123,59.200 263.848 C 59.200 264.839,59.204 264.840,62.983 264.769 C 65.064 264.731,66.753 264.587,66.736 264.449 C 66.719 264.312,66.727 262.085,66.753 259.500 L 66.800 254.800 69.800 254.800 C 72.733 254.800,72.800 254.778,72.800 253.800 C 72.800 252.930,72.969 252.805,74.100 252.840 C 75.299 252.877,75.322 252.901,74.400 253.157 C 73.411 253.432,73.399 253.491,73.288 258.317 C 73.172 263.340,73.113 263.502,71.500 263.247 C 71.335 263.221,71.221 263.335,71.247 263.500 C 71.273 263.665,71.273 266.365,71.247 269.500 L 71.200 275.200 70.200 275.200 L 69.200 275.200 69.200 281.000 L 69.200 286.800 74.000 286.800 L 78.800 286.800 78.800 284.635 C 78.800 282.584,78.851 282.476,79.766 282.576 L 80.732 282.683 80.782 275.859 C 80.836 268.393,80.775 268.782,81.912 268.697 C 82.664 268.640,82.718 268.332,82.775 263.818 C 82.810 261.031,83.004 258.941,83.234 258.861 C 83.481 258.775,83.450 258.501,83.154 258.144 C 82.450 257.296,83.329 256.477,84.183 257.186 C 84.728 257.638,84.800 257.410,84.800 255.249 L 84.800 252.800 88.000 252.800 C 89.833 252.800,91.221 252.971,91.250 253.200 C 91.278 253.420,91.323 253.825,91.350 254.100 C 91.385 254.450,92.511 254.639,95.100 254.730 L 98.800 254.859 98.800 253.830 C 98.800 252.989,98.990 252.800,99.835 252.800 L 100.870 252.800 100.735 249.100 L 100.600 245.400 82.901 245.302 C 73.166 245.248,65.222 245.338,65.248 245.502 M269.082 252.500 C 268.987 252.995,268.909 252.590,268.909 251.600 C 268.909 250.610,268.987 250.205,269.082 250.700 C 269.178 251.195,269.178 252.005,269.082 252.500 M185.200 253.224 C 185.200 254.777,185.065 255.964,184.900 255.863 C 184.597 255.677,184.727 250.400,185.034 250.400 C 185.125 250.400,185.200 251.671,185.200 253.224 M215.400 253.800 C 215.400 254.240,215.670 254.624,216.000 254.654 C 216.330 254.683,216.960 254.731,217.400 254.760 C 218.064 254.803,218.098 254.877,217.600 255.192 C 217.076 255.523,217.091 255.662,217.714 256.286 C 218.338 256.909,218.477 256.924,218.808 256.400 C 219.135 255.883,219.189 255.893,219.194 256.472 C 219.197 256.867,218.829 257.197,218.300 257.272 C 217.730 257.353,217.354 257.721,217.275 258.275 C 217.198 258.821,216.821 259.198,216.275 259.275 C 215.721 259.354,215.353 259.730,215.272 260.300 C 215.149 261.164,214.987 261.200,211.172 261.200 C 207.202 261.200,207.200 261.200,207.200 262.200 C 207.200 263.000,207.000 263.200,206.200 263.200 C 205.204 263.200,205.200 263.213,205.200 267.000 L 205.200 270.800 208.200 270.800 C 211.133 270.800,211.200 270.822,211.200 271.800 C 211.200 272.600,211.400 272.800,212.200 272.800 C 213.044 272.800,213.200 272.987,213.200 274.000 C 213.200 275.013,213.044 275.200,212.200 275.200 C 211.400 275.200,211.200 275.400,211.200 276.200 C 211.200 277.133,211.067 277.200,209.200 277.200 C 207.333 277.200,207.200 277.267,207.200 278.200 C 207.200 279.183,207.147 279.200,204.000 279.200 L 200.800 279.200 200.800 276.028 C 200.800 273.043,200.853 272.848,201.700 272.728 C 202.551 272.607,202.606 272.394,202.716 268.831 C 202.822 265.390,202.920 264.981,203.842 264.126 C 204.832 263.209,204.850 263.089,204.726 258.313 L 204.600 253.437 203.000 253.299 C 199.338 252.984,201.034 252.858,208.000 252.927 C 215.108 252.997,215.400 253.031,215.400 253.800 M183.668 257.158 C 183.439 257.299,183.182 258.312,183.098 259.408 L 182.944 261.400 182.872 259.167 C 182.798 256.885,183.012 256.237,183.698 256.661 C 183.942 256.811,183.931 256.996,183.668 257.158 M195.200 258.000 C 195.200 259.123,194.759 259.446,193.500 259.247 C 193.335 259.221,193.221 259.335,193.247 259.500 C 193.774 262.834,193.105 269.137,192.200 269.364 C 191.319 269.585,191.200 269.829,191.200 271.408 C 191.200 273.053,191.118 273.200,190.200 273.200 C 189.400 273.200,189.200 273.400,189.200 274.200 C 189.200 275.000,189.000 275.200,188.200 275.200 C 187.400 275.200,187.200 275.400,187.200 276.200 C 187.200 277.000,187.000 277.200,186.200 277.200 C 185.400 277.200,185.200 277.400,185.200 278.200 C 185.200 279.044,185.013 279.200,184.000 279.200 C 182.933 279.200,182.800 279.067,182.800 278.000 C 182.800 277.340,182.967 276.800,183.171 276.800 C 183.978 276.800,184.800 275.473,184.800 274.171 C 184.800 272.975,184.928 272.800,185.800 272.800 C 186.733 272.800,186.800 272.667,186.800 270.800 C 186.800 268.933,186.867 268.800,187.800 268.800 C 188.731 268.800,188.800 268.665,188.800 266.828 C 188.800 265.087,188.906 264.841,189.700 264.728 C 190.526 264.611,190.610 264.361,190.718 261.700 C 190.830 258.919,190.875 258.800,191.818 258.800 C 192.599 258.800,192.800 258.595,192.800 257.800 C 192.800 256.956,192.987 256.800,194.000 256.800 C 195.067 256.800,195.200 256.933,195.200 258.000 M291.076 258.700 C 290.975 259.085,290.893 258.770,290.893 258.000 C 290.893 257.230,290.975 256.915,291.076 257.300 C 291.176 257.685,291.176 258.315,291.076 258.700 M295.700 267.065 C 295.345 267.208,295.200 268.479,295.200 271.457 C 295.200 274.341,295.066 275.564,294.770 275.382 C 294.534 275.236,294.572 275.487,294.855 275.940 C 295.507 276.983,295.006 277.521,293.980 276.881 C 293.550 276.612,293.219 276.528,293.246 276.696 C 293.411 277.725,293.184 278.194,292.808 277.600 C 292.477 277.076,292.338 277.091,291.714 277.714 C 291.091 278.338,291.076 278.477,291.600 278.808 C 292.111 279.132,292.097 279.189,291.500 279.194 C 290.296 279.204,290.489 274.900,291.700 274.728 C 292.468 274.619,292.618 274.321,292.722 272.700 C 292.832 270.985,292.939 270.800,293.822 270.800 C 294.729 270.800,294.800 270.655,294.800 268.800 C 294.800 267.150,294.922 266.806,295.500 266.832 C 295.918 266.850,295.999 266.944,295.700 267.065 M164.324 271.084 C 163.519 271.207,163.207 271.519,163.084 272.324 C 162.936 273.296,162.914 273.274,162.860 272.100 C 162.804 270.876,162.876 270.804,164.100 270.860 C 165.274 270.914,165.296 270.936,164.324 271.084 M121.200 275.000 C 121.200 277.064,121.140 277.200,120.227 277.200 C 119.472 277.200,119.216 277.447,119.087 278.300 C 118.995 278.905,118.893 278.378,118.860 277.128 C 118.805 275.055,118.879 274.844,119.700 274.728 C 120.278 274.646,120.646 274.278,120.728 273.700 C 120.957 272.084,121.200 272.752,121.200 275.000 M257.200 276.000 L 257.200 279.200 256.000 279.200 C 254.854 279.200,254.800 279.124,254.806 277.500 C 254.811 276.272,254.917 275.966,255.192 276.400 C 255.523 276.924,255.662 276.909,256.286 276.286 C 256.909 275.662,256.924 275.523,256.400 275.192 C 256.002 274.940,255.968 274.810,256.300 274.806 C 256.575 274.803,256.800 274.350,256.800 273.800 C 256.800 273.250,256.890 272.800,257.000 272.800 C 257.110 272.800,257.200 274.240,257.200 276.000 M280.558 278.446 C 279.317 279.817,278.800 279.392,278.800 277.000 C 278.800 274.920,278.855 274.800,279.800 274.800 C 280.606 274.800,280.815 274.586,280.877 273.700 C 280.919 273.095,281.019 273.746,281.097 275.146 C 281.209 277.128,281.089 277.859,280.558 278.446 M303.285 276.000 C 303.188 276.660,303.040 277.200,302.955 277.200 C 302.870 277.200,302.800 276.660,302.800 276.000 C 302.800 275.340,302.949 274.800,303.131 274.800 C 303.313 274.800,303.382 275.340,303.285 276.000 M169.200 278.600 C 169.200 279.059,168.753 279.184,167.300 279.130 L 165.400 279.060 167.100 278.907 C 168.035 278.823,168.800 278.584,168.800 278.377 C 168.800 278.170,168.890 278.000,169.000 278.000 C 169.110 278.000,169.200 278.270,169.200 278.600 M301.076 298.700 C 300.975 299.085,300.893 298.770,300.893 298.000 C 300.893 297.230,300.975 296.915,301.076 297.300 C 301.176 297.685,301.176 298.315,301.076 298.700 " stroke="none" fill="#cf1717" fill-rule="evenodd"></path><path id="path3" d="M249.150 113.600 C 249.123 113.820,249.078 114.213,249.050 114.474 C 249.023 114.734,248.370 115.011,247.600 115.090 C 245.557 115.297,245.200 115.486,245.200 116.364 C 245.200 117.007,244.884 117.177,243.500 117.277 C 242.187 117.372,241.710 117.605,241.405 118.300 C 241.130 118.926,240.668 119.200,239.886 119.200 C 239.201 119.200,238.400 119.590,237.835 120.200 C 237.325 120.750,236.524 121.200,236.054 121.200 C 235.410 121.200,235.200 121.446,235.200 122.200 C 235.200 123.133,235.067 123.200,233.200 123.200 C 231.345 123.200,231.200 123.271,231.200 124.178 C 231.200 125.061,231.015 125.168,229.300 125.278 C 227.679 125.382,227.381 125.532,227.272 126.300 C 227.180 126.951,226.876 127.200,226.172 127.200 C 225.402 127.200,225.200 127.408,225.200 128.200 C 225.200 129.133,225.067 129.200,223.200 129.200 C 221.345 129.200,221.200 129.271,221.200 130.178 C 221.200 131.061,221.015 131.168,219.300 131.278 C 217.694 131.381,217.381 131.536,217.275 132.278 C 217.173 132.999,216.849 133.178,215.475 133.278 C 214.188 133.372,213.709 133.608,213.405 134.300 C 213.163 134.852,212.660 135.200,212.105 135.200 C 211.607 135.200,211.178 135.380,211.150 135.600 C 211.123 135.820,211.078 136.213,211.050 136.474 C 211.023 136.734,210.370 137.011,209.600 137.090 C 207.557 137.297,207.200 137.486,207.200 138.364 C 207.200 139.007,206.884 139.177,205.500 139.277 C 204.187 139.372,203.710 139.605,203.405 140.300 C 203.132 140.923,202.668 141.200,201.898 141.200 C 200.904 141.200,200.812 141.309,201.041 142.223 C 201.266 143.118,201.180 143.235,200.349 143.161 C 197.888 142.940,197.200 143.167,197.200 144.200 C 197.200 145.133,197.067 145.200,195.200 145.200 C 193.345 145.200,193.200 145.271,193.200 146.178 C 193.200 147.061,193.015 147.168,191.300 147.278 C 189.679 147.382,189.381 147.532,189.272 148.300 C 189.180 148.951,188.876 149.200,188.172 149.200 C 187.402 149.200,187.200 149.408,187.200 150.200 C 187.200 151.133,187.067 151.200,185.200 151.200 C 183.345 151.200,183.200 151.271,183.200 152.178 C 183.200 153.061,183.015 153.168,181.300 153.278 C 179.694 153.381,179.381 153.536,179.275 154.278 C 179.173 154.999,178.849 155.178,177.475 155.278 C 176.188 155.372,175.709 155.608,175.405 156.300 C 175.188 156.795,174.674 157.200,174.263 157.200 C 173.852 157.200,173.170 157.639,172.748 158.175 C 172.280 158.770,171.477 159.199,170.690 159.275 C 169.714 159.370,169.370 159.614,169.275 160.278 C 169.173 160.999,168.849 161.178,167.475 161.278 C 166.188 161.372,165.709 161.608,165.405 162.300 C 165.132 162.923,164.668 163.200,163.898 163.200 C 162.904 163.200,162.812 163.309,163.041 164.223 C 163.266 165.118,163.180 165.235,162.349 165.161 C 159.888 164.940,159.200 165.167,159.200 166.200 C 159.200 167.133,159.067 167.200,157.200 167.200 C 155.345 167.200,155.200 167.271,155.200 168.178 C 155.200 169.061,155.015 169.168,153.300 169.278 C 151.679 169.382,151.381 169.532,151.272 170.300 C 151.180 170.951,150.876 171.200,150.172 171.200 C 149.402 171.200,149.200 171.408,149.200 172.200 C 149.200 173.133,149.067 173.200,147.200 173.200 C 145.333 173.200,145.200 173.267,145.200 174.200 C 145.200 174.920,144.985 175.200,144.431 175.200 C 142.705 175.200,141.200 177.457,141.200 180.043 C 141.200 182.594,141.266 182.674,143.565 182.906 C 144.505 183.002,144.963 183.267,145.035 183.759 C 145.180 184.747,145.085 184.714,148.162 184.865 C 150.481 184.978,150.942 185.118,151.032 185.737 C 151.180 186.751,151.078 186.714,154.162 186.865 C 156.481 186.978,156.942 187.118,157.032 187.737 C 157.180 188.751,157.078 188.714,160.162 188.865 C 162.481 188.978,162.942 189.118,163.032 189.737 C 163.180 190.751,163.078 190.714,166.162 190.865 C 168.481 190.978,168.942 191.118,169.032 191.737 C 169.180 192.751,169.077 192.714,172.167 192.865 C 174.866 192.997,174.938 193.028,175.085 194.136 C 175.169 194.761,175.679 195.682,176.219 196.182 C 177.017 196.922,177.200 197.478,177.200 199.165 C 177.200 200.863,177.381 201.406,178.200 202.165 C 179.019 202.924,179.200 203.467,179.200 205.165 C 179.200 206.863,179.381 207.406,180.200 208.165 C 181.019 208.924,181.200 209.467,181.200 211.165 C 181.200 212.863,181.381 213.406,182.200 214.165 C 183.019 214.924,183.200 215.467,183.200 217.165 C 183.200 218.863,183.381 219.406,184.200 220.165 C 185.017 220.923,185.200 221.468,185.200 223.153 C 185.200 225.121,185.243 225.204,186.145 224.978 C 187.020 224.758,187.091 224.859,187.091 226.320 C 187.091 228.216,187.398 228.800,188.396 228.800 C 188.868 228.800,189.192 229.133,189.272 229.700 C 189.449 230.948,194.452 231.101,194.632 229.863 C 194.767 228.942,194.942 228.767,195.863 228.632 C 196.638 228.518,196.670 228.431,196.750 226.200 C 196.793 224.987,196.933 224.800,197.800 224.800 C 198.600 224.800,198.800 224.600,198.800 223.800 C 198.800 223.000,199.000 222.800,199.800 222.800 C 200.600 222.800,200.800 222.600,200.800 221.800 C 200.800 221.250,200.980 220.778,201.200 220.750 C 201.420 220.722,201.825 220.678,202.100 220.650 C 202.627 220.597,202.670 220.435,202.750 218.200 C 202.793 216.987,202.933 216.800,203.800 216.800 C 204.600 216.800,204.800 216.600,204.800 215.800 C 204.800 215.000,205.000 214.800,205.800 214.800 C 206.600 214.800,206.800 214.600,206.800 213.800 C 206.800 213.250,206.980 212.778,207.200 212.750 C 207.420 212.722,207.825 212.678,208.100 212.650 C 208.627 212.597,208.670 212.435,208.750 210.200 C 208.793 208.987,208.933 208.800,209.800 208.800 C 210.618 208.800,210.805 208.600,210.825 207.700 C 210.849 206.679,210.876 206.662,211.197 207.459 C 211.685 208.667,212.023 208.801,214.794 208.877 C 217.150 208.942,217.241 208.982,217.018 209.872 C 216.795 210.758,216.884 210.800,218.965 210.800 C 220.921 210.800,221.157 210.892,221.272 211.700 C 221.381 212.468,221.679 212.618,223.300 212.722 C 224.548 212.802,225.200 213.026,225.200 213.373 C 225.200 214.354,226.278 214.808,228.771 214.876 C 231.151 214.942,231.241 214.982,231.018 215.872 C 230.786 216.796,230.801 216.800,234.792 216.800 L 238.800 216.800 238.800 214.800 C 238.800 213.087,238.911 212.800,239.576 212.800 C 240.727 212.800,240.764 212.612,240.823 206.435 C 240.867 201.728,240.974 200.781,241.438 200.959 C 241.747 201.078,242.000 200.990,242.000 200.764 C 242.000 200.538,242.180 200.464,242.400 200.600 C 242.659 200.760,242.800 198.943,242.800 195.440 C 242.800 190.205,242.832 190.003,243.787 189.116 C 244.716 188.254,244.781 187.917,244.887 183.400 C 244.993 178.904,245.051 178.600,245.800 178.600 C 246.550 178.600,246.608 178.292,246.725 173.644 C 246.840 169.109,246.925 168.627,247.725 167.980 C 248.528 167.331,248.611 166.850,248.734 162.150 C 248.861 157.335,248.927 156.974,249.834 156.133 C 250.758 155.277,250.800 155.017,250.800 150.114 C 250.800 145.184,250.834 144.975,251.700 144.595 C 252.551 144.222,252.606 143.939,252.713 139.454 C 252.817 135.107,252.901 134.647,253.713 133.990 C 254.533 133.327,254.610 132.878,254.732 128.036 C 254.804 125.156,255.016 122.800,255.203 122.800 C 256.306 122.800,256.800 121.431,256.800 118.371 C 256.800 115.255,256.783 115.200,255.800 115.200 C 255.000 115.200,254.800 115.000,254.800 114.200 C 254.800 113.149,249.280 112.562,249.150 113.600 M253.908 133.275 C 253.661 134.017,252.800 134.140,252.800 133.433 C 252.800 133.085,253.085 132.800,253.433 132.800 C 253.782 132.800,253.995 133.014,253.908 133.275 M225.103 139.030 C 224.977 139.157,224.542 139.309,224.137 139.368 C 223.731 139.428,223.378 139.684,223.350 139.938 C 223.322 140.192,223.278 140.580,223.250 140.800 C 223.222 141.020,222.750 141.200,222.200 141.200 C 221.400 141.200,221.200 141.400,221.200 142.200 C 221.200 143.000,221.000 143.200,220.200 143.200 C 219.400 143.200,219.200 143.400,219.200 144.200 C 219.200 145.000,219.000 145.200,218.200 145.200 C 217.400 145.200,217.200 145.400,217.200 146.200 C 217.200 147.000,217.000 147.200,216.200 147.200 C 215.400 147.200,215.200 147.400,215.200 148.200 C 215.200 149.000,215.000 149.200,214.200 149.200 C 213.400 149.200,213.200 149.400,213.200 150.200 C 213.200 151.000,213.000 151.200,212.200 151.200 C 211.400 151.200,211.200 151.400,211.200 152.200 C 211.200 153.000,211.000 153.200,210.200 153.200 C 209.400 153.200,209.200 153.400,209.200 154.200 C 209.200 155.000,209.000 155.200,208.200 155.200 C 207.400 155.200,207.200 155.400,207.200 156.200 C 207.200 157.000,207.000 157.200,206.200 157.200 C 205.400 157.200,205.200 157.400,205.200 158.200 C 205.200 159.000,205.000 159.200,204.200 159.200 C 203.400 159.200,203.200 159.400,203.200 160.200 C 203.200 161.000,203.000 161.200,202.200 161.200 C 201.400 161.200,201.200 161.400,201.200 162.200 C 201.200 163.000,201.000 163.200,200.200 163.200 C 199.400 163.200,199.200 163.400,199.200 164.200 C 199.200 165.000,199.000 165.200,198.200 165.200 C 197.400 165.200,197.200 165.400,197.200 166.200 C 197.200 167.000,197.000 167.200,196.200 167.200 C 195.400 167.200,195.200 167.400,195.200 168.200 C 195.200 169.000,195.000 169.200,194.200 169.200 C 193.400 169.200,193.200 169.400,193.200 170.200 C 193.200 171.000,193.000 171.200,192.200 171.200 C 191.400 171.200,191.200 171.400,191.200 172.200 C 191.200 173.000,191.000 173.200,190.200 173.200 C 189.400 173.200,189.200 173.400,189.200 174.200 C 189.200 175.000,189.000 175.200,188.200 175.200 C 187.400 175.200,187.200 175.400,187.200 176.200 C 187.200 177.000,187.000 177.200,186.200 177.200 C 185.400 177.200,185.200 177.400,185.200 178.200 C 185.200 179.000,185.000 179.200,184.200 179.200 C 183.400 179.200,183.200 179.400,183.200 180.200 C 183.200 181.000,183.000 181.200,182.200 181.200 C 181.400 181.200,181.200 181.400,181.200 182.200 C 181.200 183.000,181.000 183.200,180.200 183.200 C 179.400 183.200,179.200 183.400,179.200 184.200 C 179.200 185.014,179.004 185.200,178.146 185.200 C 177.535 185.200,176.702 184.779,176.165 184.200 C 175.406 183.381,174.863 183.200,173.165 183.200 C 171.467 183.200,170.924 183.019,170.165 182.200 C 169.406 181.381,168.863 181.200,167.165 181.200 C 165.467 181.200,164.924 181.019,164.165 180.200 C 163.391 179.365,162.872 179.200,161.019 179.200 C 158.820 179.200,158.800 179.189,158.800 178.000 C 158.800 176.987,158.956 176.800,159.800 176.800 C 160.751 176.800,160.983 176.455,160.825 175.277 C 160.786 174.990,160.990 174.786,161.277 174.825 C 163.559 175.131,164.800 174.777,164.800 173.822 C 164.800 172.939,164.985 172.832,166.700 172.722 C 168.321 172.618,168.619 172.468,168.728 171.700 C 168.820 171.049,169.124 170.800,169.828 170.800 C 170.363 170.800,170.800 170.633,170.800 170.429 C 170.800 169.622,172.127 168.800,173.429 168.800 C 174.625 168.800,174.800 168.672,174.800 167.800 C 174.800 166.867,174.933 166.800,176.800 166.800 C 178.655 166.800,178.800 166.729,178.800 165.822 C 178.800 164.939,178.985 164.832,180.700 164.722 C 182.321 164.618,182.619 164.468,182.728 163.700 C 182.820 163.049,183.124 162.800,183.828 162.800 C 184.598 162.800,184.800 162.592,184.800 161.800 C 184.800 160.867,184.933 160.800,186.800 160.800 C 188.667 160.800,188.800 160.733,188.800 159.800 C 188.800 158.867,188.933 158.800,190.800 158.800 C 192.667 158.800,192.800 158.733,192.800 157.800 C 192.800 156.928,192.975 156.800,194.171 156.800 C 195.473 156.800,196.800 155.978,196.800 155.171 C 196.800 154.967,197.250 154.800,197.800 154.800 C 198.751 154.800,198.983 154.455,198.825 153.277 C 198.786 152.990,198.990 152.786,199.277 152.825 C 201.581 153.134,202.800 152.779,202.800 151.800 C 202.800 150.933,202.987 150.793,204.200 150.750 C 206.435 150.670,206.597 150.627,206.650 150.100 C 206.678 149.825,206.722 149.420,206.750 149.200 C 206.778 148.980,207.250 148.800,207.800 148.800 C 208.350 148.800,208.800 148.633,208.800 148.429 C 208.800 147.622,210.127 146.800,211.429 146.800 C 212.625 146.800,212.800 146.672,212.800 145.800 C 212.800 144.859,214.367 144.416,216.500 144.753 C 216.665 144.779,216.779 144.665,216.753 144.500 C 216.538 143.140,216.867 142.840,218.700 142.722 C 220.321 142.618,220.619 142.468,220.728 141.700 C 220.820 141.049,221.124 140.800,221.828 140.800 C 222.598 140.800,222.800 140.592,222.800 139.800 C 222.800 138.944,222.982 138.800,224.067 138.800 C 224.763 138.800,225.230 138.904,225.103 139.030 M243.200 141.905 C 243.200 144.742,243.122 145.044,242.300 145.405 C 241.436 145.784,241.396 146.027,241.290 151.410 C 241.184 156.772,241.140 157.036,240.290 157.410 C 239.443 157.781,239.390 158.083,239.200 163.600 C 239.021 168.795,238.927 169.394,238.304 169.345 C 237.922 169.315,237.707 169.450,237.828 169.645 C 237.949 169.840,237.862 170.000,237.636 170.000 C 237.385 170.000,237.182 171.823,237.113 174.700 C 237.044 177.545,236.842 179.376,236.600 179.338 C 236.204 179.277,235.175 180.192,235.192 180.592 C 235.461 187.235,235.148 191.033,234.300 191.405 C 233.439 191.783,233.395 192.035,233.289 197.200 C 233.165 203.215,233.063 203.786,232.176 203.446 C 231.823 203.311,231.663 203.378,231.803 203.605 C 231.937 203.822,231.857 204.000,231.624 204.000 C 231.391 204.000,231.200 204.284,231.200 204.632 C 231.200 205.436,227.031 205.304,226.950 204.498 C 226.923 204.224,226.878 203.820,226.850 203.600 C 226.822 203.380,225.900 203.200,224.800 203.200 C 222.945 203.200,222.800 203.129,222.800 202.221 C 222.800 201.322,222.628 201.232,220.700 201.121 C 219.282 201.039,218.632 200.838,218.700 200.500 C 218.755 200.225,218.575 200.045,218.300 200.100 C 218.025 200.155,217.834 200.008,217.876 199.773 C 217.917 199.539,217.199 199.306,216.276 199.257 C 213.657 199.115,213.004 198.959,212.950 198.462 C 212.923 198.208,212.878 197.820,212.850 197.600 C 212.822 197.380,211.900 197.200,210.800 197.200 C 208.933 197.200,208.800 197.133,208.800 196.200 C 208.800 195.267,208.667 195.200,206.800 195.200 L 204.800 195.200 204.800 193.000 C 204.800 190.920,204.855 190.800,205.800 190.800 C 206.600 190.800,206.800 190.600,206.800 189.800 C 206.800 189.000,207.000 188.800,207.800 188.800 C 208.592 188.800,208.800 188.598,208.800 187.828 C 208.800 187.124,209.049 186.820,209.700 186.728 C 210.468 186.619,210.618 186.321,210.722 184.700 C 210.832 182.985,210.939 182.800,211.822 182.800 C 212.599 182.800,212.800 182.594,212.800 181.800 C 212.800 181.000,213.000 180.800,213.800 180.800 C 214.733 180.800,214.800 180.667,214.800 178.800 C 214.800 176.933,214.867 176.800,215.800 176.800 C 216.600 176.800,216.800 176.600,216.800 175.800 C 216.800 175.000,217.000 174.800,217.800 174.800 C 218.592 174.800,218.800 174.598,218.800 173.828 C 218.800 173.124,219.049 172.820,219.700 172.728 C 220.468 172.619,220.618 172.321,220.722 170.700 C 220.832 168.985,220.939 168.800,221.822 168.800 C 222.599 168.800,222.800 168.594,222.800 167.800 C 222.800 167.000,223.000 166.800,223.800 166.800 C 224.733 166.800,224.800 166.667,224.800 164.800 C 224.800 162.933,224.867 162.800,225.800 162.800 C 226.600 162.800,226.800 162.600,226.800 161.800 C 226.800 161.000,227.000 160.800,227.800 160.800 C 228.592 160.800,228.800 160.598,228.800 159.828 C 228.800 159.124,229.049 158.820,229.700 158.728 C 230.468 158.619,230.618 158.321,230.722 156.700 C 230.832 154.985,230.939 154.800,231.822 154.800 C 232.599 154.800,232.800 154.594,232.800 153.800 C 232.800 153.000,233.000 152.800,233.800 152.800 C 234.733 152.800,234.800 152.667,234.800 150.800 C 234.800 148.933,234.867 148.800,235.800 148.800 C 236.600 148.800,236.800 148.600,236.800 147.800 C 236.800 147.000,237.000 146.800,237.800 146.800 C 238.592 146.800,238.800 146.598,238.800 145.828 C 238.800 145.124,239.049 144.820,239.700 144.728 C 240.468 144.619,240.618 144.321,240.722 142.700 C 240.832 140.985,240.939 140.800,241.822 140.800 C 242.599 140.800,242.800 140.594,242.800 139.800 C 242.800 139.250,242.890 138.800,243.000 138.800 C 243.110 138.800,243.200 140.197,243.200 141.905 M209.829 147.829 C 209.049 148.609,209.030 148.840,209.769 148.557 C 210.082 148.436,210.436 148.082,210.557 147.769 C 210.840 147.030,210.609 147.049,209.829 147.829 M213.052 165.008 C 212.917 165.362,212.626 165.540,212.407 165.404 C 212.153 165.248,212.189 164.961,212.504 164.619 C 213.114 163.957,213.383 164.147,213.052 165.008 M211.279 167.776 C 211.140 168.965,210.954 169.200,210.156 169.200 C 209.410 169.200,209.200 169.414,209.200 170.172 C 209.200 170.876,208.951 171.180,208.300 171.272 C 207.718 171.355,207.354 171.722,207.271 172.311 C 207.200 172.812,206.705 173.659,206.171 174.193 C 205.637 174.727,205.200 175.609,205.200 176.154 C 205.200 176.876,204.957 177.179,204.300 177.272 C 203.756 177.349,203.354 177.721,203.284 178.212 C 203.220 178.659,202.770 179.199,202.284 179.412 C 201.607 179.709,201.371 180.198,201.277 181.500 C 201.168 183.002,201.040 183.200,200.177 183.200 C 199.402 183.200,199.200 183.406,199.200 184.200 C 199.200 184.750,199.020 185.222,198.800 185.250 C 198.580 185.278,198.192 185.322,197.938 185.350 C 197.436 185.404,197.166 186.361,197.155 188.121 C 197.149 189.041,196.992 189.220,196.274 189.121 C 195.581 189.025,195.374 189.228,195.273 190.100 C 195.174 190.964,194.938 191.200,194.173 191.200 C 193.402 191.200,193.200 191.407,193.200 192.200 C 193.200 193.115,192.682 193.434,191.500 193.247 C 191.335 193.221,191.221 193.335,191.247 193.500 C 191.721 196.497,191.114 201.638,190.300 201.525 C 189.568 201.423,189.423 201.568,189.525 202.300 C 189.594 202.795,189.459 203.200,189.225 203.200 C 188.991 203.200,188.800 202.821,188.800 202.358 C 188.800 201.894,188.350 201.161,187.800 200.729 C 186.949 200.059,186.800 199.613,186.800 197.729 C 186.800 195.844,186.651 195.398,185.800 194.729 C 183.907 193.240,184.174 192.897,197.900 179.176 C 211.659 165.422,211.542 165.522,211.279 167.776 M209.680 167.680 C 209.025 168.335,209.075 168.823,209.769 168.557 C 210.390 168.318,210.965 167.200,210.467 167.200 C 210.298 167.200,209.944 167.416,209.680 167.680 M171.829 169.829 C 171.049 170.609,171.030 170.840,171.769 170.557 C 172.082 170.436,172.436 170.082,172.557 169.769 C 172.840 169.030,172.609 169.049,171.829 169.829 M207.680 169.680 C 207.416 169.944,207.200 170.298,207.200 170.467 C 207.200 170.965,208.318 170.390,208.557 169.769 C 208.823 169.075,208.335 169.025,207.680 169.680 M205.680 171.680 C 205.416 171.944,205.200 172.298,205.200 172.467 C 205.200 172.965,206.318 172.390,206.557 171.769 C 206.823 171.075,206.335 171.025,205.680 171.680 M203.680 173.680 C 203.416 173.944,203.200 174.298,203.200 174.467 C 203.200 174.965,204.318 174.390,204.557 173.769 C 204.823 173.075,204.335 173.025,203.680 173.680 M141.829 175.829 C 141.462 176.195,141.265 176.598,141.390 176.724 C 141.516 176.850,141.919 176.652,142.286 176.286 C 142.652 175.919,142.850 175.516,142.724 175.390 C 142.598 175.265,142.195 175.462,141.829 175.829 M201.680 175.680 C 201.416 175.944,201.200 176.298,201.200 176.467 C 201.200 176.965,202.318 176.390,202.557 175.769 C 202.823 175.075,202.335 175.025,201.680 175.680 M199.680 177.680 C 199.416 177.944,199.200 178.298,199.200 178.467 C 199.200 178.965,200.318 178.390,200.557 177.769 C 200.823 177.075,200.335 177.025,199.680 177.680 M197.680 179.680 C 197.416 179.944,197.200 180.298,197.200 180.467 C 197.200 180.965,198.318 180.390,198.557 179.769 C 198.823 179.075,198.335 179.025,197.680 179.680 M195.680 181.680 C 195.416 181.944,195.200 182.298,195.200 182.467 C 195.200 182.965,196.318 182.390,196.557 181.769 C 196.823 181.075,196.335 181.025,195.680 181.680 M193.680 183.680 C 193.416 183.944,193.200 184.298,193.200 184.467 C 193.200 184.965,194.318 184.390,194.557 183.769 C 194.823 183.075,194.335 183.025,193.680 183.680 M191.680 185.680 C 191.416 185.944,191.200 186.298,191.200 186.467 C 191.200 186.965,192.318 186.390,192.557 185.769 C 192.823 185.075,192.335 185.025,191.680 185.680 M189.680 187.680 C 189.416 187.944,189.200 188.298,189.200 188.467 C 189.200 188.965,190.318 188.390,190.557 187.769 C 190.823 187.075,190.335 187.025,189.680 187.680 M187.680 189.680 C 187.416 189.944,187.200 190.298,187.200 190.467 C 187.200 190.965,188.318 190.390,188.557 189.769 C 188.823 189.075,188.335 189.025,187.680 189.680 M243.829 189.829 C 243.049 190.609,243.030 190.840,243.769 190.557 C 244.082 190.436,244.436 190.082,244.557 189.769 C 244.840 189.030,244.609 189.049,243.829 189.829 M185.680 191.680 C 185.416 191.944,185.200 192.298,185.200 192.467 C 185.200 192.965,186.318 192.390,186.557 191.769 C 186.823 191.075,186.335 191.025,185.680 191.680 M201.269 203.207 C 201.764 204.691,201.083 207.200,200.186 207.200 C 199.475 207.200,199.213 207.462,199.087 208.300 C 198.995 208.905,198.893 207.915,198.860 206.100 L 198.800 202.800 199.967 202.800 C 200.608 202.800,201.194 202.983,201.269 203.207 M115.128 228.285 C 115.036 229.090,114.778 229.400,114.200 229.401 C 112.934 229.401,113.028 232.547,114.300 232.728 C 114.951 232.820,115.200 233.124,115.200 233.828 C 115.200 234.598,115.408 234.800,116.200 234.800 C 117.000 234.800,117.200 235.000,117.200 235.800 C 117.200 236.808,118.068 237.073,120.530 236.816 C 121.081 236.758,121.229 236.968,121.130 237.670 C 121.023 238.437,121.204 238.623,122.162 238.733 C 122.802 238.805,123.626 239.238,123.995 239.693 C 124.528 240.352,124.903 240.458,125.833 240.214 C 126.885 239.938,126.921 239.878,126.200 239.597 C 125.114 239.175,125.970 238.859,128.600 238.712 L 130.600 238.600 130.718 235.688 L 130.836 232.776 129.760 233.046 C 128.756 233.298,128.702 233.246,128.950 232.258 C 129.193 231.289,129.114 231.200,128.008 231.200 C 126.986 231.200,126.800 231.046,126.800 230.200 C 126.800 229.269,126.665 229.200,124.828 229.200 C 123.087 229.200,122.841 229.094,122.728 228.300 C 122.607 227.451,122.391 227.393,118.928 227.285 L 115.256 227.171 115.128 228.285 M167.200 230.200 C 167.200 231.133,167.067 231.200,165.200 231.200 C 163.349 231.200,163.200 231.272,163.200 232.172 C 163.200 232.876,162.951 233.180,162.300 233.272 C 160.830 233.481,160.690 238.800,162.154 238.800 C 162.877 238.800,163.179 239.043,163.272 239.700 C 163.390 240.528,163.608 240.600,166.000 240.600 C 168.392 240.600,168.610 240.528,168.728 239.700 C 168.841 238.904,169.086 238.800,170.846 238.800 C 174.113 238.800,174.800 237.796,174.800 233.018 L 174.800 229.200 171.000 229.200 C 167.213 229.200,167.200 229.204,167.200 230.200 M135.635 235.758 C 134.963 236.567,134.947 243.413,135.614 244.217 C 136.006 244.689,137.499 244.800,143.449 244.800 L 150.800 244.800 150.800 243.895 C 150.800 243.340,151.148 242.837,151.700 242.595 C 152.195 242.378,152.660 241.775,152.734 241.256 C 152.829 240.580,152.724 240.400,152.366 240.621 C 152.021 240.834,151.938 240.739,152.100 240.315 C 152.258 239.904,152.115 239.716,151.668 239.750 C 151.193 239.785,150.964 239.424,150.875 238.500 L 150.749 237.200 148.375 237.150 C 145.150 237.082,145.001 237.058,144.994 236.600 C 144.978 235.571,144.199 235.348,140.294 235.252 C 136.975 235.170,136.038 235.272,135.635 235.758 M133.693 240.000 C 133.693 240.770,133.775 241.085,133.876 240.700 C 133.976 240.315,133.976 239.685,133.876 239.300 C 133.775 238.915,133.693 239.230,133.693 240.000 " stroke="none" fill="#3d90e3" fill-rule="evenodd"></path><path id="path4" d="M248.080 114.080 C 247.406 114.754,247.483 115.146,248.267 115.031 C 248.633 114.978,248.978 114.633,249.031 114.267 C 249.146 113.483,248.754 113.406,248.080 114.080 M210.080 136.080 C 209.406 136.754,209.483 137.146,210.267 137.031 C 210.633 136.978,210.978 136.633,211.031 136.267 C 211.146 135.483,210.754 135.406,210.080 136.080 M143.600 183.155 C 143.600 183.312,143.816 183.656,144.080 183.920 C 144.754 184.594,145.146 184.517,145.031 183.733 C 144.938 183.099,143.600 182.559,143.600 183.155 M149.600 185.155 C 149.600 185.312,149.816 185.656,150.080 185.920 C 150.754 186.594,151.146 186.517,151.031 185.733 C 150.938 185.099,149.600 184.559,149.600 185.155 M155.600 187.155 C 155.600 187.312,155.816 187.656,156.080 187.920 C 156.754 188.594,157.146 188.517,157.031 187.733 C 156.938 187.099,155.600 186.559,155.600 187.155 M161.600 189.155 C 161.600 189.312,161.816 189.656,162.080 189.920 C 162.754 190.594,163.146 190.517,163.031 189.733 C 162.938 189.099,161.600 188.559,161.600 189.155 M167.600 191.155 C 167.600 191.312,167.816 191.656,168.080 191.920 C 168.754 192.594,169.146 192.517,169.031 191.733 C 168.938 191.099,167.600 190.559,167.600 191.155 M173.600 193.155 C 173.600 193.312,173.816 193.656,174.080 193.920 C 174.754 194.594,175.146 194.517,175.031 193.733 C 174.938 193.099,173.600 192.559,173.600 193.155 M212.969 198.267 C 213.022 198.633,213.367 198.978,213.733 199.031 C 214.517 199.146,214.594 198.754,213.920 198.080 C 213.246 197.406,212.854 197.483,212.969 198.267 M226.969 204.267 C 227.022 204.633,227.367 204.978,227.733 205.031 C 228.517 205.146,228.594 204.754,227.920 204.080 C 227.246 203.406,226.854 203.483,226.969 204.267 M144.611 235.600 C 144.818 235.930,144.991 236.363,144.994 236.562 C 144.997 236.761,145.325 236.971,145.723 237.030 C 146.678 237.170,146.397 236.428,145.195 235.634 C 144.383 235.098,144.293 235.093,144.611 235.600 " stroke="none" fill="#00ffff" fill-rule="evenodd"></path></g></svg>