<svg id="svg" version="1.1" width="400" height="344.82758620689657" viewBox="0 0 400 344.82758620689657" xmlns="http://www.w3.org/2000/svg" xmlns:xlink="http://www.w3.org/1999/xlink" ><g id="svgg"><path id="path0" d="M0.000 60.517 L 0.000 121.034 1.037 121.034 C 1.643 121.034,2.670 120.604,3.505 119.999 C 4.291 119.429,6.027 118.638,7.361 118.240 C 8.695 117.843,10.610 117.053,11.617 116.485 C 12.860 115.784,14.795 115.179,17.648 114.601 C 22.427 113.633,23.442 113.267,25.521 111.761 C 26.336 111.170,28.105 110.360,29.450 109.960 C 32.314 109.110,33.519 108.528,35.178 107.195 C 35.846 106.659,37.494 105.845,38.842 105.387 C 41.917 104.341,42.624 103.968,44.191 102.567 C 44.885 101.947,46.408 101.091,47.577 100.665 C 48.864 100.196,50.377 99.284,51.411 98.354 C 52.479 97.394,54.055 96.455,55.612 95.850 C 56.982 95.318,58.569 94.414,59.138 93.840 C 59.707 93.266,61.741 92.026,63.659 91.083 C 65.576 90.141,67.235 89.136,67.345 88.849 C 67.454 88.563,68.909 87.680,70.577 86.888 C 72.245 86.095,74.108 85.010,74.716 84.475 C 75.946 83.395,80.449 82.182,81.725 82.586 C 84.233 83.382,104.473 81.581,106.893 80.347 C 109.149 79.196,113.013 78.344,119.310 77.608 C 125.829 76.847,126.446 76.712,129.311 75.422 C 131.677 74.356,133.419 73.994,141.213 72.952 C 144.630 72.495,148.121 71.859,148.971 71.538 C 153.725 69.746,155.392 69.292,158.484 68.951 C 165.801 68.143,171.158 67.171,173.579 66.212 C 176.561 65.030,178.356 64.669,184.828 63.951 C 191.361 63.225,194.885 62.544,197.251 61.547 C 199.350 60.664,203.158 59.894,208.276 59.318 C 213.955 58.679,218.036 57.887,220.088 57.028 C 222.553 55.996,225.612 55.352,230.517 54.836 C 236.165 54.241,239.818 53.534,242.008 52.612 C 244.937 51.379,247.698 50.749,252.765 50.159 C 258.442 49.497,261.699 48.823,263.390 47.961 C 265.368 46.952,268.242 46.311,274.201 45.549 C 279.757 44.839,283.252 44.091,284.837 43.271 C 286.138 42.598,290.839 41.475,293.448 41.214 C 297.854 40.774,303.893 39.571,306.531 38.608 C 309.298 37.598,313.458 36.877,320.345 36.214 C 325.370 35.730,328.595 35.090,332.360 33.832 C 335.646 32.734,338.567 32.214,343.276 31.892 C 348.903 31.506,355.638 30.629,358.097 29.961 C 372.954 25.926,378.777 26.624,380.843 32.688 C 381.591 34.883,381.574 34.950,379.738 36.979 C 378.836 37.977,377.764 39.263,377.355 39.838 C 376.947 40.412,375.650 41.421,374.472 42.079 C 373.295 42.737,371.365 44.074,370.185 45.050 C 369.004 46.025,367.509 47.096,366.864 47.429 C 366.218 47.762,365.088 48.717,364.353 49.551 C 363.618 50.385,362.284 51.438,361.389 51.891 C 360.495 52.345,359.505 53.109,359.190 53.590 C 358.875 54.070,357.780 54.999,356.757 55.654 C 355.733 56.309,353.911 57.644,352.707 58.621 C 351.502 59.598,349.819 60.800,348.966 61.292 C 348.112 61.784,347.046 62.635,346.597 63.182 C 346.148 63.730,344.940 64.653,343.912 65.233 C 342.884 65.813,341.636 66.820,341.140 67.471 C 340.643 68.122,339.524 69.060,338.653 69.554 C 337.782 70.049,336.448 71.020,335.690 71.711 C 334.931 72.402,333.302 73.646,332.069 74.475 C 330.836 75.305,329.113 76.640,328.239 77.443 C 327.365 78.245,325.968 79.249,325.135 79.673 C 324.302 80.097,323.414 80.738,323.160 81.098 C 322.416 82.156,321.365 83.032,320.147 83.610 C 319.520 83.907,318.204 84.836,317.222 85.675 C 316.240 86.513,314.330 87.774,312.977 88.478 C 311.624 89.182,310.087 90.268,309.562 90.892 C 309.036 91.515,307.795 92.412,306.803 92.883 C 305.811 93.355,304.460 94.301,303.799 94.986 C 303.139 95.672,301.432 96.869,300.006 97.647 C 298.580 98.424,296.743 99.674,295.923 100.423 C 295.103 101.173,293.784 102.073,292.992 102.424 C 292.200 102.774,291.012 103.619,290.352 104.301 C 289.692 104.983,288.140 106.096,286.904 106.775 C 285.667 107.453,284.578 108.108,284.483 108.229 C 283.990 108.861,280.324 111.424,279.293 111.858 C 278.639 112.134,277.560 112.929,276.897 113.625 C 276.233 114.320,274.947 115.269,274.039 115.733 C 273.132 116.196,271.813 117.090,271.108 117.719 C 270.404 118.348,268.617 119.660,267.137 120.634 C 265.657 121.608,264.070 122.851,263.611 123.397 C 263.152 123.943,261.933 124.830,260.903 125.370 C 259.872 125.909,258.775 126.782,258.463 127.309 C 258.152 127.835,257.168 128.681,256.276 129.187 C 255.385 129.694,253.957 130.761,253.103 131.557 C 252.250 132.354,250.619 133.570,249.480 134.260 C 248.340 134.949,246.573 136.275,245.554 137.208 C 244.535 138.140,243.140 139.156,242.454 139.466 C 241.768 139.776,240.857 140.565,240.429 141.220 C 240.001 141.875,238.837 142.872,237.843 143.436 C 236.848 144.000,235.598 145.014,235.064 145.689 C 234.530 146.364,233.443 147.318,232.650 147.808 C 231.856 148.299,230.586 149.277,229.828 149.982 C 229.069 150.687,227.595 151.863,226.552 152.594 C 225.509 153.325,223.868 154.653,222.906 155.544 C 221.944 156.436,220.547 157.485,219.802 157.876 C 219.058 158.267,217.933 159.217,217.304 159.988 C 216.674 160.759,215.511 161.719,214.718 162.121 C 213.925 162.523,212.755 163.457,212.118 164.197 C 211.481 164.936,210.341 165.857,209.584 166.243 C 208.827 166.630,207.563 167.536,206.776 168.257 C 205.989 168.979,204.184 170.317,202.765 171.232 C 201.346 172.147,199.809 173.342,199.349 173.889 C 198.890 174.435,197.697 175.343,196.698 175.907 C 195.700 176.470,194.497 177.437,194.025 178.055 C 193.554 178.674,192.259 179.664,191.149 180.256 C 190.039 180.848,188.747 181.739,188.280 182.237 C 187.386 183.188,184.791 184.743,182.773 185.536 C 182.118 185.794,181.027 186.559,180.350 187.236 C 179.673 187.913,178.220 188.893,177.121 189.413 C 176.023 189.933,174.269 190.990,173.224 191.762 C 172.179 192.534,170.382 193.633,169.231 194.205 C 168.079 194.776,166.766 195.685,166.311 196.225 C 164.358 198.547,158.968 200.195,157.274 198.989 C 155.209 197.518,155.087 196.897,155.521 190.066 C 156.154 180.122,155.301 151.041,154.304 148.534 C 153.784 147.227,145.469 148.309,142.408 150.082 C 140.032 151.459,136.853 152.372,131.379 153.250 C 128.629 153.691,124.558 154.611,122.333 155.294 C 115.878 157.276,108.294 157.936,89.260 158.175 C 70.334 158.413,71.890 159.833,72.247 142.651 C 72.504 130.306,72.360 126.737,71.561 125.643 C 70.919 124.766,65.656 125.740,61.087 127.582 C 57.672 128.959,52.853 129.894,45.862 130.538 C 44.436 130.669,42.388 131.145,41.296 131.598 C 38.925 132.582,35.256 133.138,31.724 133.049 C 30.302 133.013,27.116 133.110,24.645 133.264 C 19.826 133.566,17.298 133.298,12.987 132.027 C 10.653 131.339,4.295 130.086,1.466 129.756 L 0.000 129.586 0.000 237.207 L 0.000 344.828 200.000 344.828 L 400.000 344.828 400.000 172.414 L 400.000 0.000 200.000 0.000 L 0.000 0.000 0.000 60.517 M332.414 42.779 C 327.582 43.290,325.658 43.657,322.759 44.622 C 319.298 45.774,314.124 46.776,307.414 47.592 C 303.557 48.061,301.896 48.427,299.703 49.292 C 297.694 50.083,292.603 51.069,285.345 52.071 C 281.842 52.554,279.059 53.169,276.724 53.974 C 273.419 55.113,268.379 56.113,262.034 56.886 C 260.403 57.085,258.151 57.621,257.031 58.076 C 253.965 59.321,251.532 59.871,243.989 61.023 C 239.709 61.676,236.327 62.385,235.024 62.901 C 232.422 63.933,227.454 65.014,221.379 65.869 C 218.464 66.279,215.400 66.973,213.181 67.725 C 209.537 68.960,205.973 69.617,198.007 70.523 C 195.462 70.812,191.087 71.646,188.157 72.400 C 184.466 73.350,180.619 74.028,175.322 74.663 C 170.149 75.283,167.032 75.828,165.460 76.387 C 162.513 77.436,155.834 78.734,148.656 79.652 C 145.546 80.050,142.709 80.532,142.352 80.723 C 141.437 81.212,132.334 83.269,127.224 84.141 C 124.863 84.544,121.302 85.420,119.310 86.088 C 114.391 87.738,110.563 88.536,104.554 89.161 C 101.765 89.451,98.473 89.987,97.238 90.351 C 94.960 91.024,87.371 92.409,85.943 92.412 C 84.223 92.416,83.322 95.707,82.923 103.448 C 82.690 107.956,81.589 116.693,80.844 119.935 C 80.509 121.396,80.338 124.232,80.324 128.556 C 80.312 132.100,80.177 136.164,80.025 137.586 C 79.686 140.736,80.172 143.548,81.008 143.288 C 81.307 143.195,82.638 142.958,83.966 142.761 C 88.817 142.043,91.578 141.189,93.754 139.736 C 94.911 138.964,96.362 138.224,96.980 138.092 C 100.204 137.402,103.512 136.099,104.828 135.000 C 105.834 134.159,107.289 133.489,109.765 132.725 C 112.103 132.004,113.667 131.299,114.447 130.615 C 115.735 129.485,117.665 128.573,120.528 127.741 C 121.693 127.402,122.757 126.805,123.354 126.155 C 123.880 125.581,125.901 124.360,127.845 123.440 C 129.789 122.521,131.379 121.607,131.379 121.409 C 131.379 120.965,134.664 119.056,135.893 118.786 C 136.387 118.678,137.672 117.845,138.748 116.935 C 139.823 116.025,141.704 114.696,142.927 113.981 C 144.149 113.266,145.524 112.190,145.982 111.590 C 146.439 110.990,147.689 110.057,148.758 109.516 C 149.899 108.939,150.950 108.109,151.300 107.510 C 151.628 106.949,152.905 105.896,154.138 105.171 C 155.371 104.447,156.835 103.374,157.392 102.789 C 158.306 101.828,158.608 101.724,160.496 101.724 C 166.113 101.723,176.853 99.825,180.172 98.247 C 181.448 97.641,183.564 97.054,185.690 96.717 C 193.371 95.499,196.833 94.735,198.966 93.785 C 201.702 92.566,202.942 92.245,207.586 91.552 C 212.367 90.838,213.499 90.522,216.455 89.076 C 218.254 88.197,220.359 87.579,224.042 86.850 C 226.845 86.295,229.759 85.519,230.517 85.126 C 231.276 84.732,232.450 84.126,233.127 83.779 C 233.804 83.432,236.520 82.742,239.162 82.245 C 242.902 81.543,244.582 81.039,246.747 79.970 C 248.724 78.995,250.771 78.343,253.816 77.718 C 257.901 76.880,258.827 76.549,262.414 74.644 C 263.267 74.190,265.517 73.487,267.414 73.081 C 270.806 72.354,271.740 71.999,274.828 70.258 C 275.681 69.777,278.164 68.967,280.345 68.459 C 283.236 67.786,284.918 67.174,286.552 66.201 C 288.225 65.205,289.915 64.600,293.222 63.814 C 296.412 63.056,298.197 62.427,299.601 61.567 C 300.816 60.824,303.047 59.969,305.514 59.303 C 309.578 58.206,309.863 58.090,312.491 56.466 C 313.335 55.945,315.740 55.083,317.836 54.552 C 320.628 53.843,322.142 53.248,323.496 52.324 C 324.864 51.392,326.411 50.787,329.445 50.001 C 334.103 48.793,334.698 48.538,334.990 47.617 C 335.390 46.359,338.909 44.843,341.459 44.832 C 341.976 44.829,343.047 44.568,343.839 44.252 L 345.278 43.676 344.344 42.872 C 343.180 41.871,341.146 41.855,332.414 42.779 M336.034 57.222 C 335.224 57.422,335.124 57.532,335.571 57.729 C 336.348 58.070,338.448 57.841,338.448 57.414 C 338.448 56.977,337.371 56.891,336.034 57.222 M332.664 59.469 C 332.330 59.713,331.245 60.019,330.252 60.149 C 327.093 60.564,323.703 61.604,320.862 63.031 C 318.443 64.247,314.328 65.673,311.246 66.365 C 310.699 66.488,309.767 66.950,309.177 67.391 C 307.433 68.696,306.191 69.210,302.215 70.276 C 300.143 70.831,297.162 71.931,295.591 72.722 C 293.888 73.578,291.658 74.369,290.073 74.680 C 288.596 74.970,285.958 75.882,284.138 76.733 C 282.336 77.575,279.051 78.718,276.838 79.274 C 274.624 79.829,272.125 80.687,271.284 81.180 C 269.319 82.332,265.617 83.587,262.025 84.319 C 260.461 84.638,258.634 85.266,257.949 85.718 C 256.241 86.849,252.209 88.171,248.512 88.812 C 246.811 89.107,244.630 89.748,243.665 90.237 C 241.024 91.576,238.520 92.370,234.138 93.259 C 231.661 93.761,228.963 94.598,226.952 95.487 C 224.706 96.479,222.228 97.214,218.762 97.914 C 215.493 98.575,213.437 99.172,212.751 99.660 C 211.029 100.886,208.313 101.653,202.964 102.421 C 197.670 103.181,196.365 103.510,192.931 104.948 C 191.625 105.496,188.447 106.211,184.310 106.888 C 179.844 107.620,176.990 108.277,175.345 108.951 C 174.017 109.495,171.612 110.256,170.000 110.642 C 163.997 112.079,163.338 112.419,162.819 114.341 C 161.214 120.292,161.830 158.893,163.633 165.345 C 164.092 166.986,164.600 171.659,165.058 178.448 C 165.500 185.004,168.651 185.803,173.966 180.710 C 174.724 179.982,176.043 179.084,176.897 178.714 C 177.750 178.343,179.302 177.307,180.345 176.413 C 181.388 175.518,183.204 174.325,184.380 173.762 C 185.570 173.193,186.846 172.280,187.256 171.704 C 187.661 171.134,188.896 170.212,190.000 169.655 C 191.104 169.098,192.344 168.168,192.757 167.589 C 193.169 167.009,194.386 165.977,195.460 165.294 C 196.535 164.611,198.202 163.312,199.165 162.407 C 200.129 161.502,201.758 160.285,202.786 159.702 C 203.814 159.119,205.059 158.131,205.553 157.506 C 206.046 156.882,207.288 155.945,208.311 155.424 C 209.372 154.883,210.485 153.993,210.899 153.352 C 211.299 152.734,212.357 151.852,213.251 151.392 C 214.144 150.933,215.343 149.965,215.916 149.242 C 216.489 148.519,217.758 147.394,218.737 146.741 C 219.716 146.088,221.060 144.975,221.724 144.267 C 222.388 143.558,223.969 142.307,225.237 141.487 C 226.506 140.666,227.879 139.522,228.290 138.945 C 228.701 138.369,229.836 137.443,230.812 136.890 C 231.788 136.336,233.034 135.317,233.581 134.626 C 234.128 133.934,235.244 133.073,236.060 132.712 C 236.876 132.351,238.058 131.468,238.686 130.750 C 239.314 130.032,240.557 129.024,241.449 128.510 C 242.341 127.997,244.029 126.740,245.201 125.719 C 246.372 124.697,248.125 123.468,249.096 122.986 C 250.067 122.505,251.278 121.581,251.785 120.933 C 252.293 120.285,253.439 119.411,254.332 118.992 C 255.224 118.572,256.510 117.610,257.189 116.854 C 257.868 116.098,259.339 114.991,260.458 114.395 C 261.577 113.798,263.238 112.640,264.148 111.822 C 265.059 111.003,266.655 109.944,267.696 109.467 C 268.764 108.978,269.978 108.091,270.482 107.430 C 270.973 106.786,272.215 105.862,273.242 105.376 C 274.270 104.890,275.551 104.063,276.090 103.539 C 277.550 102.118,279.277 100.892,281.207 99.909 C 282.155 99.425,283.397 98.530,283.966 97.919 C 284.534 97.307,285.776 96.455,286.724 96.024 C 287.672 95.593,288.991 94.669,289.655 93.971 C 290.319 93.272,291.948 92.069,293.276 91.298 C 294.603 90.526,296.347 89.296,297.149 88.566 C 297.952 87.835,299.441 86.870,300.458 86.420 C 301.507 85.956,302.633 85.143,303.064 84.538 C 303.481 83.952,304.708 83.001,305.790 82.423 C 306.873 81.846,308.534 80.664,309.483 79.796 C 310.431 78.929,312.089 77.770,313.167 77.220 C 314.245 76.670,315.541 75.678,316.046 75.015 C 316.552 74.353,317.796 73.418,318.812 72.937 C 319.844 72.449,321.072 71.521,321.596 70.835 C 322.111 70.159,323.308 69.214,324.256 68.733 C 325.204 68.253,326.923 66.884,328.076 65.692 C 329.623 64.092,330.647 63.357,331.983 62.888 C 333.705 62.283,333.793 62.193,333.788 61.040 C 333.781 59.377,333.440 58.901,332.664 59.469 M68.980 98.152 C 67.945 98.627,66.512 99.544,65.796 100.191 C 65.080 100.838,63.522 101.831,62.333 102.398 C 61.145 102.965,59.319 104.048,58.276 104.805 C 57.233 105.563,55.526 106.527,54.483 106.948 C 53.440 107.369,51.863 108.355,50.979 109.140 C 49.944 110.059,48.323 110.973,46.424 111.707 C 44.802 112.334,43.198 113.154,42.858 113.530 C 41.952 114.533,39.359 115.756,36.743 116.413 C 35.110 116.823,33.976 117.379,32.826 118.334 C 31.294 119.607,29.810 120.203,25.172 121.408 L 23.621 121.812 24.906 122.265 C 27.712 123.253,32.889 123.589,38.296 123.136 C 43.458 122.703,44.756 122.435,49.138 120.905 C 50.466 120.441,53.802 119.731,56.552 119.326 C 62.454 118.459,64.852 117.829,66.489 116.716 C 67.151 116.266,68.458 115.702,69.394 115.462 C 72.640 114.630,73.171 112.871,73.145 103.035 C 73.129 97.427,72.408 96.581,68.980 98.152 M153.130 118.539 C 152.671 118.968,151.533 119.545,150.601 119.822 C 148.609 120.414,146.970 121.346,144.820 123.111 C 143.962 123.816,142.479 124.788,141.524 125.272 C 140.569 125.756,139.263 126.641,138.623 127.239 C 137.355 128.424,135.861 129.260,133.034 130.368 C 132.029 130.762,130.797 131.474,130.297 131.949 C 129.796 132.425,127.934 133.558,126.159 134.468 C 124.384 135.377,121.845 136.684,120.517 137.373 C 119.190 138.062,116.862 138.989,115.345 139.433 C 113.798 139.886,111.775 140.794,110.740 141.501 C 109.724 142.194,107.784 143.081,106.429 143.473 C 102.097 144.726,101.965 144.844,102.814 146.708 C 103.778 148.824,125.621 147.002,131.724 144.297 C 133.187 143.649,136.217 142.760,138.701 142.250 C 143.548 141.255,145.200 140.673,146.661 139.443 C 147.199 138.991,147.804 138.621,148.005 138.621 C 148.205 138.621,149.668 137.962,151.254 137.158 L 154.138 135.694 154.138 133.544 C 154.138 132.361,154.295 129.101,154.488 126.300 C 154.757 122.372,154.738 120.812,154.401 119.483 L 153.966 117.759 153.130 118.539 M192.666 228.382 C 194.650 230.481,195.356 231.699,195.706 233.633 C 195.842 234.385,196.153 235.388,196.399 235.862 C 196.794 236.627,196.755 236.822,196.054 237.586 C 194.913 238.831,193.632 245.925,192.754 255.862 C 192.360 260.319,191.787 265.983,191.480 268.448 C 190.696 274.762,190.508 280.019,191.055 280.357 C 193.193 281.679,196.335 280.882,198.635 278.433 C 200.062 276.915,200.631 277.383,201.524 280.810 C 203.016 286.538,198.022 297.142,192.998 298.916 L 190.764 299.705 189.089 298.845 C 187.069 297.808,185.009 295.846,184.129 294.120 C 183.475 292.839,183.249 292.005,182.235 287.155 L 181.677 284.483 180.053 284.483 C 179.142 284.483,178.093 284.247,177.663 283.946 C 176.899 283.411,176.897 283.416,176.897 285.260 C 176.897 289.718,174.349 296.554,172.143 298.014 C 168.752 300.258,164.891 301.646,161.207 301.947 C 158.464 302.170,152.842 299.908,151.363 297.984 C 148.336 294.049,147.522 292.359,146.260 287.380 C 144.924 282.115,144.698 281.678,144.326 283.657 C 143.733 286.818,142.665 289.398,141.210 291.185 C 140.375 292.210,139.222 293.882,138.647 294.901 C 134.635 302.010,126.104 300.915,122.482 292.825 L 121.879 291.478 119.504 292.894 C 117.584 294.039,116.852 294.740,115.683 296.552 C 112.396 301.645,107.372 301.878,104.301 297.078 C 103.221 295.390,99.576 291.724,98.977 291.724 C 98.825 291.724,98.450 292.106,98.144 292.572 C 97.155 294.082,93.417 297.895,91.667 299.180 C 88.295 301.655,83.896 300.334,81.683 296.181 C 80.536 294.029,79.863 293.498,77.326 292.741 L 75.858 292.303 73.260 295.100 C 67.233 301.587,61.828 302.104,57.549 296.600 C 54.813 293.082,54.088 290.141,54.088 282.552 C 54.088 276.643,54.309 277.266,50.590 272.701 C 45.333 266.248,45.064 262.882,49.421 258.063 C 51.792 255.440,52.515 255.244,55.243 256.480 C 56.468 257.036,58.234 257.598,59.166 257.729 C 68.613 259.060,71.279 264.707,66.986 274.297 C 65.272 278.127,64.690 282.089,65.579 283.879 C 66.430 285.594,66.480 285.579,70.095 282.563 C 71.815 281.128,73.855 279.634,74.628 279.243 C 77.506 277.790,81.026 274.831,82.070 272.987 C 82.624 272.008,83.551 270.691,84.130 270.059 C 84.709 269.428,85.412 268.467,85.694 267.924 C 87.507 264.417,93.758 258.700,96.963 257.618 L 99.046 256.915 100.872 257.778 C 103.218 258.888,104.923 260.796,106.344 263.901 C 106.968 265.264,107.890 266.983,108.394 267.721 C 109.619 269.513,109.624 272.350,108.413 277.241 C 107.113 282.490,107.191 287.321,108.556 286.098 C 108.876 285.812,110.068 285.336,111.205 285.041 C 112.932 284.593,113.557 284.204,114.998 282.683 C 115.948 281.682,117.226 280.436,117.840 279.915 C 119.531 278.481,121.601 274.087,121.900 271.297 L 122.147 268.988 120.723 267.370 C 117.039 263.185,116.751 255.907,120.186 253.785 C 121.873 252.742,125.821 253.154,127.672 254.566 C 128.289 255.036,129.581 255.832,130.544 256.336 C 134.215 258.255,135.297 260.912,134.914 267.062 C 134.783 269.158,134.869 270.121,135.253 270.853 L 135.767 271.835 136.202 270.019 C 136.458 268.952,136.549 267.443,136.422 266.363 C 136.156 264.097,137.333 260.097,139.096 257.281 L 140.259 255.425 140.802 257.109 C 141.782 260.145,142.360 262.838,143.452 269.467 C 144.704 277.069,144.662 276.956,145.695 275.436 C 146.131 274.793,147.185 273.898,148.035 273.447 C 149.373 272.737,149.760 272.256,150.911 269.871 C 151.643 268.355,152.594 266.690,153.025 266.170 C 153.457 265.651,154.310 264.490,154.922 263.591 C 156.489 261.289,162.176 257.947,165.803 257.198 C 171.571 256.007,176.100 260.242,175.806 266.552 C 175.654 269.820,175.055 270.990,171.176 275.600 C 166.281 281.419,165.376 281.900,158.654 282.266 C 153.553 282.543,153.788 282.405,153.135 285.495 C 152.608 287.989,153.001 288.383,156.265 288.625 C 159.728 288.882,164.001 288.001,164.968 286.831 C 166.335 285.176,172.171 282.759,174.797 282.759 C 178.813 282.759,179.148 282.035,179.662 272.241 C 179.976 266.247,180.213 264.844,181.151 263.406 C 182.112 261.935,182.930 253.872,182.233 252.745 C 181.788 252.026,182.079 246.179,182.725 242.853 C 184.415 234.147,186.370 229.583,189.349 227.385 C 190.812 226.306,190.659 226.260,192.666 228.382 M64.615 230.199 C 66.386 230.449,67.590 231.314,67.580 232.328 C 67.569 233.412,64.331 237.716,62.737 238.766 C 61.895 239.320,60.316 240.432,59.228 241.237 C 57.117 242.799,54.774 243.516,50.267 243.978 C 44.432 244.577,42.695 248.184,42.058 261.034 C 41.874 264.733,41.581 269.310,41.406 271.207 C 40.882 276.896,40.637 286.898,40.955 289.598 C 41.715 296.040,40.527 298.429,36.737 298.079 C 33.690 297.798,33.201 297.483,31.246 294.542 C 27.373 288.716,27.098 287.246,29.311 284.192 C 30.522 282.520,30.941 280.001,31.211 272.759 C 31.608 262.128,32.004 259.523,33.999 254.404 C 34.981 251.886,35.172 250.949,35.172 248.670 C 35.172 245.436,35.075 245.321,32.058 245.002 L 29.807 244.763 24.300 247.469 C 21.271 248.956,18.204 250.540,17.483 250.987 C 16.312 251.715,15.932 251.775,13.889 251.556 C 10.886 251.235,10.815 251.198,9.803 249.471 C 7.010 244.706,8.460 240.758,14.113 237.737 C 15.739 236.868,17.731 235.767,18.540 235.291 C 21.186 233.733,30.565 232.766,43.176 232.752 C 50.016 232.744,51.646 232.534,57.586 230.898 C 59.957 230.245,62.129 229.767,62.414 229.836 C 62.698 229.904,63.689 230.068,64.615 230.199 M225.277 230.207 C 226.642 230.510,228.690 231.147,229.828 231.622 C 230.966 232.097,232.502 232.737,233.242 233.043 C 240.648 236.109,245.867 247.464,242.621 253.448 C 241.429 255.645,237.921 259.629,235.043 262.052 C 232.219 264.430,232.206 264.450,231.838 266.617 C 231.387 269.274,231.426 269.328,234.645 270.502 C 238.015 271.731,242.137 275.283,244.244 278.773 C 245.594 281.008,245.802 281.196,247.379 281.595 C 249.361 282.098,249.831 282.508,250.288 284.138 L 250.627 285.345 250.659 284.295 C 250.715 282.385,252.098 272.966,252.623 270.916 C 253.231 268.543,252.389 265.723,249.942 261.937 C 248.528 259.749,248.516 259.536,249.659 256.552 C 251.047 252.927,257.163 252.420,261.768 255.547 C 265.170 257.857,266.066 258.813,266.887 261.009 C 267.856 263.601,268.844 264.629,269.388 263.614 C 270.391 261.742,273.150 259.578,274.252 259.799 C 279.507 260.850,280.317 263.168,277.926 270.305 C 276.894 273.385,276.880 273.513,277.316 275.952 L 277.762 278.448 280.242 278.549 L 282.722 278.650 283.122 277.170 C 284.389 272.476,284.913 271.029,285.935 269.408 C 286.559 268.418,287.678 266.634,288.423 265.442 C 291.826 259.997,295.176 257.230,299.625 256.191 C 305.520 254.815,306.084 253.668,307.246 240.690 C 307.759 234.950,308.439 232.015,309.481 231.036 L 310.306 230.261 312.742 230.858 C 314.707 231.339,315.207 231.598,315.326 232.193 C 315.788 234.498,315.733 237.455,315.136 242.472 C 313.064 259.859,312.485 276.252,313.815 279.808 C 314.763 282.340,314.785 282.343,317.484 280.418 L 319.827 278.746 320.708 275.494 C 321.660 271.978,322.022 271.160,323.438 269.310 C 323.947 268.647,324.954 267.117,325.677 265.911 C 328.851 260.618,332.879 257.406,337.878 256.182 C 343.023 254.922,343.280 254.438,344.295 244.138 C 345.554 231.358,345.688 231.066,350.729 230.164 C 353.639 229.643,354.095 234.054,352.582 248.103 C 350.470 267.727,349.981 277.182,350.965 279.406 L 351.685 281.034 354.119 281.034 C 359.822 281.034,364.087 271.563,360.019 267.931 C 356.725 264.990,356.071 260.448,358.612 258.152 C 360.379 256.556,361.115 256.374,365.690 256.404 C 370.795 256.438,372.239 257.225,373.773 260.812 C 374.167 261.732,374.809 262.892,375.199 263.388 C 376.045 264.463,375.951 265.272,374.458 269.761 C 372.819 274.689,373.154 280.153,375.000 278.621 C 375.284 278.385,375.517 277.934,375.517 277.620 C 375.517 276.581,377.866 272.128,378.703 271.579 C 379.225 271.237,379.821 270.189,380.334 268.710 C 382.119 263.564,382.803 262.669,386.173 261.077 C 388.727 259.869,389.093 259.980,390.760 262.461 C 392.232 264.653,391.176 279.395,389.132 285.189 C 388.086 288.153,387.190 292.241,386.344 297.899 C 385.447 303.904,384.969 306.073,383.793 309.483 C 382.818 312.309,381.834 318.172,381.360 323.966 C 381.052 327.738,380.802 329.095,380.219 330.172 L 379.472 331.552 376.822 331.652 C 373.382 331.782,372.070 330.763,370.370 326.640 C 368.205 321.391,367.900 319.901,368.423 317.137 C 368.922 314.497,368.841 314.602,372.639 311.684 C 374.517 310.240,374.766 309.894,375.303 307.982 C 376.807 302.621,376.124 295.480,374.234 296.811 C 372.956 297.711,371.804 298.026,368.822 298.289 C 365.074 298.620,364.455 298.413,362.334 296.120 C 360.435 294.066,358.808 293.735,354.162 294.456 C 351.240 294.909,350.211 294.402,348.167 291.502 L 347.109 290.000 344.801 290.000 C 342.131 290.000,342.100 290.029,340.552 293.966 C 340.031 295.293,339.379 296.728,339.105 297.153 C 338.341 298.340,333.383 302.118,332.855 301.915 C 332.598 301.817,331.502 301.484,330.418 301.176 C 328.027 300.496,326.236 298.896,325.040 296.370 C 323.867 293.892,320.439 292.333,318.545 293.416 C 315.441 295.189,314.024 295.034,311.643 292.657 C 310.656 291.671,306.301 288.966,305.702 288.966 C 305.502 288.966,304.855 290.310,302.651 295.304 C 301.857 297.103,297.232 301.726,296.228 301.722 C 292.580 301.709,290.519 300.629,288.526 297.689 C 287.811 296.633,286.779 295.206,286.234 294.517 C 285.689 293.829,284.776 292.419,284.204 291.385 C 282.792 288.830,282.700 288.859,281.262 292.317 C 279.481 296.601,278.845 297.514,277.138 298.246 C 273.668 299.734,272.403 299.460,270.117 296.724 L 268.819 295.172 266.533 295.172 L 264.246 295.172 262.782 296.909 C 260.486 299.632,260.111 299.794,257.246 299.311 C 253.426 298.667,252.378 297.236,251.055 290.862 C 250.701 289.155,250.396 287.926,250.378 288.131 C 250.294 289.068,248.070 291.815,246.920 292.402 C 246.220 292.759,245.230 293.653,244.720 294.389 C 239.389 302.081,220.365 307.074,215.109 302.159 C 213.811 300.946,213.671 298.893,214.151 288.103 C 214.370 283.172,214.564 278.750,214.583 278.276 C 214.601 277.802,214.186 275.553,213.659 273.278 L 212.701 269.143 213.390 267.416 C 215.321 262.579,218.446 246.975,217.720 245.799 C 216.430 243.713,211.583 242.860,206.429 243.813 C 200.576 244.895,198.131 236.197,203.532 233.504 C 210.841 229.859,218.492 228.699,225.277 230.207 M226.034 244.196 C 224.586 244.997,223.783 245.976,223.981 246.701 C 225.473 252.163,227.131 252.657,229.919 248.470 L 231.668 245.844 229.886 244.822 C 227.978 243.728,227.130 243.590,226.034 244.196 M295.608 272.516 C 295.032 273.124,294.323 274.092,294.034 274.667 C 293.744 275.243,293.113 275.925,292.631 276.183 C 290.646 277.246,289.786 282.965,291.158 285.983 L 291.762 287.310 292.882 285.465 C 294.062 283.521,295.363 281.570,296.664 279.794 C 297.723 278.348,298.830 273.254,298.240 272.543 C 297.272 271.376,296.695 271.370,295.608 272.516 M332.558 272.470 C 332.163 272.913,331.414 274.169,330.894 275.261 C 330.373 276.352,329.660 277.399,329.309 277.587 C 327.790 278.400,327.106 284.712,328.296 286.935 C 328.665 287.624,328.747 287.565,329.696 285.903 C 330.250 284.933,331.299 283.745,332.026 283.263 C 333.304 282.418,335.172 278.819,335.172 277.205 C 335.172 276.910,335.558 275.907,336.029 274.976 C 337.317 272.433,334.440 270.357,332.558 272.470 M222.134 277.344 C 220.730 278.839,221.536 288.587,223.285 291.267 C 224.606 293.290,228.059 293.056,231.928 290.681 C 237.863 287.038,237.214 287.672,237.022 285.707 C 236.733 282.745,236.675 282.656,233.602 280.517 C 227.614 276.348,228.038 276.552,225.336 276.552 C 223.218 276.552,222.776 276.661,222.134 277.344 " stroke="none" fill="#ffffff" fill-rule="evenodd"></path><path id="path1" d="M368.736 27.782 C 364.945 28.241,363.402 28.558,358.276 29.926 C 355.661 30.625,348.966 31.502,343.276 31.892 C 338.567 32.214,335.646 32.734,332.360 33.832 C 328.595 35.090,325.370 35.730,320.345 36.214 C 313.458 36.877,309.298 37.598,306.531 38.608 C 303.893 39.571,297.854 40.774,293.448 41.214 C 290.839 41.475,286.138 42.598,284.837 43.271 C 283.252 44.091,279.757 44.839,274.201 45.549 C 268.242 46.311,265.368 46.952,263.390 47.961 C 261.699 48.823,258.442 49.497,252.765 50.159 C 247.698 50.749,244.937 51.379,242.008 52.612 C 239.818 53.534,236.165 54.241,230.517 54.836 C 225.612 55.352,222.553 55.996,220.088 57.028 C 218.036 57.887,213.955 58.679,208.276 59.318 C 203.158 59.894,199.350 60.664,197.251 61.547 C 194.885 62.544,191.361 63.225,184.828 63.951 C 178.356 64.669,176.561 65.030,173.579 66.212 C 171.158 67.171,165.801 68.143,158.484 68.951 C 155.392 69.292,153.725 69.746,148.971 71.538 C 148.121 71.859,144.630 72.495,141.213 72.952 C 133.419 73.994,131.677 74.356,129.311 75.422 C 126.446 76.712,125.829 76.847,119.310 77.608 C 113.013 78.344,109.149 79.196,106.893 80.347 C 104.473 81.581,84.233 83.382,81.725 82.586 C 80.449 82.182,75.946 83.395,74.716 84.475 C 74.108 85.010,72.245 86.095,70.577 86.888 C 68.909 87.680,67.454 88.563,67.345 88.849 C 67.235 89.136,65.576 90.141,63.659 91.083 C 61.741 92.026,59.707 93.266,59.138 93.840 C 58.569 94.414,56.982 95.318,55.612 95.850 C 54.055 96.455,52.479 97.394,51.411 98.354 C 50.377 99.284,48.864 100.196,47.577 100.665 C 46.408 101.091,44.885 101.947,44.191 102.567 C 42.624 103.968,41.917 104.341,38.842 105.387 C 37.494 105.845,35.846 106.659,35.178 107.195 C 33.519 108.528,32.314 109.110,29.450 109.960 C 28.105 110.360,26.336 111.170,25.521 111.761 C 23.442 113.267,22.427 113.633,17.648 114.601 C 14.795 115.179,12.860 115.784,11.617 116.485 C 10.610 117.053,8.695 117.843,7.361 118.240 C 6.027 118.638,4.291 119.429,3.505 119.999 C 2.670 120.604,1.643 121.034,1.037 121.034 L 0.000 121.034 0.000 125.310 L 0.000 129.586 1.466 129.756 C 4.295 130.086,10.653 131.339,12.987 132.027 C 17.298 133.298,19.826 133.566,24.645 133.264 C 27.116 133.110,30.302 133.013,31.724 133.049 C 35.256 133.138,38.925 132.582,41.296 131.598 C 42.388 131.145,44.436 130.669,45.862 130.538 C 52.853 129.894,57.672 128.959,61.087 127.582 C 65.656 125.740,70.919 124.766,71.561 125.643 C 72.360 126.737,72.504 130.306,72.247 142.651 C 71.890 159.833,70.334 158.413,89.260 158.175 C 108.294 157.936,115.878 157.276,122.333 155.294 C 124.558 154.611,128.629 153.691,131.379 153.250 C 136.853 152.372,140.032 151.459,142.408 150.082 C 145.469 148.309,153.784 147.227,154.304 148.534 C 155.301 151.041,156.154 180.122,155.521 190.066 C 155.087 196.897,155.209 197.518,157.274 198.989 C 158.968 200.195,164.358 198.547,166.311 196.225 C 166.766 195.685,168.079 194.776,169.231 194.205 C 170.382 193.633,172.179 192.534,173.224 191.762 C 174.269 190.990,176.023 189.933,177.121 189.413 C 178.220 188.893,179.673 187.913,180.350 187.236 C 181.027 186.559,182.118 185.794,182.773 185.536 C 184.791 184.743,187.386 183.188,188.280 182.237 C 188.747 181.739,190.039 180.848,191.149 180.256 C 192.259 179.664,193.554 178.674,194.025 178.055 C 194.497 177.437,195.700 176.470,196.698 175.907 C 197.697 175.343,198.890 174.435,199.349 173.889 C 199.809 173.342,201.346 172.147,202.765 171.232 C 204.184 170.317,205.989 168.979,206.776 168.257 C 207.563 167.536,208.827 166.630,209.584 166.243 C 210.341 165.857,211.481 164.936,212.118 164.197 C 212.755 163.457,213.925 162.523,214.718 162.121 C 215.511 161.719,216.674 160.759,217.304 159.988 C 217.933 159.217,219.058 158.267,219.802 157.876 C 220.547 157.485,221.944 156.436,222.906 155.544 C 223.868 154.653,225.509 153.325,226.552 152.594 C 227.595 151.863,229.069 150.687,229.828 149.982 C 230.586 149.277,231.856 148.299,232.650 147.808 C 233.443 147.318,234.530 146.364,235.064 145.689 C 235.598 145.014,236.848 144.000,237.843 143.436 C 238.837 142.872,240.001 141.875,240.429 141.220 C 240.857 140.565,241.768 139.776,242.454 139.466 C 243.140 139.156,244.535 138.140,245.554 137.208 C 246.573 136.275,248.340 134.949,249.480 134.260 C 250.619 133.570,252.250 132.354,253.103 131.557 C 253.957 130.761,255.385 129.694,256.276 129.187 C 257.168 128.681,258.152 127.835,258.463 127.309 C 258.775 126.782,259.872 125.909,260.903 125.370 C 261.933 124.830,263.152 123.943,263.611 123.397 C 264.070 122.851,265.657 121.608,267.137 120.634 C 268.617 119.660,270.404 118.348,271.108 117.719 C 271.813 117.090,273.132 116.196,274.039 115.733 C 274.947 115.269,276.233 114.320,276.897 113.625 C 277.560 112.929,278.639 112.134,279.293 111.858 C 280.324 111.424,283.990 108.861,284.483 108.229 C 284.578 108.108,285.667 107.453,286.904 106.775 C 288.140 106.096,289.692 104.983,290.352 104.301 C 291.012 103.619,292.200 102.774,292.992 102.424 C 293.784 102.073,295.103 101.173,295.923 100.423 C 296.743 99.674,298.580 98.424,300.006 97.647 C 301.432 96.869,303.139 95.672,303.799 94.986 C 304.460 94.301,305.811 93.355,306.803 92.883 C 307.795 92.412,309.036 91.515,309.562 90.892 C 310.087 90.268,311.624 89.182,312.977 88.478 C 314.330 87.774,316.240 86.513,317.222 85.675 C 318.204 84.836,319.520 83.907,320.147 83.610 C 321.365 83.032,322.416 82.156,323.160 81.098 C 323.414 80.738,324.302 80.097,325.135 79.673 C 325.968 79.249,327.365 78.245,328.239 77.443 C 329.113 76.640,330.836 75.305,332.069 74.475 C 333.302 73.646,334.931 72.402,335.690 71.711 C 336.448 71.020,337.782 70.049,338.653 69.554 C 339.524 69.060,340.643 68.122,341.140 67.471 C 341.636 66.820,342.884 65.813,343.912 65.233 C 344.940 64.653,346.148 63.730,346.597 63.182 C 347.046 62.635,348.112 61.784,348.966 61.292 C 349.819 60.800,351.502 59.598,352.707 58.621 C 353.911 57.644,355.733 56.309,356.757 55.654 C 357.780 54.999,358.875 54.070,359.190 53.590 C 359.505 53.109,360.495 52.345,361.389 51.891 C 362.284 51.438,363.618 50.385,364.353 49.551 C 365.088 48.717,366.218 47.762,366.864 47.429 C 367.509 47.096,369.004 46.025,370.185 45.050 C 371.365 44.074,373.295 42.737,374.472 42.079 C 375.650 41.421,376.947 40.412,377.355 39.838 C 377.764 39.263,378.836 37.977,379.738 36.979 C 381.571 34.953,381.590 34.880,380.852 32.715 C 379.200 27.865,376.641 26.824,368.736 27.782 M344.344 42.872 L 345.278 43.676 343.839 44.252 C 343.047 44.568,341.976 44.829,341.459 44.832 C 338.909 44.843,335.390 46.359,334.990 47.617 C 334.698 48.538,334.103 48.793,329.445 50.001 C 326.411 50.787,324.864 51.392,323.496 52.324 C 322.142 53.248,320.628 53.843,317.836 54.552 C 315.740 55.083,313.335 55.945,312.491 56.466 C 309.863 58.090,309.578 58.206,305.514 59.303 C 303.047 59.969,300.816 60.824,299.601 61.567 C 298.197 62.427,296.412 63.056,293.222 63.814 C 289.915 64.600,288.225 65.205,286.552 66.201 C 284.918 67.174,283.236 67.786,280.345 68.459 C 278.164 68.967,275.681 69.777,274.828 70.258 C 271.740 71.999,270.806 72.354,267.414 73.081 C 265.517 73.487,263.267 74.190,262.414 74.644 C 258.827 76.549,257.901 76.880,253.816 77.718 C 250.771 78.343,248.724 78.995,246.747 79.970 C 244.582 81.039,242.902 81.543,239.162 82.245 C 236.520 82.742,233.804 83.432,233.127 83.779 C 232.450 84.126,231.276 84.732,230.517 85.126 C 229.759 85.519,226.845 86.295,224.042 86.850 C 220.359 87.579,218.254 88.197,216.455 89.076 C 213.499 90.522,212.367 90.838,207.586 91.552 C 202.942 92.245,201.702 92.566,198.966 93.785 C 196.833 94.735,193.371 95.499,185.690 96.717 C 183.564 97.054,181.448 97.641,180.172 98.247 C 176.853 99.825,166.113 101.723,160.496 101.724 C 158.608 101.724,158.306 101.828,157.392 102.789 C 156.835 103.374,155.371 104.447,154.138 105.171 C 152.905 105.896,151.628 106.949,151.300 107.510 C 150.950 108.109,149.899 108.939,148.758 109.516 C 147.689 110.057,146.439 110.990,145.982 111.590 C 145.524 112.190,144.149 113.266,142.927 113.981 C 141.704 114.696,139.823 116.025,138.748 116.935 C 137.672 117.845,136.387 118.678,135.893 118.786 C 134.664 119.056,131.379 120.965,131.379 121.409 C 131.379 121.607,129.789 122.521,127.845 123.440 C 125.901 124.360,123.880 125.581,123.354 126.155 C 122.757 126.805,121.693 127.402,120.528 127.741 C 117.665 128.573,115.735 129.485,114.447 130.615 C 113.667 131.299,112.103 132.004,109.765 132.725 C 107.289 133.489,105.834 134.159,104.828 135.000 C 103.512 136.099,100.204 137.402,96.980 138.092 C 96.362 138.224,94.911 138.964,93.754 139.736 C 91.578 141.189,88.817 142.043,83.966 142.761 C 82.638 142.958,81.307 143.195,81.008 143.288 C 80.172 143.548,79.686 140.736,80.025 137.586 C 80.177 136.164,80.312 132.100,80.324 128.556 C 80.338 124.232,80.509 121.396,80.844 119.935 C 81.589 116.693,82.690 107.956,82.923 103.448 C 83.322 95.707,84.223 92.416,85.943 92.412 C 87.371 92.409,94.960 91.024,97.238 90.351 C 98.473 89.987,101.765 89.451,104.554 89.161 C 110.563 88.536,114.391 87.738,119.310 86.088 C 121.302 85.420,124.863 84.544,127.224 84.141 C 132.334 83.269,141.437 81.212,142.352 80.723 C 142.709 80.532,145.546 80.050,148.656 79.652 C 155.834 78.734,162.513 77.436,165.460 76.387 C 167.032 75.828,170.149 75.283,175.322 74.663 C 180.619 74.028,184.466 73.350,188.157 72.400 C 191.087 71.646,195.462 70.812,198.007 70.523 C 205.973 69.617,209.537 68.960,213.181 67.725 C 215.400 66.973,218.464 66.279,221.379 65.869 C 227.454 65.014,232.422 63.933,235.024 62.901 C 236.327 62.385,239.709 61.676,243.989 61.023 C 251.532 59.871,253.965 59.321,257.031 58.076 C 258.151 57.621,260.403 57.085,262.034 56.886 C 268.379 56.113,273.419 55.113,276.724 53.974 C 279.059 53.169,281.842 52.554,285.345 52.071 C 292.603 51.069,297.694 50.083,299.703 49.292 C 301.896 48.427,303.557 48.061,307.414 47.592 C 314.124 46.776,319.298 45.774,322.759 44.622 C 329.186 42.483,342.624 41.393,344.344 42.872 M338.448 57.414 C 338.448 57.841,336.348 58.070,335.571 57.729 C 335.124 57.532,335.224 57.422,336.034 57.222 C 337.371 56.891,338.448 56.977,338.448 57.414 M333.788 61.040 C 333.793 62.193,333.705 62.283,331.983 62.888 C 330.647 63.357,329.623 64.092,328.076 65.692 C 326.923 66.884,325.204 68.253,324.256 68.733 C 323.308 69.214,322.111 70.159,321.596 70.835 C 321.072 71.521,319.844 72.449,318.812 72.937 C 317.796 73.418,316.552 74.353,316.046 75.015 C 315.541 75.678,314.245 76.670,313.167 77.220 C 312.089 77.770,310.431 78.929,309.483 79.796 C 308.534 80.664,306.873 81.846,305.790 82.423 C 304.708 83.001,303.481 83.952,303.064 84.538 C 302.633 85.143,301.507 85.956,300.458 86.420 C 299.441 86.870,297.952 87.835,297.149 88.566 C 296.347 89.296,294.603 90.526,293.276 91.298 C 291.948 92.069,290.319 93.272,289.655 93.971 C 288.991 94.669,287.672 95.593,286.724 96.024 C 285.776 96.455,284.534 97.307,283.966 97.919 C 283.397 98.530,282.155 99.425,281.207 99.909 C 279.277 100.892,277.550 102.118,276.090 103.539 C 275.551 104.063,274.270 104.890,273.242 105.376 C 272.215 105.862,270.973 106.786,270.482 107.430 C 269.978 108.091,268.764 108.978,267.696 109.467 C 266.655 109.944,265.059 111.003,264.148 111.822 C 263.238 112.640,261.577 113.798,260.458 114.395 C 259.339 114.991,257.868 116.098,257.189 116.854 C 256.510 117.610,255.224 118.572,254.332 118.992 C 253.439 119.411,252.293 120.285,251.785 120.933 C 251.278 121.581,250.067 122.505,249.096 122.986 C 248.125 123.468,246.372 124.697,245.201 125.719 C 244.029 126.740,242.341 127.997,241.449 128.510 C 240.557 129.024,239.314 130.032,238.686 130.750 C 238.058 131.468,236.876 132.351,236.060 132.712 C 235.244 133.073,234.128 133.934,233.581 134.626 C 233.034 135.317,231.788 136.336,230.812 136.890 C 229.836 137.443,228.701 138.369,228.290 138.945 C 227.879 139.522,226.506 140.666,225.237 141.487 C 223.969 142.307,222.388 143.558,221.724 144.267 C 221.060 144.975,219.716 146.088,218.737 146.741 C 217.758 147.394,216.489 148.519,215.916 149.242 C 215.343 149.965,214.144 150.933,213.251 151.392 C 212.357 151.852,211.299 152.734,210.899 153.352 C 210.485 153.993,209.372 154.883,208.311 155.424 C 207.288 155.945,206.046 156.882,205.553 157.506 C 205.059 158.131,203.814 159.119,202.786 159.702 C 201.758 160.285,200.129 161.502,199.165 162.407 C 198.202 163.312,196.535 164.611,195.460 165.294 C 194.386 165.977,193.169 167.009,192.757 167.589 C 192.344 168.168,191.104 169.098,190.000 169.655 C 188.896 170.212,187.661 171.134,187.256 171.704 C 186.846 172.280,185.570 173.193,184.380 173.762 C 183.204 174.325,181.388 175.518,180.345 176.413 C 179.302 177.307,177.750 178.343,176.897 178.714 C 176.043 179.084,174.724 179.982,173.966 180.710 C 168.651 185.803,165.500 185.004,165.058 178.448 C 164.600 171.659,164.092 166.986,163.633 165.345 C 161.830 158.893,161.214 120.292,162.819 114.341 C 163.338 112.419,163.997 112.079,170.000 110.642 C 171.612 110.256,174.017 109.495,175.345 108.951 C 176.990 108.277,179.844 107.620,184.310 106.888 C 188.447 106.211,191.625 105.496,192.931 104.948 C 196.365 103.510,197.670 103.181,202.964 102.421 C 208.313 101.653,211.029 100.886,212.751 99.660 C 213.437 99.172,215.493 98.575,218.762 97.914 C 222.228 97.214,224.706 96.479,226.952 95.487 C 228.963 94.598,231.661 93.761,234.138 93.259 C 238.520 92.370,241.024 91.576,243.665 90.237 C 244.630 89.748,246.811 89.107,248.512 88.812 C 252.209 88.171,256.241 86.849,257.949 85.718 C 258.634 85.266,260.461 84.638,262.025 84.319 C 265.617 83.587,269.319 82.332,271.284 81.180 C 272.125 80.687,274.624 79.829,276.838 79.274 C 279.051 78.718,282.336 77.575,284.138 76.733 C 285.958 75.882,288.596 74.970,290.073 74.680 C 291.658 74.369,293.888 73.578,295.591 72.722 C 297.162 71.931,300.143 70.831,302.215 70.276 C 306.191 69.210,307.433 68.696,309.177 67.391 C 309.767 66.950,310.699 66.488,311.246 66.365 C 314.328 65.673,318.443 64.247,320.862 63.031 C 323.703 61.604,327.093 60.564,330.252 60.149 C 331.245 60.019,332.330 59.713,332.664 59.469 C 333.440 58.901,333.781 59.377,333.788 61.040 M72.479 98.292 C 73.211 99.274,73.384 103.975,72.910 110.030 C 72.613 113.832,71.988 114.798,69.394 115.462 C 68.458 115.702,67.151 116.266,66.489 116.716 C 64.852 117.829,62.454 118.459,56.552 119.326 C 53.802 119.731,50.466 120.441,49.138 120.905 C 44.756 122.435,43.458 122.703,38.296 123.136 C 32.889 123.589,27.712 123.253,24.906 122.265 L 23.621 121.812 25.172 121.408 C 29.810 120.203,31.294 119.607,32.826 118.334 C 33.976 117.379,35.110 116.823,36.743 116.413 C 39.359 115.756,41.952 114.533,42.858 113.530 C 43.198 113.154,44.802 112.334,46.424 111.707 C 48.323 110.973,49.944 110.059,50.979 109.140 C 51.863 108.355,53.440 107.369,54.483 106.948 C 55.526 106.527,57.233 105.563,58.276 104.805 C 59.319 104.048,61.145 102.965,62.333 102.398 C 63.522 101.831,65.080 100.838,65.796 100.191 C 68.584 97.672,71.416 96.868,72.479 98.292 M154.488 126.300 C 154.295 129.101,154.138 132.361,154.138 133.544 L 154.138 135.694 151.254 137.158 C 149.668 137.962,148.205 138.621,148.005 138.621 C 147.804 138.621,147.199 138.991,146.661 139.443 C 145.200 140.673,143.548 141.255,138.701 142.250 C 136.217 142.760,133.187 143.649,131.724 144.297 C 125.621 147.002,103.778 148.824,102.814 146.708 C 101.965 144.844,102.097 144.726,106.429 143.473 C 107.784 143.081,109.724 142.194,110.740 141.501 C 111.775 140.794,113.798 139.886,115.345 139.433 C 116.862 138.989,119.190 138.062,120.517 137.373 C 121.845 136.684,124.384 135.377,126.159 134.468 C 127.934 133.558,129.796 132.425,130.297 131.949 C 130.797 131.474,132.029 130.762,133.034 130.368 C 135.861 129.260,137.355 128.424,138.623 127.239 C 139.263 126.641,140.569 125.756,141.524 125.272 C 142.479 124.788,143.962 123.816,144.820 123.111 C 146.970 121.346,148.609 120.414,150.601 119.822 C 151.533 119.545,152.671 118.968,153.130 118.539 L 153.966 117.759 154.401 119.483 C 154.738 120.812,154.757 122.372,154.488 126.300 M189.349 227.385 C 186.370 229.583,184.415 234.147,182.725 242.853 C 182.079 246.179,181.788 252.026,182.233 252.745 C 182.930 253.872,182.112 261.935,181.151 263.406 C 180.213 264.844,179.976 266.247,179.662 272.241 C 179.148 282.035,178.813 282.759,174.797 282.759 C 172.171 282.759,166.335 285.176,164.968 286.831 C 164.001 288.001,159.728 288.882,156.265 288.625 C 153.001 288.383,152.608 287.989,153.135 285.495 C 153.788 282.405,153.553 282.543,158.654 282.266 C 165.376 281.900,166.281 281.419,171.176 275.600 C 175.055 270.990,175.654 269.820,175.806 266.552 C 176.100 260.242,171.571 256.007,165.803 257.198 C 162.176 257.947,156.489 261.289,154.922 263.591 C 154.310 264.490,153.457 265.651,153.025 266.170 C 152.594 266.690,151.643 268.355,150.911 269.871 C 149.760 272.256,149.373 272.737,148.035 273.447 C 147.185 273.898,146.131 274.793,145.695 275.436 C 144.662 276.956,144.704 277.069,143.452 269.467 C 142.360 262.838,141.782 260.145,140.802 257.109 L 140.259 255.425 139.096 257.281 C 137.333 260.097,136.156 264.097,136.422 266.363 C 136.549 267.443,136.458 268.952,136.202 270.019 L 135.767 271.835 135.253 270.853 C 134.869 270.121,134.783 269.158,134.914 267.062 C 135.297 260.912,134.215 258.255,130.544 256.336 C 129.581 255.832,128.289 255.036,127.672 254.566 C 125.821 253.154,121.873 252.742,120.186 253.785 C 116.751 255.907,117.039 263.185,120.723 267.370 L 122.147 268.988 121.900 271.297 C 121.601 274.087,119.531 278.481,117.840 279.915 C 117.226 280.436,115.948 281.682,114.998 282.683 C 113.557 284.204,112.932 284.593,111.205 285.041 C 110.068 285.336,108.876 285.812,108.556 286.098 C 107.191 287.321,107.113 282.490,108.413 277.241 C 109.624 272.350,109.619 269.513,108.394 267.721 C 107.890 266.983,106.968 265.264,106.344 263.901 C 104.923 260.796,103.218 258.888,100.872 257.778 L 99.046 256.915 96.963 257.618 C 93.758 258.700,87.507 264.417,85.694 267.924 C 85.412 268.467,84.709 269.428,84.130 270.059 C 83.551 270.691,82.624 272.008,82.070 272.987 C 81.026 274.831,77.506 277.790,74.628 279.243 C 73.855 279.634,71.815 281.128,70.095 282.563 C 66.480 285.579,66.430 285.594,65.579 283.879 C 64.690 282.089,65.272 278.127,66.986 274.297 C 71.279 264.707,68.613 259.060,59.166 257.729 C 58.234 257.598,56.468 257.036,55.243 256.480 C 52.515 255.244,51.792 255.440,49.421 258.063 C 45.064 262.882,45.333 266.248,50.590 272.701 C 54.309 277.266,54.088 276.643,54.088 282.552 C 54.088 290.141,54.813 293.082,57.549 296.600 C 61.828 302.104,67.233 301.587,73.260 295.100 L 75.858 292.303 77.326 292.741 C 79.863 293.498,80.536 294.029,81.683 296.181 C 83.896 300.334,88.295 301.655,91.667 299.180 C 93.417 297.895,97.155 294.082,98.144 292.572 C 98.450 292.106,98.825 291.724,98.977 291.724 C 99.576 291.724,103.221 295.390,104.301 297.078 C 107.372 301.878,112.396 301.645,115.683 296.552 C 116.852 294.740,117.584 294.039,119.504 292.894 L 121.879 291.478 122.482 292.825 C 126.104 300.915,134.635 302.010,138.647 294.901 C 139.222 293.882,140.375 292.210,141.210 291.185 C 142.665 289.398,143.733 286.818,144.326 283.657 C 144.698 281.678,144.924 282.115,146.260 287.380 C 147.522 292.359,148.336 294.049,151.363 297.984 C 152.842 299.908,158.464 302.170,161.207 301.947 C 164.891 301.646,168.752 300.258,172.143 298.014 C 174.349 296.554,176.897 289.718,176.897 285.260 C 176.897 283.416,176.899 283.411,177.663 283.946 C 178.093 284.247,179.142 284.483,180.053 284.483 L 181.677 284.483 182.235 287.155 C 183.249 292.005,183.475 292.839,184.129 294.120 C 185.009 295.846,187.069 297.808,189.089 298.845 L 190.764 299.705 192.998 298.916 C 198.022 297.142,203.016 286.538,201.524 280.810 C 200.631 277.383,200.062 276.915,198.635 278.433 C 196.335 280.882,193.193 281.679,191.055 280.357 C 190.508 280.019,190.696 274.762,191.480 268.448 C 191.787 265.983,192.360 260.319,192.754 255.862 C 193.632 245.925,194.913 238.831,196.054 237.586 C 196.755 236.822,196.794 236.627,196.399 235.862 C 196.153 235.388,195.842 234.385,195.706 233.633 C 195.356 231.699,194.650 230.481,192.666 228.382 C 190.659 226.260,190.812 226.306,189.349 227.385 M191.943 229.052 C 194.839 232.159,195.132 234.059,193.785 240.995 C 193.403 242.965,192.774 247.465,192.388 250.995 C 192.003 254.525,191.474 259.353,191.213 261.724 C 190.953 264.095,190.481 267.897,190.165 270.172 C 189.424 275.513,189.550 282.456,190.403 283.310 C 191.264 284.170,195.012 283.074,197.848 281.133 C 200.457 279.347,200.168 279.342,200.681 281.177 C 201.495 284.083,200.150 288.569,196.616 294.730 C 192.395 302.092,185.425 298.373,183.296 287.623 C 182.793 285.083,181.978 282.057,181.486 280.899 C 180.442 278.441,180.539 276.334,182.214 265.172 C 183.229 258.410,183.374 255.537,182.953 250.509 C 182.415 244.080,185.638 232.969,189.078 229.397 C 190.767 227.641,190.643 227.656,191.943 229.052 M57.586 230.898 C 51.646 232.534,50.016 232.744,43.176 232.752 C 30.565 232.766,21.186 233.733,18.540 235.291 C 17.731 235.767,15.739 236.868,14.113 237.737 C 8.460 240.758,7.010 244.706,9.803 249.471 C 10.815 251.198,10.886 251.235,13.889 251.556 C 15.932 251.775,16.312 251.715,17.483 250.987 C 18.204 250.540,21.271 248.956,24.300 247.469 L 29.807 244.763 32.058 245.002 C 35.075 245.321,35.172 245.436,35.172 248.670 C 35.172 250.949,34.981 251.886,33.999 254.404 C 32.004 259.523,31.608 262.128,31.211 272.759 C 30.941 280.001,30.522 282.520,29.311 284.192 C 27.098 287.246,27.373 288.716,31.246 294.542 C 33.201 297.483,33.690 297.798,36.737 298.079 C 40.527 298.429,41.715 296.040,40.955 289.598 C 40.637 286.898,40.882 276.896,41.406 271.207 C 41.581 269.310,41.874 264.733,42.058 261.034 C 42.695 248.184,44.432 244.577,50.267 243.978 C 54.774 243.516,57.117 242.799,59.228 241.237 C 60.316 240.432,61.895 239.320,62.737 238.766 C 64.331 237.716,67.569 233.412,67.580 232.328 C 67.590 231.314,66.386 230.449,64.615 230.199 C 63.689 230.068,62.698 229.904,62.414 229.836 C 62.129 229.767,59.957 230.245,57.586 230.898 M212.241 230.227 C 209.918 230.724,206.617 231.966,203.532 233.504 C 198.131 236.197,200.576 244.895,206.429 243.813 C 211.583 242.860,216.430 243.713,217.720 245.799 C 218.446 246.975,215.321 262.579,213.390 267.416 L 212.701 269.143 213.659 273.278 C 214.186 275.553,214.601 277.802,214.583 278.276 C 214.564 278.750,214.370 283.172,214.151 288.103 C 213.671 298.893,213.811 300.946,215.109 302.159 C 220.365 307.074,239.389 302.081,244.720 294.389 C 245.230 293.653,246.220 292.759,246.920 292.402 C 248.070 291.815,250.294 289.068,250.378 288.131 C 250.396 287.926,250.701 289.155,251.055 290.862 C 252.378 297.236,253.426 298.667,257.246 299.311 C 260.111 299.794,260.486 299.632,262.782 296.909 L 264.246 295.172 266.533 295.172 L 268.819 295.172 270.117 296.724 C 273.991 301.359,278.193 299.697,281.262 292.317 C 282.700 288.859,282.792 288.830,284.204 291.385 C 284.776 292.419,285.689 293.829,286.234 294.517 C 286.779 295.206,287.811 296.633,288.526 297.689 C 290.519 300.629,292.580 301.709,296.228 301.722 C 297.232 301.726,301.857 297.103,302.651 295.304 C 304.855 290.310,305.502 288.966,305.702 288.966 C 306.301 288.966,310.656 291.671,311.643 292.657 C 314.024 295.034,315.441 295.189,318.545 293.416 C 320.439 292.333,323.867 293.892,325.040 296.370 C 326.236 298.896,328.027 300.496,330.418 301.176 C 331.502 301.484,332.598 301.817,332.855 301.915 C 333.383 302.118,338.341 298.340,339.105 297.153 C 339.379 296.728,340.031 295.293,340.552 293.966 C 342.100 290.029,342.131 290.000,344.801 290.000 L 347.109 290.000 348.167 291.502 C 350.211 294.402,351.240 294.909,354.162 294.456 C 358.808 293.735,360.435 294.066,362.334 296.120 C 364.455 298.413,365.074 298.620,368.822 298.289 C 371.804 298.026,372.956 297.711,374.234 296.811 C 376.124 295.480,376.807 302.621,375.303 307.982 C 374.766 309.894,374.517 310.240,372.639 311.684 C 368.841 314.602,368.922 314.497,368.423 317.137 C 367.900 319.901,368.205 321.391,370.370 326.640 C 372.070 330.763,373.382 331.782,376.822 331.652 L 379.472 331.552 380.219 330.172 C 380.802 329.095,381.052 327.738,381.360 323.966 C 381.834 318.172,382.818 312.309,383.793 309.483 C 384.969 306.073,385.447 303.904,386.344 297.899 C 387.190 292.241,388.086 288.153,389.132 285.189 C 389.900 283.012,391.722 270.007,391.723 266.690 C 391.725 260.504,387.817 258.646,383.325 262.698 C 382.511 263.432,381.368 265.730,380.334 268.710 C 379.821 270.189,379.225 271.237,378.703 271.579 C 377.866 272.128,375.517 276.581,375.517 277.620 C 375.517 277.934,375.284 278.385,375.000 278.621 C 373.154 280.153,372.819 274.689,374.458 269.761 C 375.951 265.272,376.045 264.463,375.199 263.388 C 374.809 262.892,374.167 261.732,373.773 260.812 C 372.239 257.225,370.795 256.438,365.690 256.404 C 361.115 256.374,360.379 256.556,358.612 258.152 C 356.071 260.448,356.725 264.990,360.019 267.931 C 364.087 271.563,359.822 281.034,354.119 281.034 L 351.685 281.034 350.965 279.406 C 349.981 277.182,350.470 267.727,352.582 248.103 C 354.095 234.054,353.639 229.643,350.729 230.164 C 345.688 231.066,345.554 231.358,344.295 244.138 C 343.280 254.438,343.023 254.922,337.878 256.182 C 332.879 257.406,328.851 260.618,325.677 265.911 C 324.954 267.117,323.947 268.647,323.438 269.310 C 322.022 271.160,321.660 271.978,320.708 275.494 L 319.827 278.746 317.484 280.418 C 314.785 282.343,314.763 282.340,313.815 279.808 C 312.485 276.252,313.064 259.859,315.136 242.472 C 315.733 237.455,315.788 234.498,315.326 232.193 C 315.207 231.598,314.707 231.339,312.742 230.858 L 310.306 230.261 309.481 231.036 C 308.439 232.015,307.759 234.950,307.246 240.690 C 306.084 253.668,305.520 254.815,299.625 256.191 C 295.176 257.230,291.826 259.997,288.423 265.442 C 287.678 266.634,286.559 268.418,285.935 269.408 C 284.913 271.029,284.389 272.476,283.122 277.170 L 282.722 278.650 280.242 278.549 L 277.762 278.448 277.316 275.952 C 276.880 273.513,276.894 273.385,277.926 270.305 C 280.317 263.168,279.507 260.850,274.252 259.799 C 273.150 259.578,270.391 261.742,269.388 263.614 C 268.844 264.629,267.856 263.601,266.887 261.009 C 264.250 253.957,251.879 250.756,249.659 256.552 C 248.516 259.536,248.528 259.749,249.942 261.937 C 252.389 265.723,253.231 268.543,252.623 270.916 C 252.098 272.966,250.715 282.385,250.659 284.295 L 250.627 285.345 250.288 284.138 C 249.831 282.508,249.361 282.098,247.379 281.595 C 245.802 281.196,245.594 281.008,244.244 278.773 C 242.137 275.283,238.015 271.731,234.645 270.502 C 231.426 269.328,231.387 269.274,231.838 266.617 C 232.206 264.450,232.219 264.430,235.043 262.052 C 244.628 253.981,246.049 246.675,239.665 238.288 C 237.533 235.487,235.874 234.133,233.242 233.043 C 232.502 232.737,230.966 232.097,229.828 231.622 C 225.131 229.661,217.663 229.069,212.241 230.227 M228.467 232.343 C 234.429 234.268,236.169 235.352,238.831 238.793 C 245.051 246.836,243.636 253.600,234.045 261.677 L 231.149 264.116 230.712 266.561 C 230.164 269.627,230.293 269.796,234.495 271.538 C 236.193 272.242,237.873 273.187,238.228 273.639 C 238.583 274.090,239.669 275.088,240.641 275.856 C 241.700 276.693,242.751 277.929,243.263 278.939 C 243.733 279.867,244.884 281.502,245.821 282.573 C 248.995 286.200,249.172 287.131,247.155 289.577 C 246.349 290.555,244.759 292.619,243.621 294.164 L 241.552 296.974 236.692 299.321 C 231.342 301.905,230.250 302.266,225.690 302.962 C 215.947 304.449,214.261 302.800,214.906 292.414 C 215.053 290.043,215.316 285.853,215.491 283.102 C 215.767 278.746,215.727 277.763,215.186 275.493 C 213.956 270.329,213.973 269.265,215.367 264.310 C 216.061 261.845,217.049 258.248,217.563 256.316 C 218.077 254.385,218.698 252.564,218.942 252.270 C 219.683 251.377,223.103 249.657,223.103 250.177 C 223.103 250.763,225.107 252.004,226.501 252.283 C 228.012 252.585,228.875 251.911,231.017 248.753 C 233.145 245.617,233.132 245.550,230.022 243.844 L 227.857 242.656 226.050 243.226 C 225.056 243.539,223.977 244.090,223.651 244.449 C 222.727 245.470,219.391 245.046,216.696 243.566 C 214.293 242.246,213.004 242.142,207.503 242.823 L 204.144 243.239 203.123 242.261 C 202.120 241.300,201.977 240.916,201.546 238.056 C 201.302 236.428,202.585 234.542,204.395 233.871 C 214.319 230.189,220.566 229.792,228.467 232.343 M64.983 231.599 C 66.300 232.048,66.525 232.229,66.077 232.480 C 65.444 232.834,64.138 235.211,64.138 236.007 C 64.138 236.673,62.921 237.819,61.355 238.626 C 60.678 238.975,59.464 239.813,58.657 240.487 C 56.938 241.923,54.721 242.663,50.749 243.127 C 43.401 243.984,41.764 246.939,41.212 260.345 C 41.008 265.299,40.757 269.213,39.963 279.776 C 39.632 284.186,39.641 285.907,40.010 288.693 C 40.397 291.623,40.392 292.517,39.975 294.607 L 39.483 297.069 36.897 296.962 C 34.405 296.858,34.269 296.808,33.176 295.582 C 32.087 294.361,28.537 287.691,28.753 287.272 C 28.811 287.160,29.416 286.138,30.098 285.000 C 31.495 282.667,31.812 280.472,32.263 270.000 C 32.558 263.138,33.125 259.646,34.423 256.687 C 35.908 253.302,36.255 251.603,36.138 248.312 C 36.006 244.628,35.559 244.197,31.724 244.059 L 29.138 243.966 22.414 247.306 L 15.690 250.647 13.689 250.351 C 11.286 249.995,11.044 249.815,10.018 247.625 L 9.219 245.918 9.837 243.633 C 10.598 240.822,11.002 240.459,16.704 237.458 C 22.662 234.323,28.679 233.471,45.000 233.452 C 50.908 233.445,55.261 232.941,58.448 231.895 C 61.393 230.928,62.824 230.864,64.983 231.599 M352.216 232.155 C 352.789 234.936,352.475 240.787,351.380 247.759 C 349.855 257.465,349.365 279.307,350.620 281.657 L 351.413 283.142 353.896 282.909 C 359.022 282.428,362.098 278.456,362.360 271.978 L 362.483 268.956 360.379 266.930 L 358.276 264.903 358.276 262.356 C 358.276 258.610,359.345 257.559,363.644 257.078 C 368.842 256.496,371.324 257.757,373.277 261.975 L 374.431 264.467 373.747 267.817 C 373.370 269.660,372.987 271.289,372.895 271.437 C 372.176 272.600,371.539 278.844,372.073 279.488 C 373.488 281.192,375.220 280.382,376.564 277.386 C 377.082 276.232,377.984 274.743,378.569 274.077 C 379.155 273.410,380.106 271.638,380.682 270.139 C 382.750 264.765,383.325 263.896,385.684 262.577 C 388.424 261.044,388.718 261.067,389.983 262.907 C 391.282 264.794,391.322 266.034,390.330 273.494 C 389.600 278.982,389.409 279.914,387.656 286.552 C 387.080 288.733,386.282 292.767,385.883 295.517 C 385.011 301.519,384.676 303.069,383.428 306.897 C 382.328 310.271,381.219 316.619,380.687 322.586 C 380.047 329.768,379.979 329.908,376.858 330.551 C 373.369 331.270,372.408 330.127,370.015 322.414 C 368.622 317.925,369.309 315.691,372.918 312.974 C 375.826 310.786,376.208 309.994,376.907 304.706 C 377.588 299.553,377.272 296.534,375.973 295.777 L 374.877 295.138 372.701 296.236 C 368.204 298.506,365.194 298.131,362.728 294.994 L 360.972 292.759 358.574 292.759 C 357.255 292.759,355.186 293.007,353.976 293.311 C 351.399 293.959,350.763 293.676,349.179 291.179 C 347.757 288.937,347.162 288.563,344.709 288.366 C 342.061 288.153,342.022 288.193,339.821 293.410 C 338.523 296.484,338.276 296.824,335.962 298.725 L 333.489 300.755 331.163 300.225 C 328.088 299.523,327.329 298.889,325.690 295.654 C 324.705 293.709,324.015 292.782,323.276 292.411 C 322.707 292.126,321.638 291.518,320.900 291.060 C 319.588 290.247,318.621 290.533,318.621 291.735 C 318.621 292.014,315.387 293.793,314.880 293.793 C 314.675 293.793,313.532 292.894,312.340 291.795 C 309.668 289.331,305.958 287.077,305.373 287.563 C 304.871 287.980,303.863 290.014,302.415 293.533 C 301.492 295.778,300.950 296.540,299.020 298.314 L 296.724 300.424 294.391 300.231 C 291.677 300.008,290.574 299.360,289.310 297.249 C 288.836 296.457,287.944 295.084,287.327 294.197 C 286.711 293.311,285.811 291.734,285.327 290.693 C 284.843 289.652,284.157 288.488,283.801 288.107 C 283.446 287.726,283.097 286.871,283.027 286.207 L 282.900 285.000 282.620 286.034 C 281.897 288.707,278.420 296.323,277.709 296.788 C 274.217 299.077,272.909 298.816,270.325 295.319 L 268.963 293.474 266.637 293.669 L 264.310 293.864 262.069 296.248 L 259.828 298.632 257.414 298.245 C 254.531 297.784,254.257 297.589,253.236 295.285 C 250.928 290.075,251.024 281.667,253.506 271.680 L 254.245 268.706 253.307 266.336 C 252.790 265.032,251.828 263.050,251.168 261.931 C 249.448 259.016,250.672 255.915,253.970 254.826 C 257.558 253.642,265.116 257.694,265.659 261.093 C 266.231 264.669,268.429 267.127,269.465 265.350 C 270.283 263.948,271.954 261.918,272.819 261.277 L 273.741 260.594 275.566 261.625 C 278.317 263.179,278.778 263.950,278.101 265.869 C 275.135 274.276,275.618 279.263,279.504 280.351 C 280.343 280.586,281.417 281.137,281.891 281.577 C 283.037 282.638,283.209 282.306,284.308 276.907 C 285.199 272.533,285.615 271.468,287.408 268.966 C 288.019 268.112,288.961 266.638,289.500 265.690 C 290.456 264.009,294.606 259.257,295.927 258.330 C 296.290 258.076,298.317 257.414,300.432 256.859 C 306.649 255.228,306.777 255.007,307.892 244.035 C 309.102 232.134,310.353 229.384,312.775 233.303 C 314.261 235.707,314.267 236.510,312.931 255.364 C 311.712 272.569,312.492 283.016,315.023 283.378 C 317.516 283.734,320.530 280.217,321.712 275.572 C 322.115 273.991,322.864 272.066,323.377 271.296 C 323.890 270.525,325.031 268.735,325.912 267.318 C 329.872 260.951,333.817 257.806,339.230 256.701 C 343.680 255.792,343.999 255.222,345.010 246.379 C 346.380 234.404,346.984 232.484,349.605 231.786 C 351.609 231.252,352.042 231.313,352.216 232.155 M229.886 244.822 L 231.668 245.844 229.919 248.470 C 227.131 252.657,225.473 252.163,223.981 246.701 C 223.783 245.976,224.586 244.997,226.034 244.196 C 227.130 243.590,227.978 243.728,229.886 244.822 M124.219 254.524 C 126.495 254.981,131.843 257.996,132.894 259.414 C 133.555 260.307,133.610 260.858,133.625 266.742 C 133.640 272.770,133.679 273.143,134.378 273.841 C 135.910 275.373,136.972 273.266,137.619 267.414 C 137.978 264.166,138.561 262.023,139.635 260.005 L 140.274 258.803 140.678 260.350 C 140.899 261.200,141.216 262.440,141.380 263.103 C 142.292 266.777,143.839 278.561,143.641 280.327 C 143.167 284.577,142.025 288.308,140.756 289.754 C 140.458 290.093,139.275 291.945,138.125 293.870 L 136.034 297.370 133.523 298.200 L 131.011 299.031 128.495 297.836 C 125.684 296.501,123.733 294.143,122.588 290.694 C 121.908 288.647,121.978 288.666,120.351 290.086 C 119.645 290.703,118.506 291.636,117.822 292.160 C 117.137 292.684,115.966 294.159,115.219 295.438 C 112.034 300.891,107.009 300.861,104.521 295.374 C 103.499 293.120,102.050 291.697,100.074 291.009 C 98.683 290.524,98.422 290.696,95.707 293.879 C 94.453 295.349,92.622 297.189,91.636 297.968 L 89.845 299.384 87.422 299.149 C 84.473 298.864,83.591 298.162,81.847 294.717 C 79.429 289.940,76.918 289.861,72.497 294.425 C 70.334 296.659,68.586 298.143,67.586 298.595 C 60.146 301.954,54.284 294.019,54.943 281.479 C 55.193 276.715,54.960 275.956,52.423 273.276 C 49.963 270.677,49.367 269.757,48.203 266.767 L 47.268 264.365 48.326 261.924 C 50.400 257.138,52.156 256.043,55.359 257.542 C 56.587 258.117,58.560 258.773,59.744 259.000 C 67.985 260.582,70.166 264.875,66.645 272.586 C 63.497 279.483,63.351 284.517,66.249 286.318 C 66.826 286.676,67.011 286.545,72.299 282.014 C 73.330 281.130,75.136 279.928,76.311 279.342 C 80.036 277.486,80.994 276.445,86.705 268.053 C 90.131 263.020,97.212 257.438,99.322 258.107 C 101.595 258.828,104.113 261.368,105.547 264.384 C 106.339 266.051,107.277 267.826,107.631 268.329 C 108.434 269.468,108.487 272.470,107.752 275.172 C 105.873 282.089,106.065 288.243,108.162 288.271 C 109.294 288.285,113.821 285.515,115.742 283.632 C 116.909 282.488,118.346 281.190,118.935 280.747 C 120.596 279.500,122.415 275.271,122.743 271.897 C 123.035 268.903,122.945 268.616,120.913 266.074 C 118.277 262.774,118.018 257.664,120.359 255.157 C 121.431 254.009,121.556 253.989,124.219 254.524 M170.872 258.787 C 175.616 260.874,176.224 267.365,172.172 272.669 C 166.797 279.705,164.863 280.905,158.357 281.244 C 152.927 281.528,152.856 281.568,152.047 284.825 C 151.117 288.566,152.151 289.656,156.627 289.655 C 161.285 289.654,164.238 288.727,169.310 285.673 C 175.260 282.091,177.501 286.857,173.551 294.693 C 169.929 301.879,154.033 302.707,151.122 295.862 C 150.840 295.198,150.167 294.034,149.627 293.276 C 148.329 291.451,146.207 283.116,146.207 279.844 L 146.207 277.541 148.066 275.753 C 149.255 274.609,150.389 273.036,151.215 271.384 C 152.535 268.741,154.810 265.130,156.329 263.263 C 157.298 262.073,163.404 258.839,166.034 258.124 C 167.925 257.610,168.317 257.663,170.872 258.787 M300.398 268.319 C 299.953 268.486,299.195 268.933,298.713 269.312 C 298.232 269.690,297.612 270.000,297.335 270.000 C 296.430 270.000,291.527 275.032,290.425 277.092 C 289.123 279.524,289.341 286.498,290.756 287.687 C 291.828 288.587,292.415 288.312,293.551 286.379 C 294.108 285.431,295.010 284.147,295.555 283.525 C 296.838 282.063,297.844 280.074,298.818 277.069 C 299.963 273.541,300.487 272.211,300.957 271.645 C 302.183 270.168,301.784 267.798,300.398 268.319 M337.069 268.342 C 336.690 268.556,335.941 269.094,335.405 269.538 C 334.868 269.982,334.149 270.345,333.807 270.345 C 333.083 270.345,330.992 272.547,330.144 274.204 C 329.823 274.831,329.122 275.847,328.587 276.461 C 325.964 279.473,325.976 288.621,328.604 288.621 C 329.779 288.621,334.141 282.820,335.359 279.638 C 336.045 277.846,336.992 275.813,337.465 275.120 C 338.514 273.581,339.254 269.212,338.600 268.423 C 338.115 267.839,337.972 267.831,337.069 268.342 M264.184 271.052 L 264.230 273.966 264.565 271.433 C 264.804 269.633,264.790 268.790,264.519 268.519 C 264.241 268.241,264.150 268.924,264.184 271.052 M298.240 272.543 C 298.830 273.254,297.723 278.348,296.664 279.794 C 295.363 281.570,294.062 283.521,292.882 285.465 L 291.762 287.310 291.158 285.983 C 289.786 282.965,290.646 277.246,292.631 276.183 C 293.113 275.925,293.744 275.243,294.034 274.667 C 295.450 271.851,297.011 271.062,298.240 272.543 M336.267 272.666 C 336.862 273.261,336.853 273.349,336.029 274.976 C 335.558 275.907,335.172 276.910,335.172 277.205 C 335.172 278.819,333.304 282.418,332.026 283.263 C 331.299 283.745,330.250 284.933,329.696 285.903 C 328.747 287.565,328.665 287.624,328.296 286.935 C 327.106 284.712,327.790 278.400,329.309 277.587 C 329.660 277.399,330.373 276.352,330.894 275.261 C 332.612 271.657,334.397 270.795,336.267 272.666 M222.269 276.016 C 220.144 277.701,219.882 279.982,221.036 286.732 C 221.944 292.047,222.167 292.476,224.314 293.033 C 227.814 293.941,230.451 293.221,234.828 290.163 C 238.421 287.651,238.359 287.755,238.037 284.810 L 237.759 282.265 233.966 279.549 C 228.740 275.808,224.245 274.450,222.269 276.016 M229.212 277.500 C 234.257 280.871,236.591 282.669,236.713 283.276 C 237.400 286.680,237.262 287.406,235.751 288.334 C 228.013 293.087,228.324 292.961,225.697 292.415 C 223.313 291.920,223.017 291.499,222.060 287.241 C 221.056 282.777,221.089 278.457,222.134 277.344 C 223.300 276.103,227.251 276.190,229.212 277.500 " stroke="none" fill="#7388ff" fill-rule="evenodd"></path><path id="path2" d="M189.078 229.397 C 185.638 232.969,182.415 244.080,182.953 250.509 C 183.374 255.537,183.229 258.410,182.214 265.172 C 180.539 276.334,180.442 278.441,181.486 280.899 C 181.978 282.057,182.793 285.083,183.296 287.623 C 185.425 298.373,192.395 302.092,196.616 294.730 C 200.150 288.569,201.495 284.083,200.681 281.177 C 200.168 279.342,200.457 279.347,197.848 281.133 C 195.012 283.074,191.264 284.170,190.403 283.310 C 189.550 282.456,189.424 275.513,190.165 270.172 C 190.481 267.897,190.953 264.095,191.213 261.724 C 191.474 259.353,192.003 254.525,192.388 250.995 C 192.774 247.465,193.403 242.965,193.785 240.995 C 195.132 234.059,194.839 232.159,191.943 229.052 C 190.643 227.656,190.767 227.641,189.078 229.397 M214.138 231.003 C 212.735 231.233,206.775 232.987,204.395 233.871 C 202.585 234.542,201.302 236.428,201.546 238.056 C 201.977 240.916,202.120 241.300,203.123 242.261 L 204.144 243.239 207.503 242.823 C 213.004 242.142,214.293 242.246,216.696 243.566 C 219.391 245.046,222.727 245.470,223.651 244.449 C 223.977 244.090,225.056 243.539,226.050 243.226 L 227.857 242.656 230.022 243.844 C 233.132 245.550,233.145 245.617,231.017 248.753 C 228.875 251.911,228.012 252.585,226.501 252.283 C 225.107 252.004,223.103 250.763,223.103 250.177 C 223.103 249.657,219.683 251.377,218.942 252.270 C 218.698 252.564,218.077 254.385,217.563 256.316 C 217.049 258.248,216.061 261.845,215.367 264.310 C 213.973 269.265,213.956 270.329,215.186 275.493 C 215.727 277.763,215.767 278.746,215.491 283.102 C 215.316 285.853,215.053 290.043,214.906 292.414 C 214.261 302.800,215.947 304.449,225.690 302.962 C 230.250 302.266,231.342 301.905,236.692 299.321 L 241.552 296.974 243.621 294.164 C 244.759 292.619,246.349 290.555,247.155 289.577 C 249.172 287.131,248.995 286.200,245.821 282.573 C 244.884 281.502,243.733 279.867,243.263 278.939 C 242.751 277.929,241.700 276.693,240.641 275.856 C 239.669 275.088,238.583 274.090,238.228 273.639 C 237.873 273.187,236.193 272.242,234.495 271.538 C 230.293 269.796,230.164 269.627,230.712 266.561 L 231.149 264.116 234.045 261.677 C 243.636 253.600,245.051 246.836,238.831 238.793 C 234.351 233.000,223.270 229.505,214.138 231.003 M58.448 231.895 C 55.261 232.941,50.908 233.445,45.000 233.452 C 28.679 233.471,22.662 234.323,16.704 237.458 C 11.002 240.459,10.598 240.822,9.837 243.633 L 9.219 245.918 10.018 247.625 C 11.044 249.815,11.286 249.995,13.689 250.351 L 15.690 250.647 22.414 247.306 L 29.138 243.966 31.724 244.059 C 35.559 244.197,36.006 244.628,36.138 248.312 C 36.255 251.603,35.908 253.302,34.423 256.687 C 33.125 259.646,32.558 263.138,32.263 270.000 C 31.812 280.472,31.495 282.667,30.098 285.000 C 29.416 286.138,28.811 287.160,28.753 287.272 C 28.537 287.691,32.087 294.361,33.176 295.582 C 34.269 296.808,34.405 296.858,36.897 296.962 L 39.483 297.069 39.975 294.607 C 40.392 292.517,40.397 291.623,40.010 288.693 C 39.641 285.907,39.632 284.186,39.963 279.776 C 40.757 269.213,41.008 265.299,41.212 260.345 C 41.764 246.939,43.401 243.984,50.749 243.127 C 54.721 242.663,56.938 241.923,58.657 240.487 C 59.464 239.813,60.678 238.975,61.355 238.626 C 62.921 237.819,64.138 236.673,64.138 236.007 C 64.138 235.211,65.444 232.834,66.077 232.480 C 68.219 231.281,61.815 230.790,58.448 231.895 M349.605 231.786 C 346.984 232.484,346.380 234.404,345.010 246.379 C 343.999 255.222,343.680 255.792,339.230 256.701 C 333.817 257.806,329.872 260.951,325.912 267.318 C 325.031 268.735,323.890 270.525,323.377 271.296 C 322.864 272.066,322.115 273.991,321.712 275.572 C 320.530 280.217,317.516 283.734,315.023 283.378 C 312.492 283.016,311.712 272.569,312.931 255.364 C 314.267 236.510,314.261 235.707,312.775 233.303 C 310.353 229.384,309.102 232.134,307.892 244.035 C 306.777 255.007,306.649 255.228,300.432 256.859 C 298.317 257.414,296.290 258.076,295.927 258.330 C 294.606 259.257,290.456 264.009,289.500 265.690 C 288.961 266.638,288.019 268.112,287.408 268.966 C 285.615 271.468,285.199 272.533,284.308 276.907 C 283.209 282.306,283.037 282.638,281.891 281.577 C 281.417 281.137,280.343 280.586,279.504 280.351 C 275.618 279.263,275.135 274.276,278.101 265.869 C 278.778 263.950,278.317 263.179,275.566 261.625 L 273.741 260.594 272.819 261.277 C 271.954 261.918,270.283 263.948,269.465 265.350 C 268.429 267.127,266.231 264.669,265.659 261.093 C 265.116 257.694,257.558 253.642,253.970 254.826 C 250.672 255.915,249.448 259.016,251.168 261.931 C 251.828 263.050,252.790 265.032,253.307 266.336 L 254.245 268.706 253.506 271.680 C 251.024 281.667,250.928 290.075,253.236 295.285 C 254.257 297.589,254.531 297.784,257.414 298.245 L 259.828 298.632 262.069 296.248 L 264.310 293.864 266.637 293.669 L 268.963 293.474 270.325 295.319 C 272.909 298.816,274.217 299.077,277.709 296.788 C 278.420 296.323,281.897 288.707,282.620 286.034 L 282.900 285.000 283.027 286.207 C 283.097 286.871,283.446 287.726,283.801 288.107 C 284.157 288.488,284.843 289.652,285.327 290.693 C 285.811 291.734,286.711 293.311,287.327 294.197 C 287.944 295.084,288.836 296.457,289.310 297.249 C 290.574 299.360,291.677 300.008,294.391 300.231 L 296.724 300.424 299.020 298.314 C 300.950 296.540,301.492 295.778,302.415 293.533 C 303.863 290.014,304.871 287.980,305.373 287.563 C 305.958 287.077,309.668 289.331,312.340 291.795 C 313.532 292.894,314.675 293.793,314.880 293.793 C 315.387 293.793,318.621 292.014,318.621 291.735 C 318.621 290.533,319.588 290.247,320.900 291.060 C 321.638 291.518,322.707 292.126,323.276 292.411 C 324.015 292.782,324.705 293.709,325.690 295.654 C 327.329 298.889,328.088 299.523,331.163 300.225 L 333.489 300.755 335.962 298.725 C 338.276 296.824,338.523 296.484,339.821 293.410 C 342.022 288.193,342.061 288.153,344.709 288.366 C 347.162 288.563,347.757 288.937,349.179 291.179 C 350.763 293.676,351.399 293.959,353.976 293.311 C 355.186 293.007,357.255 292.759,358.574 292.759 L 360.972 292.759 362.728 294.994 C 365.194 298.131,368.204 298.506,372.701 296.236 L 374.877 295.138 375.973 295.777 C 377.272 296.534,377.588 299.553,376.907 304.706 C 376.208 309.994,375.826 310.786,372.918 312.974 C 369.309 315.691,368.622 317.925,370.015 322.414 C 372.408 330.127,373.369 331.270,376.858 330.551 C 379.979 329.908,380.047 329.768,380.687 322.586 C 381.219 316.619,382.328 310.271,383.428 306.897 C 384.676 303.069,385.011 301.519,385.883 295.517 C 386.282 292.767,387.080 288.733,387.656 286.552 C 389.409 279.914,389.600 278.982,390.330 273.494 C 391.322 266.034,391.282 264.794,389.983 262.907 C 388.718 261.067,388.424 261.044,385.684 262.577 C 383.325 263.896,382.750 264.765,380.682 270.139 C 380.106 271.638,379.155 273.410,378.569 274.077 C 377.984 274.743,377.082 276.232,376.564 277.386 C 375.220 280.382,373.488 281.192,372.073 279.488 C 371.539 278.844,372.176 272.600,372.895 271.437 C 372.987 271.289,373.370 269.660,373.747 267.817 L 374.431 264.467 373.277 261.975 C 371.324 257.757,368.842 256.496,363.644 257.078 C 359.345 257.559,358.276 258.610,358.276 262.356 L 358.276 264.903 360.379 266.930 L 362.483 268.956 362.360 271.978 C 362.098 278.456,359.022 282.428,353.896 282.909 L 351.413 283.142 350.620 281.657 C 349.365 279.307,349.855 257.465,351.380 247.759 C 352.085 243.273,352.676 236.627,352.530 234.828 C 352.227 231.100,352.217 231.090,349.605 231.786 M120.359 255.157 C 118.018 257.664,118.277 262.774,120.913 266.074 C 122.945 268.616,123.035 268.903,122.743 271.897 C 122.415 275.271,120.596 279.500,118.935 280.747 C 118.346 281.190,116.909 282.488,115.742 283.632 C 113.821 285.515,109.294 288.285,108.162 288.271 C 106.065 288.243,105.873 282.089,107.752 275.172 C 108.487 272.470,108.434 269.468,107.631 268.329 C 107.277 267.826,106.339 266.051,105.547 264.384 C 104.113 261.368,101.595 258.828,99.322 258.107 C 97.212 257.438,90.131 263.020,86.705 268.053 C 80.994 276.445,80.036 277.486,76.311 279.342 C 75.136 279.928,73.330 281.130,72.299 282.014 C 67.011 286.545,66.826 286.676,66.249 286.318 C 63.351 284.517,63.497 279.483,66.645 272.586 C 70.166 264.875,67.985 260.582,59.744 259.000 C 58.560 258.773,56.587 258.117,55.359 257.542 C 52.156 256.043,50.400 257.138,48.326 261.924 L 47.268 264.365 48.203 266.767 C 49.367 269.757,49.963 270.677,52.423 273.276 C 54.960 275.956,55.193 276.715,54.943 281.479 C 54.284 294.019,60.146 301.954,67.586 298.595 C 68.586 298.143,70.334 296.659,72.497 294.425 C 76.918 289.861,79.429 289.940,81.847 294.717 C 83.591 298.162,84.473 298.864,87.422 299.149 L 89.845 299.384 91.636 297.968 C 92.622 297.189,94.453 295.349,95.707 293.879 C 98.422 290.696,98.683 290.524,100.074 291.009 C 102.050 291.697,103.499 293.120,104.521 295.374 C 107.009 300.861,112.034 300.891,115.219 295.438 C 115.966 294.159,117.137 292.684,117.822 292.160 C 118.506 291.636,119.645 290.703,120.351 290.086 C 121.978 288.666,121.908 288.647,122.588 290.694 C 123.733 294.143,125.684 296.501,128.495 297.836 L 131.011 299.031 133.523 298.200 L 136.034 297.370 138.125 293.870 C 139.275 291.945,140.458 290.093,140.756 289.754 C 142.025 288.308,143.167 284.577,143.641 280.327 C 143.839 278.561,142.292 266.777,141.380 263.103 C 141.216 262.440,140.899 261.200,140.678 260.350 L 140.274 258.803 139.635 260.005 C 138.561 262.023,137.978 264.166,137.619 267.414 C 136.972 273.266,135.910 275.373,134.378 273.841 C 133.679 273.143,133.640 272.770,133.625 266.742 C 133.610 260.858,133.555 260.307,132.894 259.414 C 131.843 257.996,126.495 254.981,124.219 254.524 C 121.556 253.989,121.431 254.009,120.359 255.157 M166.034 258.124 C 163.404 258.839,157.298 262.073,156.329 263.263 C 154.810 265.130,152.535 268.741,151.215 271.384 C 150.389 273.036,149.255 274.609,148.066 275.753 L 146.207 277.541 146.207 279.844 C 146.207 283.116,148.329 291.451,149.627 293.276 C 150.167 294.034,150.840 295.198,151.122 295.862 C 154.033 302.707,169.929 301.879,173.551 294.693 C 177.501 286.857,175.260 282.091,169.310 285.673 C 164.238 288.727,161.285 289.654,156.627 289.655 C 152.151 289.656,151.117 288.566,152.047 284.825 C 152.856 281.568,152.927 281.528,158.357 281.244 C 164.863 280.905,166.797 279.705,172.172 272.669 C 176.987 266.366,175.307 259.677,168.448 257.840 C 168.069 257.738,166.983 257.866,166.034 258.124 M301.586 270.088 C 301.470 270.667,301.187 271.368,300.957 271.645 C 300.487 272.211,299.963 273.541,298.818 277.069 C 297.844 280.074,296.838 282.063,295.555 283.525 C 295.010 284.147,294.108 285.431,293.551 286.379 C 292.415 288.312,291.828 288.587,290.756 287.687 C 289.341 286.498,289.123 279.524,290.425 277.092 C 291.527 275.032,296.430 270.000,297.335 270.000 C 297.612 270.000,298.232 269.690,298.713 269.312 C 300.852 267.629,302.015 267.943,301.586 270.088 M338.600 268.423 C 339.254 269.212,338.514 273.581,337.465 275.120 C 336.992 275.813,336.045 277.846,335.359 279.638 C 334.139 282.825,333.525 283.698,329.592 287.845 C 326.351 291.262,325.370 280.155,328.587 276.461 C 329.122 275.847,329.823 274.831,330.144 274.204 C 330.992 272.547,333.083 270.345,333.807 270.345 C 334.149 270.345,334.868 269.982,335.405 269.538 C 337.350 267.927,338.000 267.701,338.600 268.423 M264.565 271.433 L 264.230 273.966 264.184 271.052 C 264.150 268.924,264.241 268.241,264.519 268.519 C 264.790 268.790,264.804 269.633,264.565 271.433 M229.110 276.367 C 229.694 276.623,231.879 278.055,233.966 279.549 L 237.759 282.265 238.037 284.810 C 238.359 287.755,238.421 287.651,234.828 290.163 C 229.526 293.868,223.549 294.584,222.160 291.680 C 220.728 288.686,219.928 279.087,220.978 277.495 C 222.342 275.427,225.854 274.940,229.110 276.367 " stroke="none" fill="#ff2e64" fill-rule="evenodd"></path></g></svg>