<?xml version="1.0" standalone="no"?>
<!DOCTYPE svg PUBLIC "-//W3C//DTD SVG 20010904//EN"
 "http://www.w3.org/TR/2001/REC-SVG-20010904/DTD/svg10.dtd">
<svg version="1.0" xmlns="http://www.w3.org/2000/svg"
 width="200.000000pt" height="200.000000pt" viewBox="0 0 200.000000 200.000000"
 preserveAspectRatio="xMidYMid meet">
<metadata>
Created by potrace 1.15, written by Peter Selinger 2001-2017
</metadata>
<g transform="translate(0.000000,200.000000) scale(0.100000,-0.100000)"
fill="#000000" stroke="none">
<path d="M887 783 c-8 -10 -21 -40 -28 -68 -7 -27 -14 -44 -17 -37 -7 21 -59
14 -76 -10 l-16 -22 0 22 c0 37 -38 29 -49 -10 l-9 -33 -1 33 c-1 42 -31 45
-31 3 0 -17 -4 -33 -10 -36 -6 -4 -10 6 -10 24 0 43 -40 53 -76 20 -24 -22
-24 -22 -24 -2 0 19 -6 21 -45 21 -42 0 -45 -1 -51 -33 -13 -71 16 -115 38
-57 10 26 14 29 31 18 11 -6 28 -18 37 -27 26 -25 149 -18 171 10 20 25 39 27
39 6 0 -22 44 -37 76 -25 15 6 32 6 42 1 9 -5 26 -5 37 -1 13 5 24 2 32 -9 9
-13 14 -14 24 -3 7 6 30 12 51 12 50 0 82 31 74 70 -3 18 0 33 9 40 8 7 15 25
15 41 0 40 -29 52 -112 47 -53 -4 -68 -2 -68 8 0 20 -34 17 -53 -3z"/>
<path d="M1296 778 c-9 -12 -16 -33 -16 -45 0 -13 -10 -31 -21 -41 -12 -9 -30
-30 -41 -47 l-19 -30 7 38 c5 30 3 37 -10 37 -9 0 -23 -15 -31 -32 l-15 -33 6
33 c5 27 3 32 -14 32 -21 0 -32 -25 -32 -70 0 -35 18 -52 41 -40 10 6 20 7 23
2 2 -4 70 -7 150 -6 80 1 146 -1 146 -5 0 -3 -7 -15 -15 -25 -20 -26 -19 -65
1 -73 26 -10 47 10 65 58 9 24 26 49 38 57 11 8 21 23 21 34 0 16 -3 17 -21 8
-19 -11 -20 -9 -13 24 5 29 3 36 -10 36 -9 0 -23 -15 -31 -32 l-15 -33 6 33
c5 27 3 32 -14 32 -15 0 -22 -9 -27 -32 -9 -41 -14 -50 -25 -43 -5 3 3 30 16
60 31 67 30 118 -3 123 -25 4 -38 -15 -48 -70 -5 -24 -13 -38 -26 -41 -11 -3
-26 -22 -35 -42 -8 -21 -18 -35 -21 -31 -3 3 4 28 16 56 26 60 25 123 -1 128
-9 2 -23 -7 -32 -20z"/>
<path d="M325 771 c-31 -13 -47 -38 -40 -61 9 -29 46 -27 42 2 -1 17 4 24 20
26 21 3 22 1 15 -30 -11 -53 -9 -131 5 -135 16 -6 19 3 33 95 l12 72 40 0 c32
0 39 3 36 18 -3 14 -15 17 -73 19 -39 1 -79 -2 -90 -6z"/>
</g>
</svg>
