<?xml version="1.0" standalone="no"?>
<!DOCTYPE svg PUBLIC "-//W3C//DTD SVG 20010904//EN"
 "http://www.w3.org/TR/2001/REC-SVG-20010904/DTD/svg10.dtd">
<svg version="1.0" xmlns="http://www.w3.org/2000/svg"
 width="200.000000pt" height="200.000000pt" viewBox="0 0 200.000000 200.000000"
 preserveAspectRatio="xMidYMid meet">
<metadata>
Created by potrace 1.15, written by Peter Selinger 2001-2017
</metadata>
<g transform="translate(0.000000,200.000000) scale(0.100000,-0.100000)"
fill="#000000" stroke="none">
<path d="M907 782 c-23 -26 -37 -68 -37 -116 0 -40 -13 -66 -33 -66 -5 0 -1 7
8 16 9 9 15 26 13 38 -4 28 -56 35 -75 10 -11 -15 -13 -15 -13 -2 0 9 -6 18
-12 20 -23 9 -38 -3 -39 -30 -1 -21 -2 -23 -6 -7 -13 51 -43 54 -43 5 0 -16
-4 -32 -10 -35 -6 -4 -10 8 -10 28 0 22 -6 37 -15 41 -21 8 -61 -9 -74 -31 -9
-16 -10 -16 -11 5 0 25 -27 30 -49 10 -11 -10 -13 -10 -7 0 5 8 0 12 -12 12
-24 0 -32 -18 -32 -71 0 -32 4 -39 19 -39 12 0 21 9 25 24 6 24 7 24 36 10 16
-9 30 -20 30 -25 0 -5 36 -9 81 -8 67 1 82 4 92 20 15 24 29 24 45 -1 11 -18
21 -20 97 -17 47 1 85 -1 85 -5 0 -10 98 1 122 14 27 13 40 45 29 66 -7 14 -5
21 10 30 15 10 19 22 17 45 -4 47 -44 63 -120 51 -44 -8 -58 -7 -58 2 0 6 -7
15 -16 18 -21 8 -19 9 -37 -12z"/>
<path d="M1326 784 c-9 -8 -19 -33 -22 -56 -5 -28 -13 -43 -30 -50 -13 -6 -27
-24 -33 -39 -14 -40 -23 -36 -15 6 5 30 4 35 -13 35 -14 0 -24 -11 -31 -32
l-12 -33 5 33 c4 27 1 32 -15 32 -22 0 -33 -31 -28 -76 l3 -29 150 -2 c83 -1
167 -2 188 -3 l39 0 -27 -31 c-28 -34 -29 -56 -4 -72 27 -17 47 -1 66 52 10
30 27 55 40 62 31 17 32 53 2 44 -20 -7 -21 -5 -16 24 5 25 3 31 -11 31 -10 0
-23 -12 -29 -27 l-11 -28 -1 28 c-1 38 -35 34 -39 -5 -2 -15 -10 -32 -18 -38
-20 -18 -18 2 5 48 26 53 34 104 18 126 -24 33 -54 2 -71 -75 -3 -15 -14 -29
-26 -32 -11 -3 -25 -19 -31 -36 -6 -17 -15 -31 -19 -31 -4 0 3 26 16 58 26 63
30 102 12 120 -16 16 -23 15 -42 -4z"/>
<path d="M312 754 c-16 -11 -22 -24 -20 -42 4 -36 38 -44 38 -9 0 17 7 26 21
30 23 6 23 5 3 -121 -7 -42 -6 -44 17 -40 18 2 25 10 27 33 1 17 7 54 13 83
l11 53 36 -3 c28 -2 37 1 40 15 3 15 -6 17 -80 17 -60 0 -90 -4 -106 -16z"/>
</g>
</svg>
