<?xml version="1.0" standalone="no"?>
<!DOCTYPE svg PUBLIC "-//W3C//DTD SVG 20010904//EN"
 "http://www.w3.org/TR/2001/REC-SVG-20010904/DTD/svg10.dtd">
<svg version="1.0" xmlns="http://www.w3.org/2000/svg"
 width="1400.000000pt" height="980.000000pt" viewBox="0 0 1400.000000 980.000000"
 preserveAspectRatio="xMidYMid meet">
<metadata>
Created by potrace 1.15, written by Peter Selinger 2001-2017
</metadata>
<g transform="translate(0.000000,980.000000) scale(0.100000,-0.100000)"
fill="#000000" stroke="none">
<path d="M1657 8882 c-22 -24 -22 -95 -1 -116 13 -14 47 -16 219 -16 199 0
204 0 219 22 9 12 16 36 16 53 0 17 -7 41 -16 53 -15 21 -20 22 -218 22 -184
0 -204 -2 -219 -18z"/>
<path d="M1367 7795 c-27 -7 -67 -25 -90 -42 -48 -33 -101 -116 -111 -170 -3
-21 -6 -369 -6 -774 0 -817 -1 -799 66 -877 35 -41 117 -92 148 -92 28 0 45
-29 44 -75 -1 -55 14 -75 57 -75 46 0 65 26 65 88 l0 52 94 0 94 0 5 -30 c4
-16 14 -41 23 -55 37 -57 4 -55 889 -55 899 0 850 -4 897 62 l23 33 0 565 c-1
628 1 608 -68 650 -30 19 -53 20 -464 20 l-433 0 0 90 0 90 125 0 c122 0 125
0 141 25 11 17 15 37 11 61 -10 61 -16 64 -152 64 l-123 0 -4 128 c-3 105 -8
134 -26 168 -34 66 -69 101 -130 131 l-57 28 -485 1 c-362 2 -497 -1 -533 -11z
m1054 -83 c81 -42 112 -98 117 -213 l4 -89 -26 0 c-26 0 -26 0 -26 80 0 89
-15 130 -58 165 -52 41 -79 43 -534 44 -431 1 -438 1 -438 21 0 20 7 20 454
20 l454 0 53 -28z m-11 -442 c0 -44 -3 -52 -24 -60 -41 -15 -56 -48 -56 -122
l0 -68 -51 0 -51 0 4 88 c3 78 6 94 31 130 28 40 94 82 130 82 14 0 17 -9 17
-50z m1079 -324 c19 -18 21 -30 21 -153 0 -126 -1 -133 -20 -133 -19 0 -20 7
-20 114 0 63 -3 121 -6 130 -6 14 -79 16 -725 16 l-719 0 0 23 0 22 724 0
c698 0 725 -1 745 -19z"/>
<path d="M13022 7286 c-46 -15 -147 -88 -163 -118 -8 -15 7 -39 81 -135 50
-65 121 -157 157 -205 37 -49 70 -88 73 -88 17 0 139 141 160 186 63 129 16
293 -98 342 -64 28 -156 35 -210 18z"/>
<path d="M6507 7270 c-235 -40 -369 -309 -257 -518 38 -72 87 -120 162 -158
75 -39 199 -45 278 -15 186 72 278 253 222 438 -54 176 -226 283 -405 253z
m273 -150 c10 -5 22 -22 28 -37 27 -78 -76 -136 -123 -70 -22 31 -18 65 10 92
25 26 54 31 85 15z"/>
<path d="M5217 6770 c-31 -124 -57 -229 -57 -234 0 -5 -11 -19 -25 -32 -22
-20 -25 -32 -25 -88 0 -42 5 -69 14 -78 7 -8 17 -34 21 -59 23 -146 156 -268
360 -332 173 -54 452 -62 614 -17 58 15 111 67 111 108 0 97 -143 128 -449 98
-174 -18 -316 -22 -378 -10 -89 16 -160 71 -203 154 -17 33 -18 40 -5 50 11 9
15 33 15 86 0 60 -3 75 -19 86 -18 13 -17 21 35 223 30 116 53 224 51 240 -1
18 -26 -63 -60 -195z m273 -688 c66 -2 175 3 254 12 295 34 446 14 446 -59 0
-27 -23 -49 -75 -71 -52 -23 -305 -31 -431 -15 -116 15 -240 54 -313 100 -55
34 -121 85 -121 94 0 2 28 -10 62 -27 57 -28 73 -31 178 -34z"/>
<path d="M11950 6829 c0 -8 14 -95 30 -194 16 -99 30 -190 30 -202 0 -13 5
-23 10 -23 12 0 89 47 108 67 7 7 18 13 23 13 5 0 25 7 45 15 l35 14 -97 113
c-152 177 -184 211 -184 197z"/>
<path d="M12801 6753 c42 -83 59 -155 59 -258 0 -153 -43 -270 -146 -397 -270
-329 -812 -368 -1111 -78 -49 48 -54 51 -37 21 45 -80 192 -232 256 -265 13
-7 41 -24 63 -38 22 -14 74 -38 115 -54 71 -27 84 -28 230 -28 152 0 157 0
244 33 191 73 355 219 438 391 38 80 52 145 52 250 1 162 -43 289 -147 428
-22 28 -41 52 -42 52 -2 0 10 -26 26 -57z"/>
<path d="M7560 6334 c-108 -16 -148 -32 -120 -49 13 -8 34 -55 68 -150 l29
-80 104 -52 c109 -55 125 -60 113 -41 -4 7 -3 8 5 4 6 -4 9 -12 6 -17 -6 -8 8
-13 28 -10 4 0 7 -4 7 -10 0 -7 12 0 27 15 14 14 23 29 20 33 -11 11 26 62 44
60 10 -1 15 -5 13 -9 -3 -5 -10 -5 -16 -2 -7 5 -8 2 -3 -6 5 -8 4 -11 -3 -6
-6 3 -16 -3 -22 -15 -10 -17 -9 -20 2 -17 29 10 199 243 202 276 3 46 -348 98
-504 76z"/>
<path d="M2983 4442 c-173 -138 -230 -328 -154 -518 20 -53 72 -145 99 -176
23 -27 4 -22 -84 21 -135 66 -205 85 -319 86 -55 0 -120 -6 -145 -13 -63 -19
-143 -104 -166 -177 -10 -30 -15 -57 -12 -60 3 -3 48 6 101 19 138 36 257 50
362 42 89 -7 275 -44 275 -55 0 -3 -29 -21 -64 -39 -184 -95 -253 -261 -197
-478 11 -45 27 -93 34 -108 l14 -26 22 62 c58 166 178 364 279 462 l41 39 26
-59 c121 -269 199 -531 249 -834 31 -185 46 -353 54 -607 l7 -203 88 86 c58
56 87 92 87 107 0 31 -28 262 -46 382 -61 409 -161 747 -313 1054 -28 57 -51
105 -51 107 0 2 27 4 59 4 115 0 293 -46 414 -106 57 -29 59 -22 16 61 -41 80
-99 138 -172 170 -53 24 -69 27 -136 23 -44 -3 -90 -12 -108 -22 -79 -41 -10
45 92 116 77 53 255 118 323 118 38 0 13 21 -74 65 -105 51 -186 64 -258 42
-31 -10 -69 -29 -86 -43 -33 -28 -90 -119 -111 -178 -7 -20 -16 -36 -20 -36
-10 0 -45 138 -65 250 -12 71 -15 141 -12 278 2 100 2 182 1 182 0 0 -23 -17
-50 -38z"/>
<path d="M11216 3525 c-3 -9 -6 -79 -6 -154 l0 -138 178 -6 c97 -3 185 -8 195
-12 16 -7 17 4 17 133 0 77 3 147 6 155 8 23 -28 29 -212 34 -154 5 -172 4
-178 -12z"/>
<path d="M11644 3494 c3 -9 6 -78 6 -155 0 -137 0 -139 23 -138 27 0 87 -13
187 -40 41 -12 80 -21 87 -21 10 0 13 30 13 124 0 123 -9 157 -32 125 -8 -11
-9 -11 -5 2 6 19 -55 50 -185 93 -89 30 -102 32 -94 10z"/>
<path d="M10580 3435 c-105 -43 -105 -43 -103 -77 4 -88 122 -1588 158 -2020
8 -97 15 -181 15 -186 0 -7 42 -32 55 -32 3 0 5 531 5 1180 0 938 -3 1180 -12
1179 -7 -1 -60 -21 -118 -44z"/>
<path d="M5883 3440 c-28 -16 -54 -34 -57 -38 -3 -5 52 -40 122 -77 446 -240
1137 -707 1910 -1289 117 -89 233 -176 258 -195 43 -32 46 -33 62 -17 16 16
16 18 -3 32 -11 8 -58 46 -105 84 -47 38 -155 124 -240 192 -85 67 -186 149
-225 181 -38 33 -97 77 -130 100 -33 22 -96 68 -140 102 -266 203 -718 515
-1007 695 -127 79 -137 87 -138 116 0 18 -9 39 -23 52 -31 30 -170 92 -204 92
-15 0 -51 -14 -80 -30z"/>
<path d="M12110 2343 c0 -586 3 -1063 8 -1061 241 112 581 333 818 533 77 64
354 340 354 352 0 5 -93 24 -207 42 -407 63 -684 109 -688 113 -2 2 30 195 71
428 42 234 77 438 77 454 2 32 -2 34 -310 155 l-123 49 0 -1065z"/>
<path d="M2024 3178 c-32 -36 -80 -119 -95 -163 -16 -52 -16 -159 1 -210 24
-72 107 -184 169 -228 14 -9 22 -19 19 -22 -2 -3 -43 2 -89 11 -110 21 -241
21 -314 0 -77 -23 -147 -91 -169 -167 -16 -52 -21 -119 -10 -119 3 0 24 13 47
30 56 39 189 96 282 120 79 20 285 39 285 25 0 -4 -27 -33 -59 -65 -121 -118
-140 -248 -59 -401 16 -31 42 -71 57 -90 l28 -33 6 77 c10 111 33 215 69 304
31 77 75 154 87 152 12 -1 99 -115 181 -239 105 -157 220 -380 295 -575 32
-82 60 -152 62 -155 4 -4 99 45 116 60 4 4 -11 49 -33 101 -147 333 -302 587
-487 796 -35 39 -60 73 -56 76 4 3 36 11 71 17 62 13 295 9 356 -6 27 -6 28
-6 16 15 -18 35 -90 101 -135 124 -29 15 -59 21 -110 21 -60 0 -79 -4 -134
-32 -34 -17 -65 -32 -67 -32 -8 0 62 106 91 139 41 46 141 116 206 145 l54 24
-60 17 c-80 24 -189 25 -235 2 -81 -40 -122 -101 -139 -207 -6 -35 -12 -65
-14 -67 -3 -2 -18 18 -34 44 -77 127 -127 272 -172 501 l-6 34 -21 -24z"/>
<path d="M11210 3059 l0 -144 92 0 c51 0 140 -4 198 -8 l105 -8 0 138 0 138
-25 7 c-14 4 -103 11 -197 14 l-173 7 0 -144z"/>
<path d="M11650 3030 c0 -156 -5 -146 80 -154 19 -2 43 -7 53 -11 9 -4 26 -5
37 -2 11 3 18 1 15 -3 -4 -7 71 -26 77 -19 2 1 13 -3 26 -10 l22 -12 0 140 0
140 -52 15 c-29 8 -66 18 -83 21 -16 4 -38 9 -49 12 -14 4 -16 2 -11 -8 5 -9
1 -8 -11 2 -10 9 -38 19 -61 23 l-43 5 0 -139z"/>
<path d="M10868 3149 c-16 -9 -18 -27 -18 -144 0 -133 0 -135 23 -135 12 0 29
5 37 10 13 8 12 10 -2 10 -10 0 -18 5 -18 11 0 5 5 7 10 4 6 -4 10 40 10 124
0 136 -3 143 -42 120z"/>
<path d="M11261 2881 c-7 -5 -22 -6 -32 -4 -18 5 -19 -2 -19 -119 l0 -125 158
-6 c86 -4 174 -9 195 -13 33 -6 37 -4 37 15 0 11 -6 21 -12 21 -10 0 -10 2 -1
8 7 4 13 44 15 105 4 115 21 102 -166 117 -155 12 -157 12 -175 1z"/>
<path d="M11648 2731 l3 -127 91 -18 c75 -14 93 -15 100 -4 8 10 9 9 5 -3 -4
-13 4 -20 37 -28 24 -6 51 -13 60 -17 14 -5 16 8 16 124 l0 130 -127 30 c-71
17 -141 33 -158 36 l-30 5 3 -128z"/>
<path d="M10880 2841 c-25 -7 -25 -8 -28 -134 -2 -87 1 -127 8 -127 6 0 8 6 4
13 -6 9 -5 9 7 0 30 -24 38 0 41 130 2 70 1 127 -2 126 -3 -1 -16 -4 -30 -8z"/>
<path d="M11210 2483 l0 -120 165 -7 c90 -3 178 -9 195 -12 l30 -6 0 95 c0 67
-4 97 -12 100 -8 4 -7 6 4 6 9 1 15 8 14 18 -4 24 -45 31 -233 39 l-163 7 0
-120z"/>
<path d="M11650 2560 c11 -7 11 -10 2 -10 -7 0 -11 -4 -8 -8 3 -5 6 -53 7
-108 l1 -100 92 -19 c110 -23 161 -36 202 -52 12 -4 14 12 14 95 0 87 -2 101
-17 105 -17 4 -17 5 0 6 20 1 22 14 5 28 -14 11 -129 42 -168 47 -14 1 -30 5
-35 8 -19 11 -111 19 -95 8z"/>
<path d="M11210 2188 l0 -145 178 -6 c97 -3 185 -7 195 -9 16 -3 18 9 20 141
l2 143 -42 -5 c-23 -2 -46 0 -51 5 -6 6 -76 12 -156 15 l-146 6 0 -145z"/>
<path d="M11652 2158 l3 -143 30 -3 c17 -2 81 -17 144 -33 63 -16 118 -29 123
-29 4 0 8 63 8 140 0 77 -2 140 -5 140 -2 0 -55 13 -117 29 -62 15 -130 31
-151 35 l-38 7 3 -143z"/>
<path d="M10878 2282 l-28 -3 0 -145 0 -144 28 6 c28 7 54 24 36 24 -5 0 -8
37 -6 88 2 48 2 107 0 132 -3 43 -4 45 -30 42z"/>
<path d="M11210 1881 c0 -116 7 -151 24 -123 2 4 51 4 108 1 242 -17 263 -18
243 -9 -17 7 -18 9 -2 9 15 1 17 13 17 115 0 126 0 126 -66 127 -16 1 -95 3
-176 5 l-148 5 0 -130z"/>
<path d="M11649 1873 c-1 -108 0 -135 6 -141 6 -6 185 -39 185 -34 0 2 6 0 13
-5 6 -6 26 -13 42 -17 17 -4 38 -9 48 -12 16 -5 17 5 17 120 l0 124 -32 11
c-52 16 -241 61 -260 61 -16 0 -18 -12 -19 -107z"/>
<path d="M10868 1963 c-16 -4 -18 -19 -18 -132 l0 -128 29 5 30 4 3 129 c3
137 4 135 -44 122z"/>
<path d="M11247 1722 l-38 -3 3 -81 3 -81 110 2 c61 0 147 -3 193 -7 l82 -8 0
77 c0 63 -3 78 -17 83 -27 11 -276 24 -336 18z"/>
<path d="M11645 1682 c6 -4 10 -38 10 -77 l0 -69 75 -12 c41 -7 86 -10 100 -7
18 3 21 2 12 -5 -10 -7 -4 -11 22 -16 20 -4 41 -4 48 0 6 4 8 3 5 -3 -4 -6 4
-13 19 -16 l25 -4 -3 76 -3 76 -80 23 c-44 13 -90 21 -102 19 -12 -2 -20 -1
-18 3 6 9 -53 22 -65 15 -5 -3 -7 -14 -5 -25 2 -12 0 -18 -5 -15 -5 3 -7 14
-5 25 3 15 -2 20 -18 20 -12 0 -17 -4 -12 -8z"/>
<path d="M11210 1170 l0 -73 101 7 c56 3 106 9 113 13 6 4 25 8 41 9 17 2 41
4 55 7 14 2 37 5 53 6 25 1 27 4 27 40 0 49 4 48 -217 57 l-173 7 0 -73z"/>
<path d="M10955 1218 c-49 -6 -93 -15 -97 -22 -4 -6 -8 -26 -8 -44 0 -44 18
-50 184 -56 l136 -6 0 70 0 70 -62 -1 c-35 -1 -103 -6 -153 -11z"/>
</g>
</svg>
